<?xml version="1.0" standalone="no"?>
<!DOCTYPE svg PUBLIC "-//W3C//DTD SVG 20010904//EN"
 "http://www.w3.org/TR/2001/REC-SVG-20010904/DTD/svg10.dtd">
<svg version="1.0" xmlns="http://www.w3.org/2000/svg"
 width="512.000000pt" height="512.000000pt" viewBox="0 0 512.000000 512.000000"
 preserveAspectRatio="xMidYMid meet">
<metadata>
Created by potrace 1.11, written by Peter Selinger 2001-2013
</metadata>
<g transform="translate(0.000000,512.000000) scale(0.100000,-0.100000)"
fill="#000000" stroke="none">
<path d="M3850 5090 c-137 -38 -209 -72 -357 -171 -233 -156 -381 -301 -662
-644 -104 -128 -343 -476 -432 -630 -201 -350 -394 -729 -549 -1080 -29 -66
-61 -139 -71 -163 -11 -23 -38 -89 -60 -145 -22 -56 -47 -116 -54 -134 -8 -17
-15 -34 -15 -38 0 -13 -42 -76 -47 -71 -15 15 134 496 403 1304 275 826 273
821 279 957 4 95 -12 158 -52 201 -95 103 -237 53 -426 -149 -47 -52 -97 -107
-109 -123 -12 -16 -29 -36 -37 -44 -25 -26 -205 -270 -283 -385 -176 -257
-383 -632 -484 -877 -48 -115 -56 -144 -61 -218 -5 -78 -3 -88 19 -120 30 -45
90 -74 134 -65 38 7 59 30 192 210 49 66 103 136 120 155 121 140 144 186 122
240 -21 52 -75 64 -147 35 l-32 -14 10 27 c14 36 97 191 161 300 202 342 541
787 639 838 16 8 29 13 30 12 9 -32 -11 -145 -46 -263 -79 -267 -137 -458
-150 -495 -20 -57 -108 -334 -145 -460 -15 -52 -47 -157 -69 -233 -123 -414
-305 -1123 -391 -1527 -66 -307 -126 -534 -220 -826 -46 -143 -93 -322 -93
-354 0 -47 6 -63 32 -92 22 -25 36 -32 65 -32 47 0 72 25 87 89 24 102 161
575 208 720 70 214 157 460 244 685 41 107 91 240 110 295 78 220 162 428 300
745 126 289 344 744 427 890 186 327 436 697 608 900 139 164 392 392 538 485
83 53 203 111 259 125 83 20 98 22 142 15 91 -13 133 -105 128 -280 -8 -285
-226 -746 -578 -1225 -239 -325 -615 -722 -927 -980 -41 -34 -84 -70 -95 -79
-207 -171 -458 -335 -657 -430 -87 -42 -98 -99 -30 -163 20 -19 86 -68 145
-109 60 -41 155 -108 212 -149 58 -41 198 -136 312 -210 209 -135 1001 -665
1273 -850 191 -130 257 -164 293 -151 21 8 27 17 27 39 0 32 3 30 -180 147
-57 37 -159 108 -225 158 -101 77 -423 307 -725 518 -41 29 -93 66 -115 81
-22 16 -103 75 -180 130 -77 55 -198 144 -270 197 -350 259 -348 258 -342 275
2 6 73 58 158 116 210 142 443 321 560 430 8 8 60 55 115 104 145 131 497 485
596 601 198 232 362 461 512 718 146 249 206 390 260 602 24 94 26 114 27 211
1 326 -171 496 -431 424z"/>
</g>
</svg>
