<?xml version="1.0" standalone="no"?>
<!DOCTYPE svg PUBLIC "-//W3C//DTD SVG 1.1//EN" "http://www.w3.org/Graphics/SVG/1.1/DTD/svg11.dtd" >
<svg xmlns="http://www.w3.org/2000/svg" xmlns:xlink="http://www.w3.org/1999/xlink" version="1.1">
<metadata>
Created by FontForge 20170910 at Wed Feb 13 13:57:49 2019
 By Jimmy Wärting
Copyright \(c\) 2019 by Svet Simov. All rights reserved.
</metadata>
<defs>
<font id="Noah-Regular" horiz-adv-x="0" >
  <font-face 
    font-family="Noah"
    font-weight="400"
    font-stretch="normal"
    units-per-em="1000"
    panose-1="0 0 5 0 0 0 0 0 0 0"
    ascent="800"
    descent="-200"
    x-height="442"
    cap-height="680"
    bbox="-341 -294 1195 949"
    underline-thickness="50"
    underline-position="-100"
    stemh="55"
    stemv="62"
    unicode-range="U+0020-FB02"
  />
<missing-glyph horiz-adv-x="466" 
d="M382 712v-932h-295v932h295zM310 650h-153v-31h60v-35h-61v-30h154v30h-61v35h61v31zM249 529h-93v-97h154v32h-61v65zM217 498v-34h-31v34h31zM310 407h-154v-31h61v-34h-61v-31h93v65h61v31zM310 351h-30v-61h-124v-32h154v93zM310 238h-93v-53h32v22h31v-44h-94v75
h-30v-106h154v106zM310 76h-154v-105h154v105zM280 46v-44h-94v44h94zM310 -50h-154v-31h65l-65 -44v-31h154v31h-95l66 44h29v31z" />
    <glyph glyph-name="f_f" unicode="ff" horiz-adv-x="656" 
d="M588 672c-54 0 -89 -35 -89 -103v-127h145v-54h-145v-388h-61v388h-267v-388h-61v388h-92v54h92v127c0 87 46 160 145 160c39 0 70 -7 103 -23l-19 -50c-22 10 -45 16 -77 16c-56 0 -91 -35 -91 -103v-127h267v127c0 87 45 160 143 160c47 0 80 -14 114 -39l-27 -44
c-26 17 -48 26 -80 26z" />
    <glyph glyph-name="f_f_i" unicode="ffi" horiz-adv-x="882" 
d="M804 442v-442h-61v388h-244v-388h-61v388h-267v-388h-61v388h-92v54h92v127c0 87 46 160 145 160c37 0 66 -6 103 -23l-19 -50c-24 11 -47 16 -76 16c-57 0 -92 -35 -92 -103v-127h267v111c0 104 54 176 170 176c69 0 123 -26 173 -72l-33 -40c-40 33 -79 55 -133 55
c-71 0 -116 -34 -116 -119v-111h305z" />
    <glyph glyph-name="f_f_l" unicode="ffl" horiz-adv-x="882" 
d="M755 717h49v-717h-61v630c-43 28 -82 42 -134 42c-69 0 -110 -37 -110 -118v-112h140v-54h-140v-388h-61v388h-267v-388h-61v388h-92v54h92v127c0 87 46 160 145 160c39 0 70 -7 103 -23l-19 -50c-20 9 -45 16 -77 16c-56 0 -91 -35 -91 -103v-127h267v114
c0 97 51 173 164 173c57 0 105 -16 146 -46z" />
    <glyph glyph-name="fi" unicode="fi" horiz-adv-x="552" 
d="M474 442v-442h-61v388h-242v-388h-61v388h-92v54h92v111c0 104 54 176 169 176c75 0 130 -27 181 -72l-31 -42c-41 35 -83 57 -142 57c-71 0 -116 -35 -116 -119v-111h303z" />
    <glyph glyph-name="fl" unicode="fl" horiz-adv-x="545" 
d="M418 717h49v-717h-61v631c-43 30 -80 41 -125 41c-70 0 -110 -39 -110 -114v-116h145v-54h-145v-388h-61v388h-92v54h92v116c0 96 52 171 164 171c49 0 92 -12 137 -45z" />
    <glyph glyph-name=".notdef" horiz-adv-x="466" 
d="M382 712v-932h-295v932h295zM310 650h-153v-31h60v-35h-61v-30h154v30h-61v35h61v31zM249 529h-93v-97h154v32h-61v65zM217 498v-34h-31v34h31zM310 407h-154v-31h61v-34h-61v-31h93v65h61v31zM310 351h-30v-61h-124v-32h154v93zM310 238h-93v-53h32v22h31v-44h-94v75
h-30v-106h154v106zM310 76h-154v-105h154v105zM280 46v-44h-94v44h94zM310 -50h-154v-31h65l-65 -44v-31h154v31h-95l66 44h29v31z" />
    <glyph glyph-name="space" unicode=" " horiz-adv-x="228" 
 />
    <glyph glyph-name="A" unicode="A" horiz-adv-x="682" 
d="M352 685l316 -683v-2h-69l-72 156h-372l-72 -156h-69v2l316 683h22zM341 569c-13 -31 -24 -61 -38 -91l-121 -262h317l-120 262c-14 29 -26 59 -38 91z" />
    <glyph glyph-name="Aacute" unicode="&#xc1;" horiz-adv-x="682" 
d="M428 864l-141 -101l-31 35l132 113zM352 685l316 -683v-2h-69l-72 156h-372l-72 -156h-69v2l316 683h22zM341 569c-12 -31 -25 -61 -38 -91l-120 -262h317l-121 262c-13 30 -26 60 -38 91z" />
    <glyph glyph-name="Abreve" unicode="&#x102;" horiz-adv-x="682" 
d="M341 753c-62 0 -114 36 -129 106l46 12c10 -41 46 -65 83 -65s73 24 83 65l46 -12c-15 -70 -67 -106 -129 -106zM352 685l316 -683v-2h-69l-72 156h-372l-72 -156h-69v2l316 683h22zM341 569c-13 -31 -24 -61 -38 -91l-121 -262h317l-120 262c-14 29 -26 59 -38 91z" />
    <glyph glyph-name="Acircumflex" unicode="&#xc2;" horiz-adv-x="682" 
d="M230 752l-27 35l130 102h14l129 -103l-26 -34l-109 76zM352 685l316 -683v-2h-69l-72 156h-372l-72 -156h-69v2l316 683h22zM341 569c-13 -31 -24 -61 -38 -91l-121 -262h317l-120 262c-14 29 -26 59 -38 91z" />
    <glyph glyph-name="Adieresis" unicode="&#xc4;" horiz-adv-x="682" 
d="M245 782c-28 0 -45 21 -45 44c0 22 15 46 45 46s46 -23 46 -44c0 -22 -16 -46 -46 -46zM436 782c-30 0 -46 23 -46 45c0 21 16 45 46 45s45 -24 45 -45c0 -22 -16 -45 -45 -45zM352 685l316 -683v-2h-69l-72 156h-372l-72 -156h-69v2l316 683h22zM341 569
c-13 -31 -24 -61 -38 -91l-121 -262h317l-120 262c-14 29 -26 59 -38 91z" />
    <glyph glyph-name="Agrave" unicode="&#xc0;" horiz-adv-x="682" 
d="M376 763l-142 100l42 48l131 -113zM352 685l316 -683v-2h-69l-72 156h-372l-72 -156h-69v2l316 683h22zM341 569c-13 -31 -24 -61 -38 -91l-121 -262h317l-120 262c-14 29 -26 59 -38 91z" />
    <glyph glyph-name="Amacron" unicode="&#x100;" horiz-adv-x="682" 
d="M205 785v54h265v-54h-265zM352 685l316 -683v-2h-69l-72 156h-372l-72 -156h-69v2l316 683h22zM341 569c-13 -31 -24 -61 -38 -91l-121 -262h317l-120 262c-14 29 -26 59 -38 91z" />
    <glyph glyph-name="Aogonek" unicode="&#x104;" horiz-adv-x="682" 
d="M672 -142l19 -50c-24 -16 -53 -24 -81 -24c-61 0 -94 33 -94 81c0 47 31 91 82 136l-71 155h-372l-72 -156h-69v2l316 683h22l316 -683v-2c-53 -43 -88 -85 -88 -123c0 -22 14 -36 42 -36c18 0 36 7 50 17zM182 216h317l-120 262c-14 29 -26 59 -38 91
c-13 -31 -24 -61 -38 -91z" />
    <glyph glyph-name="Aring" unicode="&#xc5;" horiz-adv-x="682" 
d="M341 729c-54 0 -106 34 -106 98s50 98 104 98s106 -34 106 -98c0 -63 -51 -98 -104 -98zM340 769c31 0 59 20 59 58c0 39 -29 59 -60 59c-30 0 -58 -21 -58 -59s29 -58 59 -58zM352 685l316 -683v-2h-69l-72 156h-372l-72 -156h-69v2l316 683h22zM341 569
c-13 -31 -24 -61 -38 -91l-121 -262h317l-120 262c-14 29 -26 59 -38 91z" />
    <glyph glyph-name="Atilde" unicode="&#xc3;" horiz-adv-x="682" 
d="M247 777l-43 25c18 47 43 70 78 70c19 0 42 -7 70 -21c18 -9 32 -16 44 -16c16 0 28 10 38 35l43 -24c-18 -46 -43 -68 -77 -68c-18 0 -39 6 -63 19c-19 10 -35 17 -49 17c-18 0 -31 -10 -41 -37zM352 685l316 -683v-2h-69l-72 156h-372l-72 -156h-69v2l316 683h22z
M341 569c-13 -31 -24 -61 -38 -91l-121 -262h317l-120 262c-14 29 -26 59 -38 91z" />
    <glyph glyph-name="AE" unicode="&#xc6;" horiz-adv-x="859" 
d="M505 60h310v-60h-373v157h-264l-102 -157h-72v3l441 677h360v-60h-300v-240h264v-59h-264v-261zM217 216h225v251v101c-14 -25 -25 -42 -38 -63z" />
    <glyph glyph-name="AEacute" unicode="&#x1fc;" horiz-adv-x="859" 
d="M642 864l-141 -101l-31 35l132 113zM505 60h310v-60h-373v157h-264l-102 -157h-72v3l441 677h360v-60h-300v-240h264v-59h-264v-261zM217 216h225v251v101c-14 -25 -25 -42 -38 -63z" />
    <glyph glyph-name="B" unicode="B" horiz-adv-x="633" 
d="M466 360c68 -29 113 -95 113 -171c0 -112 -88 -189 -207 -189h-272v680h254c108 0 194 -72 194 -176c0 -65 -33 -115 -82 -144zM166 620v-236h186c81 0 131 43 131 120c0 72 -58 116 -133 116h-184zM369 60c83 0 144 51 144 133c0 78 -58 131 -139 131h-208v-264h203z
" />
    <glyph glyph-name="C" unicode="C" horiz-adv-x="699" 
d="M402 -12c-205 0 -345 159 -345 353c0 201 143 351 345 351c107 0 184 -38 256 -111l-39 -40c-54 56 -120 90 -217 90c-164 0 -279 -125 -279 -290c0 -161 114 -292 279 -292c96 0 172 46 222 113l47 -37c-56 -81 -149 -137 -269 -137z" />
    <glyph glyph-name="Cacute" unicode="&#x106;" horiz-adv-x="699" 
d="M349 763l-31 35l132 113l40 -47zM402 -12c-205 0 -345 159 -345 353c0 201 143 351 345 351c107 0 184 -38 256 -111l-39 -40c-54 56 -120 90 -217 90c-164 0 -279 -125 -279 -290c0 -161 114 -292 279 -292c96 0 172 46 222 113l47 -37c-56 -81 -149 -137 -269 -137z
" />
    <glyph glyph-name="Ccaron" unicode="&#x10c;" horiz-adv-x="699" 
d="M395 755l-128 104l26 33l109 -76l110 76l28 -34l-130 -103h-15zM402 -12c-205 0 -345 159 -345 353c0 201 143 351 345 351c107 0 184 -38 256 -111l-39 -40c-54 56 -120 90 -217 90c-164 0 -279 -125 -279 -290c0 -161 114 -292 279 -292c96 0 172 46 222 113l47 -37
c-56 -81 -149 -137 -269 -137z" />
    <glyph glyph-name="Ccedilla" unicode="&#xc7;" horiz-adv-x="699" 
d="M671 125c-51 -73 -132 -126 -236 -136l-18 -41c52 -5 92 -32 92 -80c0 -52 -45 -82 -104 -82c-40 0 -73 8 -101 27l21 41c22 -15 46 -22 75 -22c32 0 56 11 56 38c0 39 -55 49 -104 47l31 71c-195 10 -326 165 -326 353c0 201 143 351 345 351c107 0 184 -38 256 -111
l-39 -40c-54 56 -120 90 -217 90c-164 0 -279 -125 -279 -290c0 -161 114 -292 279 -292c96 0 172 46 222 113z" />
    <glyph glyph-name="Ccircumflex" unicode="&#x108;" horiz-adv-x="699" 
d="M292 752l-27 35l130 102h14l129 -103l-26 -34l-109 76zM402 -12c-205 0 -345 159 -345 353c0 201 143 351 345 351c107 0 184 -38 256 -111l-39 -40c-54 56 -120 90 -217 90c-164 0 -279 -125 -279 -290c0 -161 114 -292 279 -292c96 0 172 46 222 113l47 -37
c-56 -81 -149 -137 -269 -137z" />
    <glyph glyph-name="Cdotaccent" unicode="&#x10a;" horiz-adv-x="699" 
d="M403 780c-31 0 -47 23 -47 46c0 24 15 48 47 48s48 -24 48 -49c0 -23 -17 -45 -48 -45zM402 -12c-205 0 -345 159 -345 353c0 201 143 351 345 351c107 0 184 -38 256 -111l-39 -40c-54 56 -120 90 -217 90c-164 0 -279 -125 -279 -290c0 -161 114 -292 279 -292
c96 0 172 46 222 113l47 -37c-56 -81 -149 -137 -269 -137z" />
    <glyph glyph-name="D" unicode="D" horiz-adv-x="722" 
d="M100 0v680h218c206 0 347 -143 347 -341c0 -197 -137 -339 -346 -339h-219zM166 60h153c170 0 281 121 281 279c0 159 -112 281 -282 281h-152v-560z" />
    <glyph glyph-name="Eth" unicode="&#xd0;" horiz-adv-x="725" 
d="M321 680c206 0 347 -143 347 -341c0 -197 -137 -339 -346 -339h-220v324h-75v49h75v307h219zM322 60c169 0 280 121 280 279c0 159 -112 281 -281 281h-153v-247h187v-49h-187v-264h154z" />
    <glyph glyph-name="Dcaron" unicode="&#x10e;" horiz-adv-x="722" 
d="M323 755l-128 104l26 33l109 -76l110 76l28 -34l-130 -103h-15zM100 0v680h218c206 0 347 -143 347 -341c0 -197 -137 -339 -346 -339h-219zM166 60h153c170 0 281 121 281 279c0 159 -112 281 -282 281h-152v-560z" />
    <glyph glyph-name="Dcroat" unicode="&#x110;" horiz-adv-x="725" 
d="M321 680c206 0 347 -143 347 -341c0 -197 -137 -339 -346 -339h-220v324h-75v49h75v307h219zM322 60c169 0 280 121 280 279c0 159 -112 281 -281 281h-153v-247h187v-49h-187v-264h154z" />
    <glyph glyph-name="E" unicode="E" horiz-adv-x="559" 
d="M166 60h349v-60h-415v680h406v-60h-340v-242h299v-59h-299v-259z" />
    <glyph glyph-name="Eacute" unicode="&#xc9;" horiz-adv-x="559" 
d="M392 864l-141 -101l-31 35l132 113zM166 60h349v-60h-415v680h406v-60h-340v-242h299v-59h-299v-259z" />
    <glyph glyph-name="Ebreve" unicode="&#x114;" horiz-adv-x="559" 
d="M305 753c-62 0 -114 36 -129 106l46 12c10 -41 46 -65 83 -65s73 24 83 65l46 -12c-15 -70 -67 -106 -129 -106zM166 60h349v-60h-415v680h406v-60h-340v-242h299v-59h-299v-259z" />
    <glyph glyph-name="Ecaron" unicode="&#x11a;" horiz-adv-x="559" 
d="M297 755l-128 104l26 33l109 -76l110 76l28 -34l-130 -103h-15zM166 60h349v-60h-415v680h406v-60h-340v-242h299v-59h-299v-259z" />
    <glyph glyph-name="Ecircumflex" unicode="&#xca;" horiz-adv-x="559" 
d="M194 752l-27 35l130 102h14l129 -103l-26 -34l-109 76zM166 60h349v-60h-415v680h406v-60h-340v-242h299v-59h-299v-259z" />
    <glyph glyph-name="Edieresis" unicode="&#xcb;" horiz-adv-x="559" 
d="M209 782c-28 0 -45 21 -45 44c0 22 15 46 45 46s46 -23 46 -44c0 -22 -16 -46 -46 -46zM400 782c-30 0 -46 23 -46 45c0 21 16 45 46 45s45 -24 45 -45c0 -22 -16 -45 -45 -45zM166 60h349v-60h-415v680h406v-60h-340v-242h299v-59h-299v-259z" />
    <glyph glyph-name="Edotaccent" unicode="&#x116;" horiz-adv-x="559" 
d="M305 780c-31 0 -47 23 -47 46c0 24 15 48 47 48s48 -24 48 -49c0 -23 -17 -45 -48 -45zM166 60h349v-60h-415v680h406v-60h-340v-242h299v-59h-299v-259z" />
    <glyph glyph-name="Egrave" unicode="&#xc8;" horiz-adv-x="559" 
d="M340 763l-142 100l42 48l131 -113zM166 60h349v-60h-415v680h406v-60h-340v-242h299v-59h-299v-259z" />
    <glyph glyph-name="Emacron" unicode="&#x112;" horiz-adv-x="559" 
d="M169 785v54h265v-54h-265zM166 60h349v-60h-415v680h406v-60h-340v-242h299v-59h-299v-259z" />
    <glyph glyph-name="Eogonek" unicode="&#x118;" horiz-adv-x="559" 
d="M509 -142l19 -50c-23 -16 -53 -24 -81 -24c-61 0 -93 33 -93 81c0 47 33 90 87 135h-341v680h406v-60h-340v-242h299v-59h-299v-259h349v-60c-58 -43 -98 -85 -98 -123c0 -23 14 -36 43 -36c17 0 35 7 49 17z" />
    <glyph glyph-name="F" unicode="F" horiz-adv-x="545" 
d="M100 0v680h409v-60h-343v-259h308v-60h-308v-301h-66z" />
    <glyph glyph-name="G" unicode="G" horiz-adv-x="736" 
d="M401 361h278v-241c-62 -85 -159 -132 -273 -132c-203 0 -349 151 -349 353c0 193 134 351 345 351c104 0 191 -42 258 -117l-43 -41c-57 63 -128 97 -215 97c-171 0 -279 -126 -279 -290c0 -168 114 -292 288 -292c84 0 156 31 205 90v162h-215v60z" />
    <glyph glyph-name="Gbreve" unicode="&#x11e;" horiz-adv-x="736" 
d="M403 753c-62 0 -114 36 -129 106l46 12c10 -41 46 -65 83 -65s73 24 83 65l46 -12c-15 -70 -67 -106 -129 -106zM401 361h278v-241c-62 -85 -159 -132 -273 -132c-203 0 -349 151 -349 353c0 193 134 351 345 351c104 0 191 -42 258 -117l-43 -41c-57 63 -128 97 -215 97
c-171 0 -279 -126 -279 -290c0 -168 114 -292 288 -292c84 0 156 31 205 90v162h-215v60z" />
    <glyph glyph-name="Gcircumflex" unicode="&#x11c;" horiz-adv-x="736" 
d="M292 752l-27 35l130 102h14l129 -103l-26 -34l-109 76zM401 361h278v-241c-62 -85 -159 -132 -273 -132c-203 0 -349 151 -349 353c0 193 134 351 345 351c104 0 191 -42 258 -117l-43 -41c-57 63 -128 97 -215 97c-171 0 -279 -126 -279 -290c0 -168 114 -292 288 -292
c84 0 156 31 205 90v162h-215v60z" />
    <glyph glyph-name="uni0122" unicode="&#x122;" horiz-adv-x="736" 
d="M401 361h278v-241c-62 -85 -159 -132 -273 -132c-203 0 -349 151 -349 353c0 193 134 351 345 351c104 0 191 -42 258 -117l-43 -41c-57 63 -128 97 -215 97c-171 0 -279 -126 -279 -290c0 -168 114 -292 288 -292c84 0 156 31 205 90v162h-215v60zM351 -276
c17 47 31 105 31 171h67c-6 -70 -23 -127 -50 -171h-48z" />
    <glyph glyph-name="Gdotaccent" unicode="&#x120;" horiz-adv-x="736" 
d="M403 780c-31 0 -47 23 -47 46c0 24 15 48 47 48s48 -24 48 -49c0 -23 -17 -45 -48 -45zM401 361h278v-241c-62 -85 -159 -132 -273 -132c-203 0 -349 151 -349 353c0 193 134 351 345 351c104 0 191 -42 258 -117l-43 -41c-57 63 -128 97 -215 97
c-171 0 -279 -126 -279 -290c0 -168 114 -292 288 -292c84 0 156 31 205 90v162h-215v60z" />
    <glyph glyph-name="H" unicode="H" horiz-adv-x="744" 
d="M100 0v680h66v-307h413v307h65v-680h-65v313h-413v-313h-66z" />
    <glyph glyph-name="Hbar" unicode="&#x126;" horiz-adv-x="744" 
d="M703 564v-45h-59v-519h-65v313h-413v-313h-66v519h-59v45h59v116h66v-116h413v116h65v-116h59zM579 373v146h-413v-146h413z" />
    <glyph glyph-name="Hcircumflex" unicode="&#x124;" horiz-adv-x="744" 
d="M261 752l-27 35l130 102h14l129 -103l-26 -34l-109 76zM100 0v680h66v-307h413v307h65v-680h-65v313h-413v-313h-66z" />
    <glyph glyph-name="I" unicode="I" horiz-adv-x="266" 
d="M100 0v680h66v-680h-66z" />
    <glyph glyph-name="IJ" unicode="&#x132;" horiz-adv-x="774" 
d="M100 0v680h66v-680h-66zM470 -12c-69 0 -129 20 -186 62l33 53c46 -37 95 -54 153 -54c93 0 145 57 145 163v468h65v-469c0 -144 -74 -223 -210 -223z" />
    <glyph glyph-name="Iacute" unicode="&#xcd;" horiz-adv-x="266" 
d="M79 763l-31 35l132 113l40 -47zM100 0v680h66v-680h-66z" />
    <glyph glyph-name="Ibreve" unicode="&#x12c;" horiz-adv-x="266" 
d="M133 753c-62 0 -114 36 -129 106l46 12c10 -41 46 -65 83 -65s73 24 83 65l46 -12c-15 -70 -67 -106 -129 -106zM100 0v680h66v-680h-66z" />
    <glyph glyph-name="Icircumflex" unicode="&#xce;" horiz-adv-x="266" 
d="M22 752l-27 35l130 102h14l129 -103l-26 -34l-109 76zM100 0v680h66v-680h-66z" />
    <glyph glyph-name="Idieresis" unicode="&#xcf;" horiz-adv-x="266" 
d="M37 782c-28 0 -45 21 -45 44c0 22 15 46 45 46s46 -23 46 -44c0 -22 -16 -46 -46 -46zM228 782c-30 0 -46 23 -46 45c0 21 16 45 46 45s45 -24 45 -45c0 -22 -16 -45 -45 -45zM100 0v680h66v-680h-66z" />
    <glyph glyph-name="Idotaccent" unicode="&#x130;" horiz-adv-x="266" 
d="M133 780c-31 0 -47 23 -47 46c0 24 15 48 47 48s48 -24 48 -49c0 -23 -17 -45 -48 -45zM100 0v680h66v-680h-66z" />
    <glyph glyph-name="Igrave" unicode="&#xcc;" horiz-adv-x="266" 
d="M168 763l-142 100l42 48l131 -113zM100 0v680h66v-680h-66z" />
    <glyph glyph-name="Imacron" unicode="&#x12a;" horiz-adv-x="266" 
d="M-3 785v54h265v-54h-265zM100 0v680h66v-680h-66z" />
    <glyph glyph-name="Iogonek" unicode="&#x12e;" horiz-adv-x="266" 
d="M196 -142l18 -50c-23 -16 -52 -24 -81 -24c-61 0 -95 33 -95 83c0 48 24 92 62 140v673h66v-680c-37 -43 -63 -85 -63 -123c0 -22 14 -36 43 -36c17 0 35 7 50 17z" />
    <glyph glyph-name="Itilde" unicode="&#x128;" horiz-adv-x="266" 
d="M39 777l-43 25c18 47 43 70 78 70c19 0 42 -7 70 -21c18 -9 32 -16 44 -16c16 0 28 10 38 35l43 -24c-18 -46 -43 -68 -77 -68c-18 0 -39 6 -63 19c-19 10 -35 17 -49 17c-18 0 -31 -10 -41 -37zM100 0v680h66v-680h-66z" />
    <glyph glyph-name="J" unicode="J" horiz-adv-x="507" 
d="M204 -12c-69 0 -129 20 -186 62l33 53c46 -37 96 -54 153 -54c93 0 145 57 145 163v468h65v-469c0 -144 -74 -223 -210 -223z" />
    <glyph glyph-name="Jcircumflex" unicode="&#x134;" horiz-adv-x="508" 
d="M271 752l-28 34l130 103h15l128 -103l-26 -34l-109 76zM204 -12c-69 0 -129 20 -186 62l33 53c46 -37 96 -54 153 -54c93 0 145 57 145 163v468h65v-469c0 -144 -74 -223 -210 -223z" />
    <glyph glyph-name="K" unicode="K" horiz-adv-x="583" 
d="M232 342l341 -339v-3h-83l-324 321v-321h-66v680h66v-321l307 321h81v-3z" />
    <glyph glyph-name="uni0136" unicode="&#x136;" horiz-adv-x="583" 
d="M232 342l341 -339v-3h-83l-324 321v-321h-66v680h66v-321l307 321h81v-3zM256 -276c17 47 31 105 31 171h67c-6 -70 -23 -127 -50 -171h-48z" />
    <glyph glyph-name="L" unicode="L" horiz-adv-x="524" 
d="M100 0v680h66v-620h328v-60h-394z" />
    <glyph glyph-name="Lacute" unicode="&#x139;" horiz-adv-x="524" 
d="M83 763l-31 35l132 113l40 -47zM100 0v680h66v-620h328v-60h-394z" />
    <glyph glyph-name="Lcaron" unicode="&#x13d;" horiz-adv-x="524" 
d="M100 0v680h66v-620h328v-60h-394zM315 521c18 44 31 97 31 159h67c-6 -65 -22 -118 -51 -159h-47z" />
    <glyph glyph-name="uni013B" unicode="&#x13b;" horiz-adv-x="524" 
d="M100 0v680h66v-620h328v-60h-394zM231 -276c17 47 31 105 31 171h67c-6 -70 -23 -127 -50 -171h-48z" />
    <glyph glyph-name="Ldot" unicode="&#x13f;" horiz-adv-x="524" 
d="M100 0v680h66v-620h328v-60h-394zM384 300c-24 0 -48 15 -48 47c0 33 24 48 48 48s48 -15 48 -48c0 -32 -24 -47 -48 -47z" />
    <glyph glyph-name="Lslash" unicode="&#x141;" horiz-adv-x="527" 
d="M170 60h328v-60h-394v288l-63 -21l-18 49l81 28v336h66v-314l144 49l18 -49l-162 -55v-251z" />
    <glyph glyph-name="M" unicode="M" horiz-adv-x="862" 
d="M706 686l97 -686h-64l-66 469c-3 21 -6 43 -7 67c-13 -22 -25 -42 -37 -61l-190 -307h-15l-191 309c-11 17 -23 37 -35 57c-2 -23 -6 -45 -9 -65l-65 -469h-65l97 686h20l213 -346c14 -22 28 -45 42 -72c14 27 28 50 42 73l214 345h19z" />
    <glyph glyph-name="N" unicode="N" horiz-adv-x="764" 
d="M598 680h66v-685h-29l-423 498c-15 18 -32 37 -49 56c2 -21 3 -42 3 -65v-484h-66v685h28l422 -496c16 -18 33 -37 50 -57c-2 25 -2 49 -2 71v477z" />
    <glyph glyph-name="Nacute" unicode="&#x143;" horiz-adv-x="764" 
d="M472 864l-142 -101l-31 35l132 113zM598 680h66v-685h-29l-423 498c-15 18 -32 37 -49 56c2 -21 3 -42 3 -65v-484h-66v685h28l422 -496c16 -18 33 -37 50 -57c-2 25 -2 49 -2 71v477z" />
    <glyph glyph-name="Ncaron" unicode="&#x147;" horiz-adv-x="764" 
d="M391 755h-15l-128 104l26 33l109 -76l111 76l27 -34zM598 680h66v-685h-29l-423 498c-15 18 -32 37 -49 56c2 -21 3 -42 3 -65v-484h-66v685h28l422 -496c16 -18 33 -37 50 -57c-2 25 -2 49 -2 71v477z" />
    <glyph glyph-name="uni0145" unicode="&#x145;" horiz-adv-x="764" 
d="M598 680h66v-685h-29l-423 498c-15 18 -32 37 -49 56c2 -21 3 -42 3 -65v-484h-66v685h28l422 -496c16 -18 33 -37 50 -57c-2 25 -2 49 -2 71v477zM319 -276c17 47 31 105 31 171h66c-6 -70 -22 -127 -49 -171h-48z" />
    <glyph glyph-name="Eng" unicode="&#x14a;" horiz-adv-x="765" 
d="M599 680h66v-688c0 -140 -73 -217 -197 -216l-9 59c90 0 140 56 140 158v44l-398 466c-11 13 -23 28 -37 46c2 -21 2 -39 2 -55v-494h-66v685h28l427 -503c15 -18 29 -33 46 -55c-2 22 -2 38 -2 57v496z" />
    <glyph glyph-name="Ntilde" unicode="&#xd1;" horiz-adv-x="764" 
d="M331 814c-18 0 -31 -10 -41 -37l-43 25c18 47 43 70 78 70c20 0 43 -7 70 -21c18 -9 32 -16 44 -16c16 0 29 10 38 35l44 -24c-19 -46 -44 -68 -78 -68c-18 0 -39 6 -63 19c-19 10 -35 17 -49 17zM598 680h66v-685h-29l-423 498c-15 18 -32 37 -49 56c2 -21 3 -42 3 -65
v-484h-66v685h28l422 -496c16 -18 33 -37 50 -57c-2 25 -2 49 -2 71v477z" />
    <glyph glyph-name="O" unicode="O" horiz-adv-x="803" 
d="M401 -12c-201 0 -344 159 -344 353c0 202 143 351 344 351c204 0 345 -149 345 -351c0 -194 -141 -353 -345 -353zM401 49c167 0 279 131 279 292c0 168 -112 290 -279 290c-165 0 -278 -122 -278 -290c0 -161 113 -292 278 -292z" />
    <glyph glyph-name="Oacute" unicode="&#xd3;" horiz-adv-x="803" 
d="M347 763l-31 35l132 113l40 -47zM401 -12c-201 0 -344 159 -344 353c0 202 143 351 344 351c204 0 345 -149 345 -351c0 -194 -141 -353 -345 -353zM401 49c167 0 279 131 279 292c0 168 -112 290 -279 290c-165 0 -278 -122 -278 -290c0 -161 113 -292 278 -292z" />
    <glyph glyph-name="Obreve" unicode="&#x14e;" horiz-adv-x="803" 
d="M402 753c-62 0 -114 36 -129 106l46 12c10 -41 46 -65 83 -65s73 24 83 65l46 -12c-15 -70 -67 -106 -129 -106zM401 -12c-201 0 -344 159 -344 353c0 202 143 351 344 351c204 0 345 -149 345 -351c0 -194 -141 -353 -345 -353zM401 49c167 0 279 131 279 292
c0 168 -112 290 -279 290c-165 0 -278 -122 -278 -290c0 -161 113 -292 278 -292z" />
    <glyph glyph-name="Ocircumflex" unicode="&#xd4;" horiz-adv-x="803" 
d="M291 752l-27 35l130 102h14l129 -103l-26 -34l-109 76zM401 -12c-201 0 -344 159 -344 353c0 202 143 351 344 351c204 0 345 -149 345 -351c0 -194 -141 -353 -345 -353zM401 49c167 0 279 131 279 292c0 168 -112 290 -279 290c-165 0 -278 -122 -278 -290
c0 -161 113 -292 278 -292z" />
    <glyph glyph-name="Odieresis" unicode="&#xd6;" horiz-adv-x="803" 
d="M305 782c-28 0 -45 21 -45 44c0 22 15 46 45 46s46 -23 46 -44c0 -22 -16 -46 -46 -46zM496 782c-30 0 -46 23 -46 45c0 21 16 45 46 45s45 -24 45 -45c0 -22 -16 -45 -45 -45zM401 -12c-201 0 -344 159 -344 353c0 202 143 351 344 351c204 0 345 -149 345 -351
c0 -194 -141 -353 -345 -353zM401 49c167 0 279 131 279 292c0 168 -112 290 -279 290c-165 0 -278 -122 -278 -290c0 -161 113 -292 278 -292z" />
    <glyph glyph-name="Ograve" unicode="&#xd2;" horiz-adv-x="803" 
d="M437 763l-142 100l42 48l131 -113zM401 -12c-201 0 -344 159 -344 353c0 202 143 351 344 351c204 0 345 -149 345 -351c0 -194 -141 -353 -345 -353zM401 49c167 0 279 131 279 292c0 168 -112 290 -279 290c-165 0 -278 -122 -278 -290c0 -161 113 -292 278 -292z" />
    <glyph glyph-name="Ohungarumlaut" unicode="&#x150;" horiz-adv-x="803" 
d="M308 751l-39 27l97 139l52 -35zM469 751l-39 27l97 139l52 -35zM401 -12c-201 0 -344 159 -344 353c0 202 143 351 344 351c204 0 345 -149 345 -351c0 -194 -141 -353 -345 -353zM401 49c167 0 279 131 279 292c0 168 -112 290 -279 290c-165 0 -278 -122 -278 -290
c0 -161 113 -292 278 -292z" />
    <glyph glyph-name="Omacron" unicode="&#x14c;" horiz-adv-x="803" 
d="M266 785v54h265v-54h-265zM401 -12c-201 0 -344 159 -344 353c0 202 143 351 344 351c204 0 345 -149 345 -351c0 -194 -141 -353 -345 -353zM401 49c167 0 279 131 279 292c0 168 -112 290 -279 290c-165 0 -278 -122 -278 -290c0 -161 113 -292 278 -292z" />
    <glyph glyph-name="Oslash" unicode="&#xd8;" horiz-adv-x="803" 
d="M624 616c77 -63 122 -160 122 -275c0 -194 -141 -353 -345 -353c-68 0 -129 18 -180 49l-58 -83l-42 29l59 84c-77 65 -123 164 -123 274c0 202 143 351 344 351c69 0 130 -17 182 -47l67 97l42 -28zM123 341c0 -89 34 -169 93 -222l331 474c-41 24 -90 38 -146 38
c-165 0 -278 -122 -278 -290zM401 49c167 0 279 131 279 292c0 93 -34 172 -93 223l-331 -475c41 -26 90 -40 145 -40z" />
    <glyph glyph-name="Oslashacute" unicode="&#x1fe;" horiz-adv-x="803" 
d="M488 864l-141 -101l-31 35l132 113zM624 616c77 -63 122 -160 122 -275c0 -194 -141 -353 -345 -353c-68 0 -129 18 -180 49l-58 -83l-42 29l59 84c-77 65 -123 164 -123 274c0 202 143 351 344 351c69 0 130 -17 182 -47l67 97l42 -28zM123 341c0 -89 34 -169 93 -222
l331 474c-41 24 -90 38 -146 38c-165 0 -278 -122 -278 -290zM401 49c167 0 279 131 279 292c0 93 -34 172 -93 223l-331 -475c41 -26 90 -40 145 -40z" />
    <glyph glyph-name="Otilde" unicode="&#xd5;" horiz-adv-x="803" 
d="M307 777l-43 25c18 47 43 70 78 70c19 0 42 -7 70 -21c18 -9 32 -16 44 -16c16 0 28 10 38 35l43 -24c-18 -46 -43 -68 -77 -68c-18 0 -39 6 -63 19c-19 10 -35 17 -49 17c-18 0 -31 -10 -41 -37zM401 -12c-201 0 -344 159 -344 353c0 202 143 351 344 351
c204 0 345 -149 345 -351c0 -194 -141 -353 -345 -353zM401 49c167 0 279 131 279 292c0 168 -112 290 -279 290c-165 0 -278 -122 -278 -290c0 -161 113 -292 278 -292z" />
    <glyph glyph-name="OE" unicode="&#x152;" horiz-adv-x="900" 
d="M550 60h306v-60h-368c-27 -8 -57 -12 -87 -12c-202 0 -344 156 -344 352c0 197 139 352 344 352c30 0 60 -4 87 -12h359v-60h-297v-242h264v-59h-264v-259zM488 63v554c-27 9 -57 14 -87 14c-169 0 -278 -128 -278 -291s112 -291 278 -291c30 0 60 5 87 14z" />
    <glyph glyph-name="P" unicode="P" horiz-adv-x="598" 
d="M100 0v680h251c142 0 214 -111 214 -207c0 -95 -68 -200 -218 -200h-181v-273h-66zM166 333h180c104 0 153 70 153 141c0 78 -59 146 -149 146h-184v-287z" />
    <glyph glyph-name="Thorn" unicode="&#xde;" horiz-adv-x="591" 
d="M100 0v680h66v-124h177c141 0 214 -109 214 -209c0 -99 -69 -203 -218 -203h-173v-144h-66zM166 205h172c105 0 153 70 154 143c0 81 -59 148 -150 148h-176v-291z" />
    <glyph glyph-name="Q" unicode="Q" horiz-adv-x="803" 
d="M746 341c0 -118 -52 -223 -138 -287l136 -97l-34 -50l-160 113c-44 -21 -94 -32 -149 -32c-201 0 -344 159 -344 353c0 202 143 351 344 351c204 0 345 -149 345 -351zM123 341c0 -161 113 -292 278 -292c167 0 279 131 279 292c0 168 -112 290 -279 290
c-165 0 -278 -122 -278 -290z" />
    <glyph glyph-name="R" unicode="R" horiz-adv-x="625" 
d="M393 285l194 -282v-3h-76l-191 282h-154v-282h-66v680h257c121 0 217 -87 217 -200c0 -102 -70 -178 -181 -195zM166 342h188c95 0 154 56 154 137c0 79 -62 141 -151 141h-191v-278z" />
    <glyph glyph-name="Racute" unicode="&#x154;" horiz-adv-x="625" 
d="M396 864l-141 -101l-31 35l132 113zM393 285l194 -282v-3h-76l-191 282h-154v-282h-66v680h257c121 0 217 -87 217 -200c0 -102 -70 -178 -181 -195zM166 342h188c95 0 154 56 154 137c0 79 -62 141 -151 141h-191v-278z" />
    <glyph glyph-name="Rcaron" unicode="&#x158;" horiz-adv-x="625" 
d="M317 755h-15l-128 104l26 33l109 -76l110 76l28 -34zM393 285l194 -282v-3h-76l-191 282h-154v-282h-66v680h257c121 0 217 -87 217 -200c0 -102 -70 -178 -181 -195zM166 342h188c95 0 154 56 154 137c0 79 -62 141 -151 141h-191v-278z" />
    <glyph glyph-name="uni0156" unicode="&#x156;" horiz-adv-x="625" 
d="M393 285l194 -282v-3h-76l-191 282h-154v-282h-66v680h257c121 0 217 -87 217 -200c0 -102 -70 -178 -181 -195zM166 342h188c95 0 154 56 154 137c0 79 -62 141 -151 141h-191v-278zM259 -276c17 47 31 105 31 171h67c-6 -70 -23 -127 -50 -171h-48z" />
    <glyph glyph-name="S" unicode="S" horiz-adv-x="567" 
d="M291 -12c-92 0 -176 33 -234 82l34 52c51 -46 122 -73 200 -73c85 0 159 45 159 126c0 84 -78 117 -167 148c-100 35 -207 85 -207 199c0 107 98 170 208 170c76 0 141 -20 206 -68l-30 -50c-55 39 -109 57 -173 57c-73 0 -144 -35 -144 -106c0 -83 82 -113 164 -142
c112 -40 209 -90 209 -205c0 -119 -100 -190 -225 -190z" />
    <glyph glyph-name="Sacute" unicode="&#x15a;" horiz-adv-x="567" 
d="M236 763l-31 35l132 113l40 -47zM291 -12c-92 0 -176 33 -234 82l34 52c51 -46 122 -73 200 -73c85 0 159 45 159 126c0 84 -78 117 -167 148c-100 35 -207 85 -207 199c0 107 98 170 208 170c76 0 141 -20 206 -68l-30 -50c-55 39 -109 57 -173 57
c-73 0 -144 -35 -144 -106c0 -83 82 -113 164 -142c112 -40 209 -90 209 -205c0 -119 -100 -190 -225 -190z" />
    <glyph glyph-name="Scaron" unicode="&#x160;" horiz-adv-x="567" 
d="M283 755l-128 104l26 33l109 -76l110 76l28 -34l-130 -103h-15zM291 -12c-92 0 -176 33 -234 82l34 52c51 -46 122 -73 200 -73c85 0 159 45 159 126c0 84 -78 117 -167 148c-100 35 -207 85 -207 199c0 107 98 170 208 170c76 0 141 -20 206 -68l-30 -50
c-55 39 -109 57 -173 57c-73 0 -144 -35 -144 -106c0 -83 82 -113 164 -142c112 -40 209 -90 209 -205c0 -119 -100 -190 -225 -190z" />
    <glyph glyph-name="Scedilla" unicode="&#x15e;" horiz-adv-x="567" 
d="M516 178c0 -107 -81 -175 -188 -188l-19 -42c52 -5 92 -32 92 -80c0 -52 -45 -82 -104 -82c-40 0 -73 8 -101 27l21 41c22 -15 46 -22 75 -22c32 0 56 11 56 38c0 39 -55 49 -104 47l31 71c-86 4 -163 36 -218 82l34 52c51 -46 122 -73 200 -73c85 0 159 45 159 126
c0 84 -78 117 -167 148c-100 35 -207 85 -207 199c0 107 98 170 208 170c76 0 141 -20 206 -68l-30 -50c-55 39 -109 57 -173 57c-73 0 -144 -35 -144 -106c0 -83 82 -113 164 -142c112 -40 209 -90 209 -205z" />
    <glyph glyph-name="Scircumflex" unicode="&#x15c;" horiz-adv-x="567" 
d="M180 752l-27 35l130 102h14l129 -103l-26 -34l-109 76zM291 -12c-92 0 -176 33 -234 82l34 52c51 -46 122 -73 200 -73c85 0 159 45 159 126c0 84 -78 117 -167 148c-100 35 -207 85 -207 199c0 107 98 170 208 170c76 0 141 -20 206 -68l-30 -50c-55 39 -109 57 -173 57
c-73 0 -144 -35 -144 -106c0 -83 82 -113 164 -142c112 -40 209 -90 209 -205c0 -119 -100 -190 -225 -190z" />
    <glyph glyph-name="uni0218" unicode="&#x218;" horiz-adv-x="567" 
d="M291 -12c-92 0 -176 33 -234 82l34 52c51 -46 122 -73 200 -73c85 0 159 45 159 126c0 84 -78 117 -167 148c-100 35 -207 85 -207 199c0 107 98 170 208 170c76 0 141 -20 206 -68l-30 -50c-55 39 -109 57 -173 57c-73 0 -144 -35 -144 -106c0 -83 82 -113 164 -142
c112 -40 209 -90 209 -205c0 -119 -100 -190 -225 -190zM230 -276c17 47 31 105 31 171h67c-6 -70 -23 -127 -50 -171h-48z" />
    <glyph glyph-name="uni1E9E" unicode="&#x1e9e;" horiz-adv-x="664" 
d="M398 418c130 0 217 -87 217 -208c0 -124 -88 -210 -214 -210h-133v60h125c94 0 156 60 156 150c0 89 -62 149 -156 149h-80v47l147 214h-138c-101 0 -159 -68 -159 -184v-436h-66v436c0 159 80 244 229 244h236v-20l-168 -242h4z" />
    <glyph glyph-name="T" unicode="T" horiz-adv-x="530" 
d="M507 680v-60h-209v-620h-66v620h-209v60h484z" />
    <glyph glyph-name="Tbar" unicode="&#x166;" horiz-adv-x="530" 
d="M507 620h-209v-260h134v-46h-134v-314h-66v314h-134v46h134v260h-209v60h484v-60z" />
    <glyph glyph-name="Tcaron" unicode="&#x164;" horiz-adv-x="530" 
d="M272 755h-15l-128 104l26 33l109 -76l110 76l28 -34zM507 680v-60h-209v-620h-66v620h-209v60h484z" />
    <glyph glyph-name="uni0162" unicode="&#x162;" horiz-adv-x="530" 
d="M298 0h-6l-23 -52c52 -5 93 -33 93 -79c0 -53 -46 -83 -106 -83c-39 0 -72 8 -101 27l22 41c21 -15 45 -22 74 -22c33 0 56 11 56 39c0 38 -55 48 -103 46l36 83h-8v620h-209v60h484v-60h-209v-620z" />
    <glyph glyph-name="uni021A" unicode="&#x21a;" horiz-adv-x="530" 
d="M23 680h484v-60h-209v-620h-66v620h-209v60zM201 -276c17 47 31 105 31 171h67c-6 -70 -23 -127 -50 -171h-48z" />
    <glyph glyph-name="U" unicode="U" horiz-adv-x="704" 
d="M353 -12c-144 0 -261 85 -261 245v447h66v-446c0 -125 80 -186 195 -186c113 0 193 61 193 186v446h66v-447c0 -160 -117 -245 -259 -245z" />
    <glyph glyph-name="Uacute" unicode="&#xda;" horiz-adv-x="704" 
d="M300 763l-31 35l132 113l40 -47zM353 -12c-144 0 -261 85 -261 245v447h66v-446c0 -125 80 -186 195 -186c113 0 193 61 193 186v446h66v-447c0 -160 -117 -245 -259 -245z" />
    <glyph glyph-name="Ubreve" unicode="&#x16c;" horiz-adv-x="704" 
d="M354 753c-62 0 -114 36 -129 106l46 12c10 -41 46 -65 83 -65s73 24 83 65l46 -12c-15 -70 -67 -106 -129 -106zM353 -12c-144 0 -261 85 -261 245v447h66v-446c0 -125 80 -186 195 -186c113 0 193 61 193 186v446h66v-447c0 -160 -117 -245 -259 -245z" />
    <glyph glyph-name="Ucircumflex" unicode="&#xdb;" horiz-adv-x="704" 
d="M243 752l-27 35l130 102h14l129 -103l-26 -34l-109 76zM353 -12c-144 0 -261 85 -261 245v447h66v-446c0 -125 80 -186 195 -186c113 0 193 61 193 186v446h66v-447c0 -160 -117 -245 -259 -245z" />
    <glyph glyph-name="Udieresis" unicode="&#xdc;" horiz-adv-x="704" 
d="M258 782c-28 0 -45 21 -45 44c0 22 15 46 45 46s46 -23 46 -44c0 -22 -16 -46 -46 -46zM449 782c-30 0 -46 23 -46 45c0 21 16 45 46 45s45 -24 45 -45c0 -22 -16 -45 -45 -45zM353 -12c-144 0 -261 85 -261 245v447h66v-446c0 -125 80 -186 195 -186
c113 0 193 61 193 186v446h66v-447c0 -160 -117 -245 -259 -245z" />
    <glyph glyph-name="Ugrave" unicode="&#xd9;" horiz-adv-x="704" 
d="M389 763l-142 100l42 48l131 -113zM353 -12c-144 0 -261 85 -261 245v447h66v-446c0 -125 80 -186 195 -186c113 0 193 61 193 186v446h66v-447c0 -160 -117 -245 -259 -245z" />
    <glyph glyph-name="Uhungarumlaut" unicode="&#x170;" horiz-adv-x="704" 
d="M260 751l-39 27l97 139l52 -35zM421 751l-39 27l97 139l52 -35zM353 -12c-144 0 -261 85 -261 245v447h66v-446c0 -125 80 -186 195 -186c113 0 193 61 193 186v446h66v-447c0 -160 -117 -245 -259 -245z" />
    <glyph glyph-name="Umacron" unicode="&#x16a;" horiz-adv-x="704" 
d="M218 785v54h265v-54h-265zM353 -12c-144 0 -261 85 -261 245v447h66v-446c0 -125 80 -186 195 -186c113 0 193 61 193 186v446h66v-447c0 -160 -117 -245 -259 -245z" />
    <glyph glyph-name="Uogonek" unicode="&#x172;" horiz-adv-x="704" 
d="M546 680h66v-447c0 -90 -37 -156 -94 -197c-95 -82 -119 -122 -119 -159c0 -22 14 -36 43 -36c17 0 35 7 49 17l19 -50c-23 -16 -53 -24 -81 -24c-61 0 -95 33 -95 82c0 42 25 83 66 125c-15 -2 -31 -3 -47 -3c-144 0 -261 85 -261 245v447h66v-446
c0 -125 80 -186 195 -186c113 0 193 61 193 186v446z" />
    <glyph glyph-name="Uring" unicode="&#x16e;" horiz-adv-x="704" 
d="M354 729c-54 0 -106 34 -106 98s50 98 104 98s106 -34 106 -98c0 -63 -51 -98 -104 -98zM353 769c31 0 59 20 59 58c0 39 -29 59 -60 59c-30 0 -58 -21 -58 -59s29 -58 59 -58zM353 -12c-144 0 -261 85 -261 245v447h66v-446c0 -125 80 -186 195 -186
c113 0 193 61 193 186v446h66v-447c0 -160 -117 -245 -259 -245z" />
    <glyph glyph-name="Utilde" unicode="&#x168;" horiz-adv-x="704" 
d="M260 777l-43 25c18 47 43 70 78 70c19 0 42 -7 70 -21c18 -9 32 -16 44 -16c16 0 28 10 38 35l43 -24c-18 -46 -43 -68 -77 -68c-18 0 -39 6 -63 19c-19 10 -35 17 -49 17c-18 0 -31 -10 -41 -37zM353 -12c-144 0 -261 85 -261 245v447h66v-446c0 -125 80 -186 195 -186
c113 0 193 61 193 186v446h66v-447c0 -160 -117 -245 -259 -245z" />
    <glyph glyph-name="V" unicode="V" horiz-adv-x="682" 
d="M597 680h71v-2l-316 -683h-22l-316 683v2h69l221 -480c17 -37 28 -61 37 -86c10 28 26 63 38 89z" />
    <glyph glyph-name="W" unicode="W" horiz-adv-x="964" 
d="M874 680h68v-3l-235 -682h-20l-179 441c-10 23 -18 48 -27 77c-9 -30 -16 -54 -26 -77l-179 -441h-20l-234 682v3h68l150 -445c10 -31 22 -64 32 -103c11 39 22 70 35 102l164 410h19l158 -390c17 -42 32 -84 44 -123c12 40 25 81 37 116z" />
    <glyph glyph-name="Wacute" unicode="&#x1e82;" horiz-adv-x="964" 
d="M568 864l-141 -101l-31 35l132 113zM874 680h68v-3l-235 -682h-20l-179 441c-10 23 -18 48 -27 77c-9 -29 -16 -54 -26 -77l-179 -441h-20l-234 682v3h68l150 -445c11 -31 22 -64 32 -104c11 39 22 72 35 103l164 410h19l158 -390c17 -42 32 -84 44 -124
c11 41 25 82 37 117z" />
    <glyph glyph-name="Wcircumflex" unicode="&#x174;" horiz-adv-x="964" 
d="M482 828l-111 -76l-27 35l130 102h14l129 -103l-26 -34zM874 680h68v-3l-235 -682h-20l-179 441c-10 23 -18 48 -27 77c-9 -29 -16 -54 -26 -77l-179 -441h-20l-234 682v3h68l150 -445c11 -31 22 -64 32 -104c11 39 22 72 35 103l164 410h19l158 -390
c17 -42 32 -84 44 -124c11 41 25 82 37 117z" />
    <glyph glyph-name="Wdieresis" unicode="&#x1e84;" horiz-adv-x="964" 
d="M385 782c-28 0 -45 21 -45 44c0 22 15 46 45 46s46 -23 46 -44c0 -22 -16 -46 -46 -46zM576 782c-30 0 -46 23 -46 45c0 21 16 45 46 45s45 -24 45 -45c0 -22 -16 -45 -45 -45zM874 680h68v-3l-235 -682h-20l-179 441c-10 23 -18 48 -27 77c-9 -30 -16 -54 -26 -77
l-179 -441h-20l-234 682v3h68l150 -445c10 -31 22 -64 32 -103c11 39 22 70 35 102l164 410h19l158 -390c17 -42 32 -84 44 -123c12 40 25 81 37 116z" />
    <glyph glyph-name="Wgrave" unicode="&#x1e80;" horiz-adv-x="964" 
d="M517 763l-142 100l42 48l131 -113zM874 680h68v-3l-235 -682h-20l-179 441c-10 23 -18 48 -27 77c-9 -30 -16 -54 -26 -77l-179 -441h-20l-234 682v3h68l150 -445c10 -31 22 -64 32 -103c11 39 22 70 35 102l164 410h19l158 -390c17 -42 32 -84 44 -123
c12 40 25 81 37 116z" />
    <glyph glyph-name="X" unicode="X" horiz-adv-x="618" 
d="M20 0v2l251 351l-230 325v2h76l126 -177c22 -31 45 -65 67 -101c23 37 45 71 67 103l124 175h75v-2l-229 -325l251 -351v-2h-76l-146 207c-22 31 -45 63 -66 98c-23 -36 -44 -67 -67 -99l-147 -206h-76z" />
    <glyph glyph-name="Y" unicode="Y" horiz-adv-x="625" 
d="M526 680h76v-3l-257 -372v-305h-65v305l-257 372v3h76l155 -226c23 -33 41 -61 59 -94c18 33 37 63 58 94z" />
    <glyph glyph-name="Yacute" unicode="&#xdd;" horiz-adv-x="625" 
d="M399 864l-141 -101l-31 35l132 113zM526 680h76v-3l-257 -372v-305h-65v305l-257 372v3h76l155 -226c23 -34 41 -62 59 -95c18 34 37 64 58 95z" />
    <glyph glyph-name="Ycircumflex" unicode="&#x176;" horiz-adv-x="625" 
d="M313 828l-111 -76l-27 35l130 102h14l129 -103l-26 -34zM526 680h76v-3l-257 -372v-305h-65v305l-257 372v3h76l155 -226c23 -34 41 -62 59 -95c18 34 37 64 58 95z" />
    <glyph glyph-name="Ydieresis" unicode="&#x178;" horiz-adv-x="625" 
d="M216 782c-28 0 -45 21 -45 44c0 22 15 46 45 46s46 -23 46 -44c0 -22 -16 -46 -46 -46zM407 782c-30 0 -46 23 -46 45c0 21 16 45 46 45s45 -24 45 -45c0 -22 -16 -45 -45 -45zM526 680h76v-3l-257 -372v-305h-65v305l-257 372v3h76l155 -226c23 -33 41 -61 59 -94
c18 33 37 63 58 94z" />
    <glyph glyph-name="Ygrave" unicode="&#x1ef2;" horiz-adv-x="625" 
d="M348 763l-142 100l42 48l131 -113zM526 680h76v-3l-257 -372v-305h-65v305l-257 372v3h76l155 -226c23 -33 41 -61 59 -94c18 33 37 63 58 94z" />
    <glyph glyph-name="Z" unicode="Z" horiz-adv-x="573" 
d="M44 0v20l340 534c14 22 27 44 43 67c-23 -1 -46 -1 -70 -1h-296v60h462v-20l-342 -539c-13 -20 -26 -41 -41 -62c23 1 43 1 63 1h330v-60h-489z" />
    <glyph glyph-name="Zacute" unicode="&#x179;" horiz-adv-x="573" 
d="M236 763l-31 35l132 113l40 -47zM44 0v20l340 534c14 22 27 44 43 67c-23 -1 -46 -1 -70 -1h-296v60h462v-20l-342 -539c-13 -20 -26 -41 -41 -62c23 1 43 1 63 1h330v-60h-489z" />
    <glyph glyph-name="Zcaron" unicode="&#x17d;" horiz-adv-x="573" 
d="M283 755l-128 104l26 33l109 -76l110 76l28 -34l-130 -103h-15zM44 0v20l340 534c14 22 27 44 43 67c-23 -1 -46 -1 -70 -1h-296v60h462v-20l-342 -539c-13 -20 -26 -41 -41 -62c23 1 43 1 63 1h330v-60h-489z" />
    <glyph glyph-name="Zdotaccent" unicode="&#x17b;" horiz-adv-x="573" 
d="M291 780c-31 0 -47 23 -47 46c0 24 15 48 47 48s48 -24 48 -49c0 -23 -17 -45 -48 -45zM44 0v20l340 534c14 22 27 44 43 67c-23 -1 -46 -1 -70 -1h-296v60h462v-20l-342 -539c-13 -20 -26 -41 -41 -62c23 1 43 1 63 1h330v-60h-489z" />
    <glyph glyph-name="a" unicode="a" horiz-adv-x="479" 
d="M239 447c101 0 168 -53 168 -153v-294h-45l-11 80c-32 -53 -89 -88 -167 -88c-86 0 -141 47 -141 123c0 99 91 156 221 156c33 0 58 -1 81 -4v30c0 62 -44 93 -112 93c-48 0 -97 -14 -146 -37l-21 52c60 28 117 42 173 42zM194 49c91 0 148 66 151 167c-24 3 -43 4 -72 4
c-104 0 -166 -36 -166 -101c0 -44 32 -70 87 -70z" />
    <glyph glyph-name="aacute" unicode="&#xe1;" horiz-adv-x="479" 
d="M321 639l-141 -102l-31 36l132 113zM239 447c101 0 168 -53 168 -153v-294h-45l-11 80c-32 -53 -89 -88 -167 -88c-86 0 -141 47 -141 123c0 99 91 156 221 156c33 0 58 -1 81 -4v30c0 62 -44 93 -112 93c-48 0 -97 -14 -146 -37l-21 52c60 28 117 42 173 42zM194 49
c91 0 148 66 151 167c-24 3 -43 4 -72 4c-104 0 -166 -36 -166 -101c0 -44 32 -70 87 -70z" />
    <glyph glyph-name="abreve" unicode="&#x103;" horiz-adv-x="479" 
d="M234 528c-59 0 -107 36 -122 106l46 11c9 -41 43 -64 78 -64c33 0 65 25 73 64l46 -11c-14 -70 -63 -106 -121 -106zM239 447c101 0 168 -53 168 -153v-294h-45l-11 80c-32 -53 -89 -88 -167 -88c-86 0 -141 47 -141 123c0 99 91 156 221 156c33 0 58 -1 81 -4v30
c0 62 -44 93 -112 93c-48 0 -97 -14 -146 -37l-21 52c60 28 117 42 173 42zM194 49c91 0 148 66 151 167c-24 3 -43 4 -72 4c-104 0 -166 -36 -166 -101c0 -44 32 -70 87 -70z" />
    <glyph glyph-name="acircumflex" unicode="&#xe2;" horiz-adv-x="479" 
d="M234 600l-98 -76l-28 35l118 102h14l116 -103l-26 -34zM239 447c101 0 168 -53 168 -153v-294h-45l-11 80c-32 -53 -89 -88 -167 -88c-86 0 -141 47 -141 123c0 99 91 156 221 156c33 0 58 -1 81 -4v30c0 62 -44 93 -112 93c-48 0 -97 -14 -146 -37l-21 52
c60 28 117 42 173 42zM194 49c91 0 148 66 151 167c-24 3 -43 4 -72 4c-104 0 -166 -36 -166 -101c0 -44 32 -70 87 -70z" />
    <glyph glyph-name="adieresis" unicode="&#xe4;" horiz-adv-x="479" 
d="M147 561c-27 0 -44 20 -44 42s15 45 44 45c28 0 44 -22 44 -43s-15 -44 -44 -44zM319 561c-28 0 -43 22 -43 43s15 44 43 44c29 0 44 -23 44 -44s-16 -43 -44 -43zM239 447c101 0 168 -53 168 -153v-294h-45l-11 80c-32 -53 -89 -88 -167 -88c-86 0 -141 47 -141 123
c0 99 91 156 221 156c33 0 58 -1 81 -4v30c0 62 -44 93 -112 93c-48 0 -97 -14 -146 -37l-21 52c60 28 117 42 173 42zM194 49c91 0 148 66 151 167c-24 3 -43 4 -72 4c-104 0 -166 -36 -166 -101c0 -44 32 -70 87 -70z" />
    <glyph glyph-name="agrave" unicode="&#xe0;" horiz-adv-x="479" 
d="M310 573l-31 -36l-142 101l42 48zM239 447c101 0 168 -53 168 -153v-294h-45l-11 80c-32 -53 -89 -88 -167 -88c-86 0 -141 47 -141 123c0 99 91 156 221 156c33 0 58 -1 81 -4v30c0 62 -44 93 -112 93c-48 0 -97 -14 -146 -37l-21 52c60 28 117 42 173 42zM194 49
c91 0 148 66 151 167c-24 3 -43 4 -72 4c-104 0 -166 -36 -166 -101c0 -44 32 -70 87 -70z" />
    <glyph glyph-name="amacron" unicode="&#x101;" horiz-adv-x="479" 
d="M362 613v-53h-257v53h257zM239 447c101 0 168 -53 168 -153v-294h-45l-11 80c-32 -53 -89 -88 -167 -88c-86 0 -141 47 -141 123c0 99 91 156 221 156c33 0 58 -1 81 -4v30c0 62 -44 93 -112 93c-48 0 -97 -14 -146 -37l-21 52c60 28 117 42 173 42zM194 49
c91 0 148 66 151 167c-24 3 -43 4 -72 4c-104 0 -166 -36 -166 -101c0 -44 32 -70 87 -70z" />
    <glyph glyph-name="aogonek" unicode="&#x105;" horiz-adv-x="479" 
d="M411 -142l18 -47c-23 -16 -52 -24 -81 -24c-59 0 -90 35 -90 79c0 52 41 103 101 156l-8 58c-32 -53 -89 -88 -167 -88c-86 0 -141 47 -141 123c0 99 91 156 221 156c33 0 58 -1 81 -4v30c0 62 -44 93 -112 93c-48 0 -97 -14 -146 -37l-21 52c60 28 117 42 173 42
c101 0 168 -53 168 -153v-294c-53 -43 -88 -85 -88 -123c0 -22 13 -36 42 -36c18 0 35 7 50 17zM194 49c91 0 148 66 151 167c-24 3 -43 4 -72 4c-104 0 -166 -36 -166 -101c0 -44 32 -70 87 -70z" />
    <glyph glyph-name="aring" unicode="&#xe5;" horiz-adv-x="479" 
d="M234 506c-53 0 -105 33 -105 96s51 96 104 96s103 -33 103 -96s-49 -96 -102 -96zM233 659c-30 0 -58 -20 -58 -57s29 -56 58 -56c30 0 57 19 57 56s-27 57 -57 57zM239 447c101 0 168 -53 168 -153v-294h-45l-11 80c-32 -53 -89 -88 -167 -88c-86 0 -141 47 -141 123
c0 99 91 156 221 156c33 0 58 -1 81 -4v30c0 62 -44 93 -112 93c-48 0 -97 -14 -146 -37l-21 52c60 28 117 42 173 42zM194 49c91 0 148 66 151 167c-24 3 -43 4 -72 4c-104 0 -166 -36 -166 -101c0 -44 32 -70 87 -70z" />
    <glyph glyph-name="atilde" unicode="&#xe3;" horiz-adv-x="479" 
d="M183 590c-17 0 -29 -11 -38 -37l-43 24c18 46 42 69 75 69c19 0 42 -7 66 -21c19 -10 32 -16 43 -16c15 0 27 11 36 35l43 -24c-18 -45 -43 -66 -75 -66c-17 0 -37 6 -59 18c-19 10 -35 18 -48 18zM239 447c101 0 168 -53 168 -153v-294h-45l-11 80
c-32 -53 -89 -88 -167 -88c-86 0 -141 47 -141 123c0 99 91 156 221 156c33 0 58 -1 81 -4v30c0 62 -44 93 -112 93c-48 0 -97 -14 -146 -37l-21 52c60 28 117 42 173 42zM194 49c91 0 148 66 151 167c-24 3 -43 4 -72 4c-104 0 -166 -36 -166 -101c0 -44 32 -70 87 -70z
" />
    <glyph glyph-name="ae" unicode="&#xe6;" horiz-adv-x="754" 
d="M535 447c118 0 179 -91 179 -209c0 -11 -1 -23 -2 -35h-325c7 -96 64 -156 148 -156c46 0 86 14 124 52l34 -42c-43 -43 -100 -67 -157 -67c-84 0 -146 42 -177 110c-38 -75 -97 -108 -177 -108c-78 0 -139 46 -139 126c0 106 107 147 220 147c22 0 44 -1 69 -4v36
c0 68 -43 93 -104 93c-48 0 -104 -18 -142 -37l-20 52c50 24 108 42 167 42c67 0 121 -25 138 -87c28 53 83 87 164 87zM388 257h266c-2 80 -46 133 -122 133c-82 0 -132 -50 -144 -133zM190 49c78 0 141 58 142 160c-22 3 -41 4 -64 4c-82 0 -161 -20 -161 -93
c0 -44 31 -71 83 -71z" />
    <glyph glyph-name="aeacute" unicode="&#x1fd;" horiz-adv-x="754" 
d="M460 639l-141 -102l-31 36l132 113zM535 447c118 0 179 -91 179 -209c0 -11 -1 -23 -2 -35h-325c7 -96 64 -156 148 -156c46 0 86 14 124 52l34 -42c-43 -43 -100 -67 -157 -67c-84 0 -146 42 -177 110c-38 -75 -97 -108 -177 -108c-78 0 -139 46 -139 126
c0 106 107 147 220 147c22 0 44 -1 69 -4v36c0 68 -43 93 -104 93c-48 0 -104 -18 -142 -37l-20 52c50 24 108 42 167 42c67 0 121 -25 138 -87c28 53 83 87 164 87zM388 257h266c-2 80 -46 133 -122 133c-82 0 -132 -50 -144 -133zM190 49c78 0 141 58 142 160
c-22 3 -41 4 -64 4c-82 0 -161 -20 -161 -93c0 -44 31 -71 83 -71z" />
    <glyph glyph-name="b" unicode="b" horiz-adv-x="576" 
d="M308 451c130 0 222 -97 222 -228c0 -135 -91 -233 -222 -233c-75 0 -137 33 -174 87l-9 -77h-47v717h61v-230c0 -42 -1 -83 -2 -122c36 54 99 86 171 86zM304 48c98 0 165 72 165 173s-67 173 -165 173c-100 0 -168 -73 -168 -173s66 -173 168 -173z" />
    <glyph glyph-name="c" unicode="c" horiz-adv-x="460" 
d="M266 -11c-110 0 -220 81 -220 233c0 146 106 230 226 230c64 0 113 -20 158 -60l-35 -42c-36 31 -71 45 -123 45c-92 0 -164 -69 -164 -173c0 -106 71 -176 163 -176c60 0 96 19 132 53l34 -44c-46 -43 -94 -66 -171 -66z" />
    <glyph glyph-name="cacute" unicode="&#x107;" horiz-adv-x="460" 
d="M217 537l-31 36l132 113l40 -47zM266 -11c-110 0 -220 81 -220 233c0 146 106 230 226 230c64 0 113 -20 158 -60l-35 -42c-36 31 -71 45 -123 45c-92 0 -164 -69 -164 -173c0 -106 71 -176 163 -176c60 0 96 19 132 53l34 -44c-46 -43 -94 -66 -171 -66z" />
    <glyph glyph-name="ccaron" unicode="&#x10d;" horiz-adv-x="460" 
d="M263 530l-116 103l26 34l97 -76l98 76l27 -35l-117 -102h-15zM266 -11c-110 0 -220 81 -220 233c0 146 106 230 226 230c64 0 113 -20 158 -60l-35 -42c-36 31 -71 45 -123 45c-92 0 -164 -69 -164 -173c0 -106 71 -176 163 -176c60 0 96 19 132 53l34 -44
c-46 -43 -94 -66 -171 -66z" />
    <glyph glyph-name="ccedilla" unicode="&#xe7;" horiz-adv-x="460" 
d="M268 -54c52 -5 90 -31 90 -78c0 -50 -43 -79 -101 -79c-38 0 -70 9 -98 26l21 39c20 -13 44 -21 72 -21c32 0 55 12 55 38c0 37 -53 47 -101 46l32 74c-100 12 -192 92 -192 231c0 146 106 230 226 230c64 0 113 -20 158 -60l-35 -42c-36 31 -71 45 -123 45
c-92 0 -164 -69 -164 -173c0 -106 71 -176 163 -176c60 0 96 19 132 53l34 -44c-42 -39 -85 -62 -150 -65z" />
    <glyph glyph-name="ccircumflex" unicode="&#x109;" horiz-adv-x="460" 
d="M173 524l-28 35l118 102h14l116 -103l-26 -34l-96 76zM266 -11c-110 0 -220 81 -220 233c0 146 106 230 226 230c64 0 113 -20 158 -60l-35 -42c-36 31 -71 45 -123 45c-92 0 -164 -69 -164 -173c0 -106 71 -176 163 -176c60 0 96 19 132 53l34 -44
c-46 -43 -94 -66 -171 -66z" />
    <glyph glyph-name="cdotaccent" unicode="&#x10b;" horiz-adv-x="460" 
d="M271 556c-29 0 -47 21 -47 46c0 27 18 48 47 48s48 -21 48 -49c0 -25 -20 -45 -48 -45zM266 -11c-110 0 -220 81 -220 233c0 146 106 230 226 230c64 0 113 -20 158 -60l-35 -42c-36 31 -71 45 -123 45c-92 0 -164 -69 -164 -173c0 -106 71 -176 163 -176
c60 0 96 19 132 53l34 -44c-46 -43 -94 -66 -171 -66z" />
    <glyph glyph-name="d" unicode="d" horiz-adv-x="576" 
d="M437 717h61v-717h-47l-9 79c-36 -55 -97 -89 -174 -89c-131 0 -222 98 -222 233c0 131 92 228 222 228c72 0 135 -32 171 -84c-1 38 -2 78 -2 120v230zM272 48c102 0 167 73 167 173s-67 173 -167 173c-98 0 -165 -72 -165 -173s67 -173 165 -173z" />
    <glyph glyph-name="eth" unicode="&#xf0;" horiz-adv-x="522" 
d="M338 596c85 -88 133 -207 133 -356c0 -142 -74 -251 -212 -251c-107 0 -213 72 -213 220c0 132 91 220 205 220c60 0 108 -18 151 -67c-21 82 -60 148 -112 200l-93 -67l-34 45l84 60c-38 30 -80 54 -124 71l26 50c55 -22 104 -51 147 -86l71 51l35 -44zM257 46
c109 0 152 88 152 178c0 92 -69 150 -152 150c-86 0 -150 -65 -150 -163c0 -96 56 -165 150 -165z" />
    <glyph glyph-name="dcaron" unicode="&#x10f;" horiz-adv-x="577" 
d="M437 487v230h61v-717h-47l-9 78c-37 -55 -97 -88 -174 -88c-131 0 -222 98 -222 233c0 131 92 228 222 228c72 0 135 -32 171 -84c-1 38 -2 78 -2 120zM569 717h67c-6 -64 -19 -116 -43 -163h-47c13 50 23 102 23 163zM272 48c102 0 167 73 167 173s-67 173 -167 173
c-98 0 -165 -72 -165 -173s67 -173 165 -173z" />
    <glyph glyph-name="dcroat" unicode="&#x111;" horiz-adv-x="576" 
d="M560 599v-46h-62v-553h-47l-9 78c-37 -55 -98 -88 -174 -88c-131 0 -222 98 -222 233c0 131 92 228 222 228c72 0 135 -32 171 -84c-1 38 -2 78 -2 120v66h-152v46h152v118h61v-118h62zM272 48c102 0 167 73 167 173s-67 173 -167 173c-98 0 -165 -72 -165 -173
s67 -173 165 -173z" />
    <glyph glyph-name="e" unicode="e" horiz-adv-x="505" 
d="M269 453c123 0 196 -85 196 -214c0 -14 -1 -28 -3 -43h-354c10 -94 82 -150 165 -150c62 0 101 19 135 54l35 -44c-45 -43 -99 -67 -169 -67c-134 0 -228 96 -228 233c0 128 92 231 223 231zM268 396c-82 0 -146 -58 -158 -146h295c-2 94 -56 146 -137 146z" />
    <glyph glyph-name="eacute" unicode="&#xe9;" horiz-adv-x="505" 
d="M346 639l-141 -102l-31 36l132 113zM269 453c123 0 196 -85 196 -214c0 -14 -1 -28 -3 -43h-354c10 -94 82 -150 165 -150c62 0 101 19 135 54l35 -44c-45 -43 -99 -67 -169 -67c-134 0 -228 96 -228 233c0 128 92 231 223 231zM268 396c-81 0 -146 -58 -159 -146h296
c-3 94 -57 146 -137 146z" />
    <glyph glyph-name="ebreve" unicode="&#x115;" horiz-adv-x="505" 
d="M260 528c-59 0 -107 36 -122 106l46 11c9 -41 43 -64 78 -64c33 0 65 25 73 64l46 -11c-14 -70 -63 -106 -121 -106zM269 453c123 0 196 -85 196 -214c0 -14 -1 -28 -3 -43h-354c10 -94 82 -150 165 -150c62 0 101 19 135 54l35 -44c-45 -43 -99 -67 -169 -67
c-134 0 -228 96 -228 233c0 128 92 231 223 231zM268 396c-81 0 -146 -58 -159 -146h296c-3 94 -57 146 -137 146z" />
    <glyph glyph-name="ecaron" unicode="&#x11b;" horiz-adv-x="505" 
d="M266 530h-15l-116 103l26 34l97 -76l98 76l27 -35zM269 453c123 0 196 -85 196 -214c0 -14 -1 -28 -3 -43h-354c10 -94 82 -150 165 -150c62 0 101 19 135 54l35 -44c-45 -43 -99 -67 -169 -67c-134 0 -228 96 -228 233c0 128 92 231 223 231zM268 396
c-81 0 -146 -58 -159 -146h296c-3 94 -57 146 -137 146z" />
    <glyph glyph-name="ecircumflex" unicode="&#xea;" horiz-adv-x="505" 
d="M259 600l-98 -76l-28 35l118 102h14l116 -103l-26 -34zM269 453c123 0 196 -85 196 -214c0 -14 -1 -28 -3 -43h-354c10 -94 82 -150 165 -150c62 0 101 19 135 54l35 -44c-45 -43 -99 -67 -169 -67c-134 0 -228 96 -228 233c0 128 92 231 223 231zM268 396
c-81 0 -146 -58 -159 -146h296c-3 94 -57 146 -137 146z" />
    <glyph glyph-name="edieresis" unicode="&#xeb;" horiz-adv-x="505" 
d="M173 561c-27 0 -44 20 -44 42s15 45 44 45c28 0 44 -22 44 -43s-15 -44 -44 -44zM345 561c-28 0 -43 22 -43 43s15 44 43 44c29 0 44 -23 44 -44s-16 -43 -44 -43zM269 453c123 0 196 -85 196 -214c0 -14 -1 -28 -3 -43h-354c10 -94 82 -150 165 -150c62 0 101 19 135 54
l35 -44c-45 -43 -99 -67 -169 -67c-134 0 -228 96 -228 233c0 128 92 231 223 231zM268 396c-82 0 -146 -58 -158 -146h295c-2 94 -56 146 -137 146z" />
    <glyph glyph-name="edotaccent" unicode="&#x117;" horiz-adv-x="505" 
d="M259 556c-29 0 -47 21 -47 46c0 27 18 48 47 48s48 -21 48 -49c0 -25 -20 -45 -48 -45zM269 453c123 0 196 -85 196 -214c0 -14 -1 -28 -3 -43h-354c10 -94 82 -150 165 -150c62 0 101 19 135 54l35 -44c-45 -43 -99 -67 -169 -67c-134 0 -228 96 -228 233
c0 128 92 231 223 231zM268 396c-82 0 -146 -58 -158 -146h295c-2 94 -56 146 -137 146z" />
    <glyph glyph-name="egrave" unicode="&#xe8;" horiz-adv-x="505" 
d="M305 537l-142 101l42 48l131 -113zM269 453c123 0 196 -85 196 -214c0 -14 -1 -28 -3 -43h-354c10 -94 82 -150 165 -150c62 0 101 19 135 54l35 -44c-45 -43 -99 -67 -169 -67c-134 0 -228 96 -228 233c0 128 92 231 223 231zM268 396c-82 0 -146 -58 -158 -146h295
c-2 94 -56 146 -137 146z" />
    <glyph glyph-name="emacron" unicode="&#x113;" horiz-adv-x="505" 
d="M131 560v53h257v-53h-257zM269 453c123 0 196 -85 196 -214c0 -14 -1 -28 -3 -43h-354c10 -94 82 -150 165 -150c62 0 101 19 135 54l35 -44c-45 -43 -99 -67 -169 -67c-134 0 -228 96 -228 233c0 128 92 231 223 231zM268 396c-82 0 -146 -58 -158 -146h295
c-2 94 -56 146 -137 146z" />
    <glyph glyph-name="eogonek" unicode="&#x119;" horiz-adv-x="504" 
d="M264 452c127 0 199 -84 199 -214c0 -13 0 -27 -2 -42h-353c10 -94 81 -149 166 -149c61 0 99 18 134 52l33 -42l-10 -10c-94 -89 -118 -133 -118 -170c0 -22 13 -36 42 -36c18 0 35 7 50 17l18 -47c-23 -16 -52 -24 -81 -24c-59 0 -90 33 -90 79c0 44 29 86 74 129
c-16 -3 -34 -5 -53 -5c-137 0 -227 95 -227 232c0 127 88 230 218 230zM264 395c-81 0 -143 -58 -155 -145h294c0 95 -53 145 -139 145z" />
    <glyph glyph-name="f" unicode="f" horiz-adv-x="328" 
d="M110 0v388h-92v54h92v127c0 87 45 160 143 160c47 0 80 -14 114 -39l-28 -44c-25 17 -47 26 -79 26c-54 0 -89 -35 -89 -103v-127h145v-54h-145v-388h-61z" />
    <glyph glyph-name="g" unicode="g" horiz-adv-x="576" 
d="M453 442h45v-471c0 -136 -101 -201 -218 -201c-86 0 -149 29 -200 79l38 43c43 -42 93 -65 159 -65c90 0 160 47 160 145c0 34 0 67 1 100c-41 -53 -105 -80 -170 -80c-136 0 -222 103 -222 229c0 127 84 230 219 230c72 0 135 -28 174 -82zM271 49c111 0 168 79 168 172
s-55 173 -167 173c-104 0 -164 -76 -164 -172c0 -98 63 -173 163 -173z" />
    <glyph glyph-name="gbreve" unicode="&#x11f;" horiz-adv-x="576" 
d="M275 528c-59 0 -107 36 -122 106l46 11c9 -41 43 -64 78 -64c33 0 65 25 73 64l46 -11c-14 -70 -63 -106 -121 -106zM453 442h45v-471c0 -136 -101 -201 -218 -201c-86 0 -149 29 -200 79l38 43c43 -42 93 -65 159 -65c90 0 160 47 160 145c0 34 0 68 1 100
c-40 -53 -105 -80 -170 -80c-136 0 -222 103 -222 229c0 127 84 230 219 230c72 0 135 -28 174 -82zM271 49c111 0 168 79 168 172s-55 173 -167 173c-104 0 -164 -76 -164 -172c0 -98 63 -173 163 -173z" />
    <glyph glyph-name="gcircumflex" unicode="&#x11d;" horiz-adv-x="576" 
d="M275 600l-98 -76l-28 35l118 102h14l116 -103l-26 -34zM453 442h45v-471c0 -136 -101 -201 -218 -201c-86 0 -149 29 -200 79l38 43c43 -42 93 -65 159 -65c90 0 160 47 160 145c0 34 0 68 1 100c-40 -53 -105 -80 -170 -80c-136 0 -222 103 -222 229
c0 127 84 230 219 230c72 0 135 -28 174 -82zM271 49c111 0 168 79 168 172s-55 173 -167 173c-104 0 -164 -76 -164 -172c0 -98 63 -173 163 -173z" />
    <glyph glyph-name="uni0123" unicode="&#x123;" horiz-adv-x="576" 
d="M336 712c-19 -49 -32 -107 -32 -171h-67c6 67 23 125 51 171h48zM453 442h45v-471c0 -136 -101 -201 -218 -201c-86 0 -149 29 -200 79l38 43c43 -42 93 -65 159 -65c90 0 160 47 160 145c0 34 0 68 1 100c-40 -53 -105 -80 -170 -80c-136 0 -222 103 -222 229
c0 127 84 230 219 230c72 0 135 -28 174 -82zM271 49c111 0 168 79 168 172s-55 173 -167 173c-104 0 -164 -76 -164 -172c0 -98 63 -173 163 -173z" />
    <glyph glyph-name="gdotaccent" unicode="&#x121;" horiz-adv-x="576" 
d="M274 556c-29 0 -47 21 -47 46c0 27 18 48 47 48s48 -21 48 -49c0 -25 -20 -45 -48 -45zM453 442h45v-471c0 -136 -101 -201 -218 -201c-86 0 -149 29 -200 79l38 43c43 -42 93 -65 159 -65c90 0 160 47 160 145c0 34 0 67 1 100c-41 -53 -105 -80 -170 -80
c-136 0 -222 103 -222 229c0 127 84 230 219 230c72 0 135 -28 174 -82zM271 49c111 0 168 79 168 172s-55 173 -167 173c-104 0 -164 -76 -164 -172c0 -98 63 -173 163 -173z" />
    <glyph glyph-name="h" unicode="h" horiz-adv-x="522" 
d="M291 451c108 0 159 -68 159 -181v-270h-61v272c0 74 -30 122 -104 122c-94 0 -146 -80 -146 -176v-218h-61v717h61v-286c0 -22 0 -43 -1 -69c27 52 78 89 153 89z" />
    <glyph glyph-name="hbar" unicode="&#x127;" horiz-adv-x="522" 
d="M293 449c106 0 157 -71 157 -175v-274h-61v276c0 70 -30 116 -104 116c-95 0 -146 -80 -146 -176v-216h-61v553h-66v46h66v118h61v-118h171v-46h-171v-124c0 -23 0 -43 -1 -67c25 49 77 87 155 87z" />
    <glyph glyph-name="hcircumflex" unicode="&#x125;" horiz-adv-x="522" 
d="M218 789l-109 76l-111 -76l-27 35l130 102h14l129 -103zM291 451c108 0 159 -68 159 -181v-270h-61v272c0 74 -30 122 -104 122c-94 0 -146 -80 -146 -176v-218h-61v717h61v-286c0 -22 0 -43 -1 -69c27 52 78 89 153 89z" />
    <glyph glyph-name="i" unicode="i" horiz-adv-x="217" 
d="M109 558c-28 0 -46 20 -46 44c0 26 18 46 46 46s46 -20 46 -46c0 -25 -19 -44 -46 -44zM78 0v442h61v-442h-61z" />
    <glyph glyph-name="dotlessi" unicode="&#x131;" horiz-adv-x="217" 
d="M78 0v442h61v-442h-61z" />
    <glyph glyph-name="iacute" unicode="&#xed;" horiz-adv-x="217" 
d="M54 544l-31 35l132 113l41 -47zM78 0v442h61v-442h-61z" />
    <glyph glyph-name="ibreve" unicode="&#x12d;" horiz-adv-x="217" 
d="M109 528c-59 0 -107 36 -122 106l46 11c9 -41 43 -64 78 -64c33 0 65 25 73 64l46 -11c-14 -70 -63 -106 -121 -106zM78 0v442h61v-442h-61z" />
    <glyph glyph-name="icircumflex" unicode="&#xee;" horiz-adv-x="217" 
d="M11 531l-28 35l118 102h14l116 -103l-26 -34l-96 76zM78 0v442h61v-442h-61z" />
    <glyph glyph-name="idieresis" unicode="&#xef;" horiz-adv-x="217" 
d="M35 558c-27 0 -45 19 -45 45c0 25 18 46 45 46c26 0 44 -21 44 -46s-18 -45 -44 -45zM181 558c-26 0 -44 20 -44 45s18 46 44 46c28 0 45 -21 45 -46s-17 -45 -45 -45zM78 0v442h61v-442h-61z" />
    <glyph glyph-name="i.loclTRK" horiz-adv-x="217" 
d="M108 563c-28 0 -46 19 -46 44c0 26 18 46 46 46c29 0 46 -20 46 -47c0 -24 -18 -43 -46 -43zM78 0v442h61v-442h-61z" />
    <glyph glyph-name="igrave" unicode="&#xec;" horiz-adv-x="217" 
d="M154 537l-142 101l42 48l131 -113zM78 0v442h61v-442h-61z" />
    <glyph glyph-name="ij" unicode="&#x133;" horiz-adv-x="437" 
d="M109 558c-28 0 -46 20 -46 44c0 26 18 46 46 46s46 -20 46 -46c0 -25 -19 -44 -46 -44zM329 558c-27 0 -45 20 -45 44c0 26 18 46 45 46c29 0 46 -20 46 -47c0 -24 -19 -43 -46 -43zM78 0v442h61v-442h-61zM186 -230l-8 54c100 8 121 51 121 146v472h61v-469
c0 -132 -38 -195 -174 -203z" />
    <glyph glyph-name="imacron" unicode="&#x12b;" horiz-adv-x="217" 
d="M8 559v54h200v-54h-200zM78 0v442h61v-442h-61z" />
    <glyph glyph-name="iogonek" unicode="&#x12f;" horiz-adv-x="217" 
d="M108 557c-28 0 -46 20 -46 45c0 27 18 47 46 47c30 0 48 -20 48 -48c0 -25 -19 -44 -48 -44zM174 -142l19 -47c-24 -16 -53 -24 -81 -24c-60 0 -90 31 -90 78c0 43 24 91 56 136v441h61v-442c-34 -43 -57 -87 -57 -121c0 -24 14 -38 42 -38c18 0 36 7 50 17z" />
    <glyph glyph-name="itilde" unicode="&#x129;" horiz-adv-x="217" 
d="M19 560l-42 24c18 46 42 69 75 69c19 0 41 -7 66 -21c18 -10 31 -16 43 -16c15 0 27 10 36 35l43 -24c-19 -45 -43 -67 -75 -67c-18 0 -38 7 -60 19c-18 10 -34 17 -47 17c-17 0 -30 -10 -39 -36zM78 0v442h61v-442h-61z" />
    <glyph glyph-name="j" unicode="j" horiz-adv-x="220" 
d="M112 558c-27 0 -45 20 -45 44c0 26 18 46 45 46c29 0 46 -20 46 -47c0 -24 -19 -43 -46 -43zM-31 -230l-8 54c100 8 121 51 121 146v472h61v-469c0 -132 -38 -195 -174 -203z" />
    <glyph glyph-name="uni0237" unicode="&#x237;" horiz-adv-x="221" 
d="M-31 -230l-8 54c100 8 121 51 121 146v472h61v-469c0 -132 -38 -195 -174 -203z" />
    <glyph glyph-name="jcircumflex" unicode="&#x135;" horiz-adv-x="221" 
d="M14 524l-28 35l118 102h14l116 -103l-26 -34l-96 76zM-31 -230l-8 54c100 8 121 51 121 146v472h61v-469c0 -132 -38 -195 -174 -203z" />
    <glyph glyph-name="k" unicode="k" horiz-adv-x="434" 
d="M194 228l230 -223v-5h-76l-209 205v-205h-61v717h61v-469l191 194h74v-3z" />
    <glyph glyph-name="uni0137" unicode="&#x137;" horiz-adv-x="434" 
d="M194 228l230 -223v-5h-76l-209 205v-205h-61v717h61v-469l191 194h74v-3zM181 -276c17 47 31 105 31 171h67c-6 -70 -23 -127 -50 -171h-48z" />
    <glyph glyph-name="kgreenlandic" unicode="&#x138;" horiz-adv-x="434" 
d="M194 228l230 -223v-5h-76l-209 205v-205h-61v442h61v-194l191 194h74v-3z" />
    <glyph glyph-name="l" unicode="l" horiz-adv-x="218" 
d="M79 0l-1 717h61l1 -717h-61z" />
    <glyph glyph-name="lacute" unicode="&#x13a;" horiz-adv-x="218" 
d="M56 800l-31 35l132 113l40 -47zM79 0l-1 717h61l1 -717h-61z" />
    <glyph glyph-name="lcaron" unicode="&#x13e;" horiz-adv-x="219" 
d="M78 0v717h61v-717h-61zM188 554c13 50 23 102 23 163h67c-6 -64 -19 -116 -43 -163h-47z" />
    <glyph glyph-name="uni013C" unicode="&#x13c;" horiz-adv-x="218" 
d="M79 0l-1 717h61l1 -717h-61zM49 -276c17 47 31 105 31 171h67c-6 -70 -23 -127 -50 -171h-48z" />
    <glyph glyph-name="ldot" unicode="&#x140;" horiz-adv-x="332" 
d="M78 0v717h61v-717h-61zM263 303c-24 0 -48 15 -48 47s24 47 48 47s47 -15 47 -47s-23 -47 -47 -47z" />
    <glyph glyph-name="lslash" unicode="&#x142;" horiz-adv-x="257" 
d="M245 373l-86 -33v-340h-61v316l-70 -27l-17 45l87 33v350h61v-327l70 27z" />
    <glyph glyph-name="m" unicode="m" horiz-adv-x="800" 
d="M573 451c101 0 155 -67 155 -174v-277h-61v280c0 71 -36 114 -98 114c-89 0 -135 -81 -135 -164v-230h-61v281c0 61 -31 113 -98 113c-90 0 -136 -81 -136 -164v-230h-61v442h46l14 -76c29 54 80 85 144 85c67 0 116 -33 137 -89c29 54 80 89 154 89z" />
    <glyph glyph-name="n" unicode="n" horiz-adv-x="522" 
d="M293 451c103 0 157 -66 157 -181v-270h-61v271c0 75 -28 123 -102 123c-89 0 -148 -64 -148 -156v-238h-61v442h46l14 -75c26 47 80 84 155 84z" />
    <glyph glyph-name="nacute" unicode="&#x144;" horiz-adv-x="522" 
d="M347 639l-141 -102l-31 36l132 113zM293 451c103 0 157 -66 157 -181v-270h-61v271c0 75 -28 123 -102 123c-89 0 -148 -64 -148 -156v-238h-61v442h46l14 -75c26 47 80 84 155 84z" />
    <glyph glyph-name="napostrophe" unicode="&#x149;" horiz-adv-x="522" 
d="M-17 470c17 47 31 105 32 171h66c-6 -70 -23 -126 -50 -171h-48zM78 0v442h46l14 -82c24 50 76 91 153 91c106 0 159 -67 159 -180v-271h-61v272c0 72 -28 122 -103 122c-95 0 -147 -80 -147 -176v-218h-61z" />
    <glyph glyph-name="ncaron" unicode="&#x148;" horiz-adv-x="522" 
d="M267 530h-15l-116 103l26 34l97 -76l98 76l27 -35zM293 451c103 0 157 -66 157 -181v-270h-61v271c0 75 -28 123 -102 123c-89 0 -148 -64 -148 -156v-238h-61v442h46l14 -75c26 47 80 84 155 84z" />
    <glyph glyph-name="uni0146" unicode="&#x146;" horiz-adv-x="522" 
d="M293 451c103 0 157 -66 157 -181v-270h-61v271c0 75 -28 123 -102 123c-89 0 -148 -64 -148 -156v-238h-61v442h46l14 -75c26 47 80 84 155 84zM206 -276c17 47 31 105 31 171h67c-6 -70 -23 -127 -50 -171h-48z" />
    <glyph glyph-name="eng" unicode="&#x14b;" horiz-adv-x="522" 
d="M291 -221l-6 54c77 2 104 36 104 117v321c0 75 -28 123 -102 123c-89 0 -148 -64 -148 -156v-238h-61v442h46l13 -77c26 47 80 86 156 86c103 0 157 -65 157 -181v-321c0 -111 -55 -170 -159 -170z" />
    <glyph glyph-name="ntilde" unicode="&#xf1;" horiz-adv-x="522" 
d="M209 590c-17 0 -29 -11 -38 -37l-43 24c18 46 42 69 75 69c19 0 42 -7 66 -21c19 -10 32 -16 43 -16c15 0 27 11 36 35l43 -24c-18 -45 -43 -66 -75 -66c-17 0 -37 6 -59 18c-19 10 -35 18 -48 18zM293 451c103 0 157 -66 157 -181v-270h-61v271c0 75 -28 123 -102 123
c-89 0 -148 -64 -148 -156v-238h-61v442h46l14 -75c26 47 80 84 155 84z" />
    <glyph glyph-name="o" unicode="o" horiz-adv-x="550" 
d="M274 -11c-133 0 -228 96 -228 232s95 232 228 232c135 0 230 -96 230 -232s-95 -232 -230 -232zM274 46c99 0 168 72 168 175c0 102 -68 175 -168 175c-98 0 -166 -73 -166 -175c0 -103 68 -175 166 -175z" />
    <glyph glyph-name="oacute" unicode="&#xf3;" horiz-adv-x="550" 
d="M221 537l-31 36l132 113l40 -47zM274 -11c-133 0 -228 96 -228 232s95 232 228 232c135 0 230 -96 230 -232s-95 -232 -230 -232zM274 46c99 0 168 72 168 175c0 102 -68 175 -168 175c-98 0 -166 -73 -166 -175c0 -103 68 -175 166 -175z" />
    <glyph glyph-name="obreve" unicode="&#x14f;" horiz-adv-x="550" 
d="M275 528c-59 0 -107 36 -122 106l46 11c9 -41 43 -64 78 -64c33 0 65 25 73 64l46 -11c-14 -70 -63 -106 -121 -106zM274 -11c-133 0 -228 96 -228 232s95 232 228 232c135 0 230 -96 230 -232s-95 -232 -230 -232zM274 46c99 0 168 72 168 175c0 102 -68 175 -168 175
c-98 0 -166 -73 -166 -175c0 -103 68 -175 166 -175z" />
    <glyph glyph-name="ocircumflex" unicode="&#xf4;" horiz-adv-x="550" 
d="M177 524l-28 35l118 102h14l116 -103l-26 -34l-96 76zM274 -11c-133 0 -228 96 -228 232s95 232 228 232c135 0 230 -96 230 -232s-95 -232 -230 -232zM274 46c99 0 168 72 168 175c0 102 -68 175 -168 175c-98 0 -166 -73 -166 -175c0 -103 68 -175 166 -175z" />
    <glyph glyph-name="odieresis" unicode="&#xf6;" horiz-adv-x="550" 
d="M188 561c-27 0 -44 20 -44 42s15 45 44 45c28 0 44 -22 44 -43s-15 -44 -44 -44zM360 561c-28 0 -43 22 -43 43s15 44 43 44c29 0 44 -23 44 -44s-16 -43 -44 -43zM274 -11c-133 0 -228 96 -228 232s95 232 228 232c135 0 230 -96 230 -232s-95 -232 -230 -232zM274 46
c99 0 168 72 168 175c0 102 -68 175 -168 175c-98 0 -166 -73 -166 -175c0 -103 68 -175 166 -175z" />
    <glyph glyph-name="ograve" unicode="&#xf2;" horiz-adv-x="550" 
d="M320 537l-142 101l42 48l131 -113zM274 -11c-133 0 -228 96 -228 232s95 232 228 232c135 0 230 -96 230 -232s-95 -232 -230 -232zM274 46c99 0 168 72 168 175c0 102 -68 175 -168 175c-98 0 -166 -73 -166 -175c0 -103 68 -175 166 -175z" />
    <glyph glyph-name="ohungarumlaut" unicode="&#x151;" horiz-adv-x="550" 
d="M181 526l-39 27l97 139l52 -35zM342 526l-39 27l97 139l52 -35zM274 -11c-133 0 -228 96 -228 232s95 232 228 232c135 0 230 -96 230 -232s-95 -232 -230 -232zM274 46c99 0 168 72 168 175c0 102 -68 175 -168 175c-98 0 -166 -73 -166 -175c0 -103 68 -175 166 -175z
" />
    <glyph glyph-name="omacron" unicode="&#x14d;" horiz-adv-x="550" 
d="M146 560v53h257v-53h-257zM274 -11c-133 0 -228 96 -228 232s95 232 228 232c135 0 230 -96 230 -232s-95 -232 -230 -232zM274 46c99 0 168 72 168 175c0 102 -68 175 -168 175c-98 0 -166 -73 -166 -175c0 -103 68 -175 166 -175z" />
    <glyph glyph-name="oslash" unicode="&#xf8;" horiz-adv-x="550" 
d="M426 401c49 -41 78 -104 78 -180c0 -136 -95 -232 -230 -232c-42 0 -80 9 -112 27l-38 -56l-38 26l38 55c-49 41 -78 105 -78 180c0 136 95 232 228 232c42 0 81 -9 113 -26l39 55l37 -26zM108 221c0 -54 19 -100 51 -131l196 287c-23 12 -51 19 -81 19
c-98 0 -166 -73 -166 -175zM274 46c99 0 168 72 168 175c0 54 -19 100 -52 131l-196 -287c23 -12 50 -19 80 -19z" />
    <glyph glyph-name="oslashacute" unicode="&#x1ff;" horiz-adv-x="550" 
d="M362 639l-141 -102l-31 36l132 113zM426 401c49 -41 78 -104 78 -180c0 -136 -95 -232 -230 -232c-42 0 -80 9 -112 27l-38 -56l-38 26l38 55c-49 41 -78 105 -78 180c0 136 95 232 228 232c42 0 81 -9 113 -26l39 55l37 -26zM108 221c0 -54 19 -100 51 -131l196 287
c-23 12 -51 19 -81 19c-98 0 -166 -73 -166 -175zM274 46c99 0 168 72 168 175c0 54 -19 100 -52 131l-196 -287c23 -12 50 -19 80 -19z" />
    <glyph glyph-name="otilde" unicode="&#xf5;" horiz-adv-x="550" 
d="M185 553l-43 24c18 46 42 69 75 69c19 0 42 -7 66 -21c19 -10 32 -16 43 -16c15 0 27 11 36 35l43 -24c-18 -45 -43 -66 -75 -66c-17 0 -37 6 -59 18c-19 10 -35 18 -48 18c-17 0 -29 -11 -38 -37zM274 -11c-133 0 -228 96 -228 232s95 232 228 232
c135 0 230 -96 230 -232s-95 -232 -230 -232zM274 46c99 0 168 72 168 175c0 102 -68 175 -168 175c-98 0 -166 -73 -166 -175c0 -103 68 -175 166 -175z" />
    <glyph glyph-name="oe" unicode="&#x153;" horiz-adv-x="878" 
d="M637 452c124 0 201 -81 201 -217c0 -12 -1 -25 -2 -39h-347c10 -95 71 -149 156 -149c56 0 96 16 138 52l33 -43c-49 -43 -105 -66 -168 -66c-88 0 -159 44 -188 116c-32 -72 -99 -116 -192 -116c-132 0 -222 97 -222 233c0 133 90 228 222 228c93 0 160 -43 192 -116
c26 68 92 117 177 117zM271 47c99 0 161 72 161 176c0 101 -62 172 -161 172c-101 0 -164 -71 -164 -172c0 -104 63 -176 164 -176zM639 395c-85 0 -141 -57 -150 -145h290c0 90 -54 145 -140 145z" />
    <glyph glyph-name="p" unicode="p" horiz-adv-x="575" 
d="M310 451c126 0 218 -96 218 -228c0 -136 -92 -233 -219 -233c-73 0 -135 33 -172 83c1 -34 2 -75 2 -119v-174h-61v662h46l13 -74c38 51 98 83 173 83zM305 47c95 0 162 72 162 173c0 102 -67 174 -162 174c-99 0 -169 -70 -169 -171c0 -105 71 -176 169 -176z" />
    <glyph glyph-name="thorn" unicode="&#xfe;" horiz-adv-x="575" 
d="M310 451c127 0 218 -99 218 -230s-91 -231 -218 -231c-71 0 -136 33 -174 86c2 -35 3 -76 3 -122v-174h-61v937h61v-230c0 -42 -1 -81 -4 -124c37 56 101 88 175 88zM305 47c97 0 162 73 162 174c0 100 -64 173 -163 173c-103 0 -168 -73 -168 -173s66 -174 169 -174z
" />
    <glyph glyph-name="q" unicode="q" horiz-adv-x="575" 
d="M451 442h46v-662h-61v174c0 47 1 89 2 124c-36 -54 -98 -88 -172 -88c-129 0 -220 97 -220 233c0 132 92 228 219 228c75 0 133 -31 172 -85zM270 47c98 0 168 71 168 176c0 101 -69 171 -168 171c-95 0 -162 -72 -162 -174c0 -101 67 -173 162 -173z" />
    <glyph glyph-name="r" unicode="r" horiz-adv-x="350" 
d="M265 451c28 0 52 -6 72 -15l-18 -54c-17 6 -34 11 -59 11c-72 0 -121 -51 -121 -137v-256h-61v442h46l12 -65c25 46 67 74 129 74z" />
    <glyph glyph-name="racute" unicode="&#x155;" horiz-adv-x="350" 
d="M286 639l-141 -102l-31 36l132 113zM265 451c28 0 52 -6 72 -15l-18 -54c-17 6 -34 11 -59 11c-72 0 -121 -51 -121 -137v-256h-61v442h46l12 -65c25 46 67 74 129 74z" />
    <glyph glyph-name="rcaron" unicode="&#x159;" horiz-adv-x="350" 
d="M206 530h-15l-116 103l26 34l97 -76l98 76l27 -35zM265 451c28 0 52 -6 72 -15l-18 -54c-17 6 -34 11 -59 11c-72 0 -121 -51 -121 -137v-256h-61v442h46l12 -65c25 46 67 74 129 74z" />
    <glyph glyph-name="uni0157" unicode="&#x157;" horiz-adv-x="350" 
d="M265 451c28 0 52 -6 72 -15l-18 -54c-17 6 -34 11 -59 11c-72 0 -121 -51 -121 -137v-256h-61v442h46l12 -65c25 46 67 74 129 74zM41 -276c17 47 31 105 31 171h67c-6 -70 -23 -127 -50 -171h-48z" />
    <glyph glyph-name="s" unicode="s" horiz-adv-x="396" 
d="M204 -8c-62 0 -114 17 -161 49l31 48c39 -28 81 -40 130 -40c54 0 89 27 89 67c0 43 -49 65 -102 86c-72 28 -132 62 -132 133c0 74 68 112 143 112c48 0 94 -14 134 -40l-27 -44c-32 18 -68 28 -104 28c-45 0 -85 -15 -85 -56c0 -40 41 -60 93 -80
c80 -30 141 -65 141 -139s-63 -124 -150 -124z" />
    <glyph glyph-name="sacute" unicode="&#x15b;" horiz-adv-x="396" 
d="M143 537l-31 36l132 113l40 -47zM204 -8c-62 0 -114 17 -161 49l31 48c39 -28 81 -40 130 -40c54 0 89 27 89 67c0 43 -49 65 -102 86c-72 28 -132 62 -132 133c0 74 68 112 143 112c48 0 94 -14 134 -40l-27 -44c-32 18 -68 28 -104 28c-45 0 -85 -15 -85 -56
c0 -40 41 -60 93 -80c80 -30 141 -65 141 -139s-63 -124 -150 -124z" />
    <glyph glyph-name="scaron" unicode="&#x161;" horiz-adv-x="396" 
d="M190 530l-116 103l26 34l97 -76l98 76l27 -35l-117 -102h-15zM204 -8c-62 0 -114 17 -161 49l31 48c39 -28 81 -40 130 -40c54 0 89 27 89 67c0 43 -49 65 -102 86c-72 28 -132 62 -132 133c0 74 68 112 143 112c48 0 94 -14 134 -40l-27 -44c-32 18 -68 28 -104 28
c-45 0 -85 -15 -85 -56c0 -40 41 -60 93 -80c80 -30 141 -65 141 -139s-63 -124 -150 -124z" />
    <glyph glyph-name="scedilla" unicode="&#x15f;" horiz-adv-x="396" 
d="M354 116c0 -66 -50 -113 -123 -122l-21 -48c52 -5 90 -31 90 -78c0 -50 -43 -79 -101 -79c-38 0 -70 9 -98 26l21 39c20 -13 44 -21 72 -21c32 0 55 12 55 38c0 37 -53 47 -101 46l33 76c-52 3 -97 20 -138 48l31 48c39 -28 81 -40 130 -40c54 0 89 27 89 67
c0 43 -49 65 -102 86c-72 28 -132 62 -132 133c0 74 68 112 143 112c48 0 94 -14 134 -40l-27 -44c-32 18 -68 28 -104 28c-45 0 -85 -15 -85 -56c0 -40 41 -60 93 -80c80 -30 141 -65 141 -139z" />
    <glyph glyph-name="scircumflex" unicode="&#x15d;" horiz-adv-x="396" 
d="M100 524l-28 35l118 102h14l116 -103l-26 -34l-96 76zM204 -8c-62 0 -114 17 -161 49l31 48c39 -28 81 -40 130 -40c54 0 89 27 89 67c0 43 -49 65 -102 86c-72 28 -132 62 -132 133c0 74 68 112 143 112c48 0 94 -14 134 -40l-27 -44c-32 18 -68 28 -104 28
c-45 0 -85 -15 -85 -56c0 -40 41 -60 93 -80c80 -30 141 -65 141 -139s-63 -124 -150 -124z" />
    <glyph glyph-name="uni0219" unicode="&#x219;" horiz-adv-x="396" 
d="M204 -8c-62 0 -114 17 -161 49l31 48c39 -28 81 -40 130 -40c54 0 89 27 89 67c0 43 -49 65 -102 86c-72 28 -132 62 -132 133c0 74 68 112 143 112c48 0 94 -14 134 -40l-27 -44c-32 18 -68 28 -104 28c-45 0 -85 -15 -85 -56c0 -40 41 -60 93 -80
c80 -30 141 -65 141 -139s-63 -124 -150 -124zM141 -276c17 47 31 105 31 171h67c-6 -70 -23 -127 -50 -171h-48z" />
    <glyph glyph-name="germandbls" unicode="&#xdf;" horiz-adv-x="509" 
d="M302 -6c-34 0 -64 6 -95 18l13 54c21 -10 47 -17 78 -17c68 0 121 32 121 85c0 89 -140 98 -140 214c0 110 93 110 93 218c0 63 -40 102 -109 102c-85 0 -124 -62 -124 -161v-507h-61v509c0 141 66 216 184 216c105 0 172 -66 172 -159c0 -129 -94 -135 -94 -216
c0 -83 140 -93 140 -213c0 -93 -82 -143 -178 -143z" />
    <glyph glyph-name="t" unicode="t" horiz-adv-x="359" 
d="M226 -8c-72 0 -117 42 -117 133v263l-86 4v50h86v147h61v-147h158v-54h-158v-263c0 -56 23 -75 62 -75c31 0 59 10 87 30l27 -46c-33 -25 -74 -42 -120 -42z" />
    <glyph glyph-name="tbar" unicode="&#x167;" horiz-adv-x="353" 
d="M313 80l28 -46c-34 -25 -74 -42 -119 -42c-68 0 -113 42 -113 133v80h-50v46h50v135l-86 4v52h86v147h61v-147h158v-56h-158v-135h113v-46h-113v-80c0 -56 23 -75 60 -75c27 0 55 10 83 30z" />
    <glyph glyph-name="tcaron" unicode="&#x165;" horiz-adv-x="353" 
d="M229 522c15 44 27 96 27 155h62c-4 -61 -18 -113 -44 -155h-45zM222 -8c-68 0 -113 42 -113 133v261l-86 4v52h86v147h61v-147h158v-56h-158v-261c0 -56 23 -76 60 -76c27 1 55 11 83 31l28 -46c-34 -25 -74 -42 -119 -42z" />
    <glyph glyph-name="uni0163" unicode="&#x163;" horiz-adv-x="359" 
d="M226 -54c52 -5 90 -31 90 -78c0 -50 -44 -79 -101 -79c-38 0 -70 9 -98 26l21 39c20 -13 44 -21 72 -21c31 0 55 12 55 38c0 37 -53 47 -101 46l34 77c-56 10 -89 53 -89 131v263l-86 4v50h86v147h61v-147h158v-54h-158v-263c0 -56 23 -75 62 -75c31 0 59 10 87 30
l27 -46c-28 -21 -62 -37 -100 -41z" />
    <glyph glyph-name="uni021B" unicode="&#x21b;" horiz-adv-x="359" 
d="M226 -8c-72 0 -117 42 -117 133v263l-86 4v50h86v147h61v-147h158v-54h-158v-263c0 -56 23 -75 62 -75c31 0 59 10 87 30l27 -46c-33 -25 -74 -42 -120 -42zM158 -276c17 47 31 105 31 171h67c-6 -70 -23 -127 -50 -171h-48z" />
    <glyph glyph-name="u" unicode="u" horiz-adv-x="519" 
d="M380 442h61v-442h-47l-12 77c-26 -47 -76 -85 -149 -85c-110 0 -161 73 -161 181v269h61v-270c0 -72 28 -123 107 -123c88 0 140 79 140 173v220z" />
    <glyph glyph-name="uacute" unicode="&#xfa;" horiz-adv-x="519" 
d="M345 639l-141 -102l-31 36l132 113zM380 442h61v-442h-47l-13 77c-25 -47 -76 -85 -148 -85c-110 0 -161 73 -161 181v269h61v-270c0 -72 28 -123 107 -123c88 0 140 79 140 173v220z" />
    <glyph glyph-name="ubreve" unicode="&#x16d;" horiz-adv-x="519" 
d="M259 528c-59 0 -107 36 -122 106l46 11c9 -41 43 -64 78 -64c33 0 65 25 73 64l46 -11c-14 -70 -63 -106 -121 -106zM380 442h61v-442h-47l-13 77c-25 -47 -76 -85 -148 -85c-110 0 -161 73 -161 181v269h61v-270c0 -72 28 -123 107 -123c88 0 140 79 140 173v220z" />
    <glyph glyph-name="ucircumflex" unicode="&#xfb;" horiz-adv-x="519" 
d="M259 600l-98 -76l-28 35l118 102h14l116 -103l-26 -34zM380 442h61v-442h-47l-13 77c-25 -47 -76 -85 -148 -85c-110 0 -161 73 -161 181v269h61v-270c0 -72 28 -123 107 -123c88 0 140 79 140 173v220z" />
    <glyph glyph-name="udieresis" unicode="&#xfc;" horiz-adv-x="519" 
d="M172 561c-27 0 -44 20 -44 42s15 45 44 45c28 0 44 -22 44 -43s-15 -44 -44 -44zM344 561c-28 0 -43 22 -43 43s15 44 43 44c29 0 44 -23 44 -44s-16 -43 -44 -43zM380 442h61v-442h-47l-12 77c-26 -47 -76 -85 -149 -85c-110 0 -161 73 -161 181v269h61v-270
c0 -72 28 -123 107 -123c88 0 140 79 140 173v220z" />
    <glyph glyph-name="ugrave" unicode="&#xf9;" horiz-adv-x="519" 
d="M304 537l-142 101l42 48l131 -113zM380 442h61v-442h-47l-12 77c-26 -47 -76 -85 -149 -85c-110 0 -161 73 -161 181v269h61v-270c0 -72 28 -123 107 -123c88 0 140 79 140 173v220z" />
    <glyph glyph-name="uhungarumlaut" unicode="&#x171;" horiz-adv-x="519" 
d="M165 526l-39 27l97 139l52 -35zM326 526l-39 27l97 139l52 -35zM380 442h61v-442h-47l-12 77c-26 -47 -76 -85 -149 -85c-110 0 -161 73 -161 181v269h61v-270c0 -72 28 -123 107 -123c88 0 140 79 140 173v220z" />
    <glyph glyph-name="umacron" unicode="&#x16b;" horiz-adv-x="519" 
d="M130 560v53h257v-53h-257zM380 442h61v-442h-47l-12 77c-26 -47 -76 -85 -149 -85c-110 0 -161 73 -161 181v269h61v-270c0 -72 28 -123 107 -123c88 0 140 79 140 173v220z" />
    <glyph glyph-name="uogonek" unicode="&#x173;" horiz-adv-x="519" 
d="M446 -142l18 -47c-23 -16 -52 -24 -81 -24c-59 0 -90 35 -90 79c0 51 40 101 98 153l-9 58c-26 -47 -76 -85 -149 -85c-110 0 -161 73 -161 181v269h61v-270c0 -72 28 -123 107 -123c88 0 140 79 140 173v220h61v-441l1 -1c-53 -43 -88 -85 -88 -123c0 -22 13 -36 42 -36
c18 0 35 7 50 17z" />
    <glyph glyph-name="uring" unicode="&#x16f;" horiz-adv-x="519" 
d="M259 506c-53 0 -105 33 -105 96s51 96 104 96s103 -33 103 -96s-49 -96 -102 -96zM258 546c30 0 57 19 57 56s-27 57 -57 57s-58 -20 -58 -57s29 -56 58 -56zM380 442h61v-442h-47l-12 77c-26 -47 -76 -85 -149 -85c-110 0 -161 73 -161 181v269h61v-270
c0 -72 28 -123 107 -123c88 0 140 79 140 173v220z" />
    <glyph glyph-name="utilde" unicode="&#x169;" horiz-adv-x="519" 
d="M169 553l-43 24c18 46 42 69 75 69c19 0 42 -7 66 -21c19 -10 32 -16 43 -16c15 0 27 11 36 35l43 -24c-18 -45 -43 -66 -75 -66c-17 0 -37 6 -59 18c-19 10 -35 18 -48 18c-17 0 -29 -11 -38 -37zM380 442h61v-442h-47l-12 77c-26 -47 -76 -85 -149 -85
c-110 0 -161 73 -161 181v269h61v-270c0 -72 28 -123 107 -123c88 0 140 79 140 173v220z" />
    <glyph glyph-name="v" unicode="v" horiz-adv-x="464" 
d="M383 442h66v-2l-206 -445h-22l-207 445v2h66l128 -283c9 -20 17 -40 24 -63c7 23 15 43 24 63z" />
    <glyph glyph-name="w" unicode="w" horiz-adv-x="665" 
d="M582 442h62v-2l-155 -445h-19l-137 306l-139 -306h-18l-155 445v2h62l92 -265c6 -19 11 -35 17 -57c7 21 14 37 22 55l111 243h15l110 -242c9 -18 16 -35 23 -56c6 21 11 39 18 58z" />
    <glyph glyph-name="wacute" unicode="&#x1e83;" horiz-adv-x="665" 
d="M420 639l-141 -102l-31 36l132 113zM582 442h62v-2l-155 -445h-19l-137 306l-139 -306h-18l-155 445v2h62l92 -265c6 -18 11 -35 17 -56c7 20 14 36 22 54l111 243h15l110 -242c9 -18 16 -35 23 -56c6 21 11 39 18 58z" />
    <glyph glyph-name="wcircumflex" unicode="&#x175;" horiz-adv-x="665" 
d="M333 600l-98 -76l-28 35l118 102h14l116 -103l-26 -34zM582 442h62v-2l-155 -445h-19l-137 306l-139 -306h-18l-155 445v2h62l92 -265c6 -18 11 -35 17 -56c7 20 14 36 22 54l111 243h15l110 -242c9 -18 16 -35 23 -56c6 21 11 39 18 58z" />
    <glyph glyph-name="wdieresis" unicode="&#x1e85;" horiz-adv-x="665" 
d="M246 561c-27 0 -44 20 -44 42s15 45 44 45c28 0 44 -22 44 -43s-15 -44 -44 -44zM418 561c-28 0 -43 22 -43 43s15 44 43 44c29 0 44 -23 44 -44s-16 -43 -44 -43zM582 442h62v-2l-155 -445h-19l-137 306l-139 -306h-18l-155 445v2h62l92 -265c6 -19 11 -35 17 -57
c7 21 14 37 22 55l111 243h15l110 -242c9 -18 16 -35 23 -56c6 21 11 39 18 58z" />
    <glyph glyph-name="wgrave" unicode="&#x1e81;" horiz-adv-x="665" 
d="M378 537l-142 101l42 48l131 -113zM582 442h62v-2l-155 -445h-19l-137 306l-139 -306h-18l-155 445v2h62l92 -265c6 -19 11 -35 17 -57c7 21 14 37 22 55l111 243h15l110 -242c9 -18 16 -35 23 -56c6 21 11 39 18 58z" />
    <glyph glyph-name="x" unicode="x" horiz-adv-x="450" 
d="M26 0v2l164 231l-148 207v2h70l78 -111c12 -16 23 -33 35 -54c12 20 25 39 36 55l79 110h68v-2l-148 -207l164 -231v-2h-70l-91 129c-14 19 -25 36 -38 59c-14 -23 -25 -41 -39 -60l-92 -128h-68z" />
    <glyph glyph-name="y" unicode="y" horiz-adv-x="461" 
d="M384 442h63v-2l-272 -660h-64v2l98 229l-193 429v2h64l127 -283c11 -26 22 -51 32 -82c10 31 20 57 30 82z" />
    <glyph glyph-name="yacute" unicode="&#xfd;" horiz-adv-x="461" 
d="M318 639l-141 -102l-31 36l132 113zM384 442h63v-2l-272 -660h-64v2l98 230l-193 428v2h64l127 -283c11 -25 22 -51 32 -82c10 31 20 57 30 82z" />
    <glyph glyph-name="ycircumflex" unicode="&#x177;" horiz-adv-x="461" 
d="M231 600l-98 -76l-28 35l118 102h14l116 -103l-26 -34zM384 442h63v-2l-272 -660h-64v2l98 230l-193 428v2h64l127 -283c11 -25 22 -51 32 -82c10 31 20 57 30 82z" />
    <glyph glyph-name="ydieresis" unicode="&#xff;" horiz-adv-x="461" 
d="M144 561c-27 0 -44 20 -44 42s15 45 44 45c28 0 44 -22 44 -43s-15 -44 -44 -44zM316 561c-28 0 -43 22 -43 43s15 44 43 44c29 0 44 -23 44 -44s-16 -43 -44 -43zM384 442h63v-2l-272 -660h-64v2l98 229l-193 429v2h64l127 -283c11 -26 22 -51 32 -82c10 31 20 57 30 82
z" />
    <glyph glyph-name="ygrave" unicode="&#x1ef3;" horiz-adv-x="461" 
d="M276 537l-142 101l42 48l131 -113zM384 442h63v-2l-272 -660h-64v2l98 229l-193 429v2h64l127 -283c11 -26 22 -51 32 -82c10 31 20 57 30 82z" />
    <glyph glyph-name="z" unicode="z" horiz-adv-x="415" 
d="M205 56h169v-56h-331v19l208 323l29 45c-25 -1 -35 -1 -54 -1h-172v56h317v-18l-196 -303c-13 -22 -27 -42 -43 -65h73z" />
    <glyph glyph-name="zacute" unicode="&#x17a;" horiz-adv-x="415" 
d="M298 639l-141 -102l-31 36l132 113zM205 56h169v-56h-331v19l208 323c9 15 18 29 29 45c-24 -1 -35 -1 -54 -1h-172v56h317v-18l-196 -303c-14 -22 -27 -43 -44 -66c29 1 50 1 74 1z" />
    <glyph glyph-name="zcaron" unicode="&#x17e;" horiz-adv-x="415" 
d="M218 530h-15l-116 103l26 34l97 -76l98 76l27 -35zM205 56h169v-56h-331v19l208 323c9 15 18 29 29 45c-24 -1 -35 -1 -54 -1h-172v56h317v-18l-196 -303c-14 -22 -27 -43 -44 -66c29 1 50 1 74 1z" />
    <glyph glyph-name="zdotaccent" unicode="&#x17c;" horiz-adv-x="415" 
d="M211 556c-29 0 -47 21 -47 46c0 27 18 48 47 48s48 -21 48 -49c0 -25 -20 -45 -48 -45zM205 56h169v-56h-331v19l208 323l29 45c-25 -1 -35 -1 -54 -1h-172v56h317v-18l-196 -303c-13 -22 -27 -42 -43 -65h73z" />
    <glyph glyph-name="germandbls.calt" horiz-adv-x="664" 
d="M398 418c130 0 217 -87 217 -208c0 -124 -88 -210 -214 -210h-133v60h125c94 0 156 60 156 150c0 89 -62 149 -156 149h-80v47l147 214h-138c-101 0 -159 -68 -159 -184v-436h-66v436c0 159 80 244 229 244h236v-20l-168 -242h4z" />
    <glyph glyph-name="a.ss01" horiz-adv-x="576" 
d="M451 442h47v-442h-47l-9 76c-39 -54 -101 -86 -176 -86c-131 0 -220 98 -220 230c0 133 89 231 222 231c70 0 129 -28 170 -83zM272 48c101 0 168 72 168 172c0 102 -66 174 -168 174c-99 0 -165 -72 -165 -174c0 -101 67 -172 165 -172z" />
    <glyph glyph-name="aacute.ss01" horiz-adv-x="576" 
d="M364 639l-141 -102l-31 36l132 113zM451 442h47v-442h-47l-9 76c-39 -54 -101 -86 -176 -86c-131 0 -220 98 -220 230c0 133 89 231 222 231c69 0 128 -28 170 -83zM272 48c101 0 168 72 168 172c0 102 -66 174 -168 174c-99 0 -165 -72 -165 -174
c0 -101 67 -172 165 -172z" />
    <glyph glyph-name="abreve.ss01" horiz-adv-x="576" 
d="M277 528c-59 0 -107 36 -122 106l46 11c9 -41 43 -64 78 -64c33 0 65 25 73 64l46 -11c-14 -70 -63 -106 -121 -106zM451 442h47v-442h-47l-9 76c-39 -54 -101 -86 -176 -86c-131 0 -220 98 -220 230c0 133 89 231 222 231c69 0 128 -28 170 -83zM272 48
c101 0 168 72 168 172c0 102 -66 174 -168 174c-99 0 -165 -72 -165 -174c0 -101 67 -172 165 -172z" />
    <glyph glyph-name="acircumflex.ss01" horiz-adv-x="576" 
d="M277 600l-98 -76l-28 35l118 102h14l116 -103l-26 -34zM451 442h47v-442h-47l-9 76c-39 -54 -101 -86 -176 -86c-131 0 -220 98 -220 230c0 133 89 231 222 231c69 0 128 -28 170 -83zM272 48c101 0 168 72 168 172c0 102 -66 174 -168 174c-99 0 -165 -72 -165 -174
c0 -101 67 -172 165 -172z" />
    <glyph glyph-name="adieresis.ss01" horiz-adv-x="576" 
d="M190 561c-27 0 -44 20 -44 42s15 45 44 45c28 0 44 -22 44 -43s-15 -44 -44 -44zM362 561c-28 0 -43 22 -43 43s15 44 43 44c29 0 44 -23 44 -44s-16 -43 -44 -43zM451 442h47v-442h-47l-9 76c-39 -54 -101 -86 -176 -86c-131 0 -220 98 -220 230c0 133 89 231 222 231
c70 0 129 -28 170 -83zM272 48c101 0 168 72 168 172c0 102 -66 174 -168 174c-99 0 -165 -72 -165 -174c0 -101 67 -172 165 -172z" />
    <glyph glyph-name="agrave.ss01" horiz-adv-x="576" 
d="M322 537l-142 101l42 48l131 -113zM451 442h47v-442h-47l-9 76c-39 -54 -101 -86 -176 -86c-131 0 -220 98 -220 230c0 133 89 231 222 231c70 0 129 -28 170 -83zM272 48c101 0 168 72 168 172c0 102 -66 174 -168 174c-99 0 -165 -72 -165 -174
c0 -101 67 -172 165 -172z" />
    <glyph glyph-name="amacron.ss01" horiz-adv-x="576" 
d="M148 560v53h257v-53h-257zM451 442h47v-442h-47l-9 76c-39 -54 -101 -86 -176 -86c-131 0 -220 98 -220 230c0 133 89 231 222 231c70 0 129 -28 170 -83zM272 48c101 0 168 72 168 172c0 102 -66 174 -168 174c-99 0 -165 -72 -165 -174c0 -101 67 -172 165 -172z" />
    <glyph glyph-name="aogonek.ss01" horiz-adv-x="576" 
d="M502 -142l18 -47c-23 -16 -52 -24 -81 -24c-59 0 -90 35 -90 79c0 52 41 102 100 154l-7 56c-39 -54 -101 -86 -176 -86c-131 0 -220 98 -220 230c0 133 89 231 222 231c70 0 129 -28 170 -83l13 74h47v-442c-53 -43 -88 -85 -88 -123c0 -22 13 -36 42 -36
c18 0 35 7 50 17zM272 48c101 0 168 72 168 172c0 102 -66 174 -168 174c-99 0 -165 -72 -165 -174c0 -101 67 -172 165 -172z" />
    <glyph glyph-name="atilde.ss01" horiz-adv-x="576" 
d="M188 553l-43 24c18 46 42 69 75 69c19 0 42 -7 66 -21c19 -10 32 -16 43 -16c15 0 27 11 36 35l43 -24c-18 -45 -43 -66 -75 -66c-17 0 -37 6 -59 18c-19 10 -35 18 -48 18c-17 0 -29 -11 -38 -37zM451 442h47v-442h-47l-9 76c-39 -54 -101 -86 -176 -86
c-131 0 -220 98 -220 230c0 133 89 231 222 231c70 0 129 -28 170 -83zM272 48c101 0 168 72 168 172c0 102 -66 174 -168 174c-99 0 -165 -72 -165 -174c0 -101 67 -172 165 -172z" />
    <glyph glyph-name="ae.ss01" horiz-adv-x="856" 
d="M647 48c54 0 98 15 134 51l33 -40c-44 -45 -99 -67 -166 -67c-77 0 -131 28 -162 80l-6 -72h-47l-6 71c-35 -49 -97 -79 -165 -79c-132 0 -216 101 -216 228s82 230 217 230c68 0 125 -27 161 -76l8 68h47l9 -71c32 50 86 81 162 81c92 0 168 -52 168 -146
s-79 -125 -193 -125c-46 0 -99 3 -137 8c11 -91 76 -141 159 -141zM646 395c-86 0 -148 -57 -158 -153c37 -5 90 -9 140 -9c78 0 131 17 131 78c0 53 -48 84 -113 84zM266 48c111 0 159 82 159 172c0 92 -48 173 -159 173c-97 0 -159 -73 -159 -173s63 -172 159 -172z" />
    <glyph glyph-name="aeacute.ss01" horiz-adv-x="856" 
d="M543 639l-141 -102l-31 36l132 113zM647 48c54 0 98 15 134 51l33 -40c-44 -45 -99 -67 -166 -67c-77 0 -131 28 -162 80l-6 -72h-47l-6 71c-35 -49 -97 -79 -165 -79c-132 0 -216 101 -216 228s82 230 217 230c68 0 125 -27 161 -76l8 68h47l9 -71c32 50 86 81 162 81
c92 0 168 -52 168 -146s-79 -125 -193 -125c-46 0 -99 3 -137 8c11 -91 76 -141 159 -141zM646 395c-86 0 -148 -57 -158 -153c37 -5 90 -9 140 -9c78 0 131 17 131 78c0 53 -48 84 -113 84zM266 48c111 0 159 82 159 172c0 92 -48 173 -159 173c-97 0 -159 -73 -159 -173
s63 -172 159 -172z" />
    <glyph glyph-name="e.ss01" horiz-adv-x="482" 
d="M274 46c58 0 99 18 133 53l34 -42c-42 -43 -98 -68 -168 -68c-140 0 -227 99 -227 231c0 126 83 233 225 233c100 0 173 -61 173 -147c0 -92 -80 -125 -188 -125c-66 0 -106 3 -147 9c12 -90 80 -144 165 -144zM270 396c-94 0 -153 -65 -162 -154c44 -5 88 -9 142 -9
c85 0 135 17 135 76c0 51 -48 87 -115 87z" />
    <glyph glyph-name="eacute.ss01" horiz-adv-x="482" 
d="M351 639l-141 -102l-31 36l132 113zM274 46c58 0 99 18 133 53l34 -42c-42 -43 -98 -68 -168 -68c-140 0 -227 99 -227 231c0 126 83 233 225 233c100 0 173 -61 173 -147c0 -92 -80 -125 -188 -125c-66 0 -107 3 -147 9c12 -90 80 -144 165 -144zM270 396
c-94 0 -153 -65 -162 -154c44 -6 88 -9 142 -9c85 0 135 17 135 76c0 51 -48 87 -115 87z" />
    <glyph glyph-name="ebreve.ss01" horiz-adv-x="482" 
d="M264 528c-59 0 -107 36 -122 106l46 11c9 -41 43 -64 78 -64c33 0 65 25 73 64l46 -11c-14 -70 -63 -106 -121 -106zM274 46c58 0 99 18 133 53l34 -42c-42 -43 -98 -68 -168 -68c-140 0 -227 99 -227 231c0 126 83 233 225 233c100 0 173 -61 173 -147
c0 -92 -80 -125 -188 -125c-66 0 -107 3 -147 9c12 -90 80 -144 165 -144zM270 396c-94 0 -153 -65 -162 -154c44 -6 88 -9 142 -9c85 0 135 17 135 76c0 51 -48 87 -115 87z" />
    <glyph glyph-name="ecaron.ss01" horiz-adv-x="482" 
d="M271 530h-15l-116 103l26 34l97 -76l98 76l27 -35zM274 46c58 0 99 18 133 53l34 -42c-42 -43 -98 -68 -168 -68c-140 0 -227 99 -227 231c0 126 83 233 225 233c100 0 173 -61 173 -147c0 -92 -80 -125 -188 -125c-66 0 -107 3 -147 9c12 -90 80 -144 165 -144zM270 396
c-94 0 -153 -65 -162 -154c44 -6 88 -9 142 -9c85 0 135 17 135 76c0 51 -48 87 -115 87z" />
    <glyph glyph-name="ecircumflex.ss01" horiz-adv-x="482" 
d="M264 600l-98 -76l-28 35l118 102h14l116 -103l-26 -34zM274 46c58 0 99 18 133 53l34 -42c-42 -43 -98 -68 -168 -68c-140 0 -227 99 -227 231c0 126 83 233 225 233c100 0 173 -61 173 -147c0 -92 -80 -125 -188 -125c-66 0 -107 3 -147 9c12 -90 80 -144 165 -144z
M270 396c-94 0 -153 -65 -162 -154c44 -6 88 -9 142 -9c85 0 135 17 135 76c0 51 -48 87 -115 87z" />
    <glyph glyph-name="edieresis.ss01" horiz-adv-x="482" 
d="M177 561c-27 0 -44 20 -44 42s15 45 44 45c28 0 44 -22 44 -43s-15 -44 -44 -44zM349 561c-28 0 -43 22 -43 43s15 44 43 44c29 0 44 -23 44 -44s-16 -43 -44 -43zM274 46c58 0 99 18 133 53l34 -42c-42 -43 -98 -68 -168 -68c-140 0 -227 99 -227 231
c0 126 83 233 225 233c100 0 173 -61 173 -147c0 -92 -80 -125 -188 -125c-66 0 -106 3 -147 9c12 -90 80 -144 165 -144zM270 396c-94 0 -153 -65 -162 -154c44 -5 88 -9 142 -9c85 0 135 17 135 76c0 51 -48 87 -115 87z" />
    <glyph glyph-name="edotaccent.ss01" horiz-adv-x="482" 
d="M264 556c-29 0 -47 21 -47 46c0 27 18 48 47 48s48 -21 48 -49c0 -25 -20 -45 -48 -45zM274 46c58 0 99 18 133 53l34 -42c-42 -43 -98 -68 -168 -68c-140 0 -227 99 -227 231c0 126 83 233 225 233c100 0 173 -61 173 -147c0 -92 -80 -125 -188 -125
c-66 0 -106 3 -147 9c12 -90 80 -144 165 -144zM270 396c-94 0 -153 -65 -162 -154c44 -5 88 -9 142 -9c85 0 135 17 135 76c0 51 -48 87 -115 87z" />
    <glyph glyph-name="egrave.ss01" horiz-adv-x="482" 
d="M309 537l-142 101l42 48l131 -113zM274 46c58 0 99 18 133 53l34 -42c-42 -43 -98 -68 -168 -68c-140 0 -227 99 -227 231c0 126 83 233 225 233c100 0 173 -61 173 -147c0 -92 -80 -125 -188 -125c-66 0 -106 3 -147 9c12 -90 80 -144 165 -144zM270 396
c-94 0 -153 -65 -162 -154c44 -5 88 -9 142 -9c85 0 135 17 135 76c0 51 -48 87 -115 87z" />
    <glyph glyph-name="emacron.ss01" horiz-adv-x="482" 
d="M135 560v53h257v-53h-257zM274 46c58 0 99 18 133 53l34 -42c-42 -43 -98 -68 -168 -68c-140 0 -227 99 -227 231c0 126 83 233 225 233c100 0 173 -61 173 -147c0 -92 -80 -125 -188 -125c-66 0 -106 3 -147 9c12 -90 80 -144 165 -144zM270 396
c-94 0 -153 -65 -162 -154c44 -5 88 -9 142 -9c85 0 135 17 135 76c0 51 -48 87 -115 87z" />
    <glyph glyph-name="eogonek.ss01" horiz-adv-x="483" 
d="M446 60l-11 -11c-91 -92 -115 -137 -115 -174c0 -22 14 -36 42 -36c18 0 36 7 50 17l18 -47c-23 -15 -52 -24 -81 -24c-59 0 -90 33 -90 79c0 44 28 87 72 132c-18 -4 -37 -6 -57 -6c-140 0 -227 99 -227 230c0 125 83 232 225 232c100 -1 173 -61 173 -145
c0 -93 -80 -126 -188 -126c-66 0 -107 3 -147 9c12 -90 80 -143 165 -143c57 0 99 18 132 51zM271 395c-94 0 -153 -65 -162 -153c44 -6 88 -9 142 -9c85 0 135 17 135 76c0 51 -48 86 -115 86z" />
    <glyph glyph-name="g.ss01" horiz-adv-x="456" 
d="M311 33c78 -5 134 -37 134 -112c0 -87 -93 -151 -207 -151c-137 0 -200 72 -200 148c0 40 16 81 48 108c-17 17 -27 39 -27 68c0 33 15 60 40 80c-26 30 -40 69 -40 110c0 91 66 167 176 167c67 0 135 -10 202 -10v-44l-77 -2c33 -30 51 -68 51 -111
c0 -90 -65 -167 -176 -167c-38 0 -71 9 -97 25c-14 -11 -20 -26 -20 -42c0 -31 26 -56 78 -60zM235 395c-75 0 -115 -51 -115 -111c0 -59 40 -110 115 -110c76 0 115 51 115 110c0 60 -39 111 -115 111zM238 -174c73 0 146 38 146 93c0 35 -29 55 -79 58l-107 7
c-23 1 -45 6 -66 13c-21 -19 -33 -42 -33 -77c0 -47 41 -94 139 -94z" />
    <glyph glyph-name="gbreve.ss01" horiz-adv-x="456" 
d="M236 528c-59 0 -107 36 -122 106l46 11c9 -41 43 -64 78 -64c33 0 65 25 73 64l46 -11c-14 -70 -63 -106 -121 -106zM311 33c78 -5 134 -37 134 -112c0 -87 -93 -151 -207 -151c-137 0 -200 72 -200 148c0 39 16 81 48 108c-17 17 -27 39 -27 68c0 33 15 60 40 80
c-26 30 -40 68 -40 110c0 91 66 167 176 167c67 0 135 -10 202 -10v-44l-77 -2c33 -29 51 -68 51 -111c0 -90 -65 -167 -176 -167c-38 0 -71 9 -97 25c-14 -11 -20 -26 -20 -42c0 -31 26 -56 78 -60zM235 395c-75 0 -115 -51 -115 -111c0 -59 40 -110 115 -110
c76 0 115 51 115 110c0 60 -39 111 -115 111zM238 -174c73 0 146 38 146 93c0 35 -29 55 -79 58l-107 7c-23 1 -45 5 -65 13c-23 -19 -34 -42 -34 -77c0 -47 41 -94 139 -94z" />
    <glyph glyph-name="gcircumflex.ss01" horiz-adv-x="456" 
d="M235 600l-98 -76l-28 35l118 102h14l116 -103l-26 -34zM311 33c78 -5 134 -37 134 -112c0 -87 -93 -151 -207 -151c-137 0 -200 72 -200 148c0 39 16 81 48 108c-17 17 -27 39 -27 68c0 33 15 60 40 80c-26 30 -40 68 -40 110c0 91 66 167 176 167c67 0 135 -10 202 -10
v-44l-77 -2c33 -29 51 -68 51 -111c0 -90 -65 -167 -176 -167c-38 0 -71 9 -97 25c-14 -11 -20 -26 -20 -42c0 -31 26 -56 78 -60zM235 395c-75 0 -115 -51 -115 -111c0 -59 40 -110 115 -110c76 0 115 51 115 110c0 60 -39 111 -115 111zM238 -174c73 0 146 38 146 93
c0 35 -29 55 -79 58l-107 7c-23 1 -45 5 -65 13c-23 -19 -34 -42 -34 -77c0 -47 41 -94 139 -94z" />
    <glyph glyph-name="uni0123.ss01" horiz-adv-x="456" 
d="M297 712c-19 -49 -32 -107 -32 -171h-67c6 67 23 125 51 171h48zM311 33c78 -5 134 -37 134 -112c0 -87 -93 -151 -207 -151c-137 0 -200 72 -200 148c0 39 16 81 48 108c-17 17 -27 39 -27 68c0 33 15 60 40 80c-26 30 -40 68 -40 110c0 91 66 167 176 167
c67 0 135 -10 202 -10v-44l-77 -2c33 -29 51 -68 51 -111c0 -90 -65 -167 -176 -167c-38 0 -71 9 -97 25c-14 -11 -20 -26 -20 -42c0 -31 26 -56 78 -60zM235 395c-75 0 -115 -51 -115 -111c0 -59 40 -110 115 -110c76 0 115 51 115 110c0 60 -39 111 -115 111zM238 -174
c73 0 146 38 146 93c0 35 -29 55 -79 58l-107 7c-23 1 -45 5 -65 13c-23 -19 -34 -42 -34 -77c0 -47 41 -94 139 -94z" />
    <glyph glyph-name="gdotaccent.ss01" horiz-adv-x="456" 
d="M235 556c-29 0 -47 21 -47 46c0 27 18 48 47 48s48 -21 48 -49c0 -25 -20 -45 -48 -45zM311 33c78 -5 134 -37 134 -112c0 -87 -93 -151 -207 -151c-137 0 -200 72 -200 148c0 40 16 81 48 108c-17 17 -27 39 -27 68c0 33 15 60 40 80c-26 30 -40 69 -40 110
c0 91 66 167 176 167c67 0 135 -10 202 -10v-44l-77 -2c33 -30 51 -68 51 -111c0 -90 -65 -167 -176 -167c-38 0 -71 9 -97 25c-14 -11 -20 -26 -20 -42c0 -31 26 -56 78 -60zM235 395c-75 0 -115 -51 -115 -111c0 -59 40 -110 115 -110c76 0 115 51 115 110
c0 60 -39 111 -115 111zM238 -174c73 0 146 38 146 93c0 35 -29 55 -79 58l-107 7c-23 1 -45 6 -66 13c-21 -19 -33 -42 -33 -77c0 -47 41 -94 139 -94z" />
    <glyph glyph-name="y.ss01" horiz-adv-x="520" 
d="M381 442h61v-477c0 -138 -99 -195 -191 -195c-78 0 -133 26 -177 79l40 41c36 -42 78 -63 137 -63c66 0 130 44 130 140v108c-25 -46 -74 -83 -150 -83c-104 0 -159 71 -159 177v273h61v-278c0 -66 33 -115 106 -115c88 0 142 74 142 176v217z" />
    <glyph glyph-name="yacute.ss01" horiz-adv-x="520" 
d="M343 639l-141 -102l-31 36l132 113zM381 442h61v-477c0 -138 -99 -195 -191 -195c-78 0 -133 26 -177 79l40 41c36 -42 78 -63 137 -63c66 0 130 44 130 140v108c-26 -46 -74 -83 -150 -83c-104 0 -159 71 -159 177v273h61v-278c0 -66 33 -115 106 -115
c88 0 142 74 142 176v217z" />
    <glyph glyph-name="ycircumflex.ss01" horiz-adv-x="520" 
d="M256 600l-98 -76l-28 35l118 102h14l116 -103l-26 -34zM381 442h61v-477c0 -138 -99 -195 -191 -195c-78 0 -133 26 -177 79l40 41c36 -42 78 -63 137 -63c66 0 130 44 130 140v108c-26 -46 -74 -83 -150 -83c-104 0 -159 71 -159 177v273h61v-278
c0 -66 33 -115 106 -115c88 0 142 74 142 176v217z" />
    <glyph glyph-name="ydieresis.ss01" horiz-adv-x="520" 
d="M169 561c-27 0 -44 20 -44 42s15 45 44 45c28 0 44 -22 44 -43s-15 -44 -44 -44zM341 561c-28 0 -43 22 -43 43s15 44 43 44c29 0 44 -23 44 -44s-16 -43 -44 -43zM381 442h61v-477c0 -138 -99 -195 -191 -195c-78 0 -133 26 -177 79l40 41c36 -42 78 -63 137 -63
c66 0 130 44 130 140v108c-25 -46 -74 -83 -150 -83c-104 0 -159 71 -159 177v273h61v-278c0 -66 33 -115 106 -115c88 0 142 74 142 176v217z" />
    <glyph glyph-name="ygrave.ss01" horiz-adv-x="520" 
d="M301 537l-142 101l42 48l131 -113zM381 442h61v-477c0 -138 -99 -195 -191 -195c-78 0 -133 26 -177 79l40 41c36 -42 78 -63 137 -63c66 0 130 44 130 140v108c-25 -46 -74 -83 -150 -83c-104 0 -159 71 -159 177v273h61v-278c0 -66 33 -115 106 -115
c88 0 142 74 142 176v217z" />
    <glyph glyph-name="f_b" horiz-adv-x="904" 
d="M636 451c130 0 222 -97 222 -228c0 -135 -91 -233 -222 -233c-77 0 -138 34 -174 89l-9 -79h-47v631c-40 27 -74 41 -125 41c-69 0 -110 -37 -110 -118v-112h145v-54h-145v-388h-61v388h-92v54h92v114c0 97 51 173 164 173c56 0 97 -16 137 -45l7 33h49v-230
c0 -42 -1 -82 -2 -120c36 52 99 84 171 84zM632 48c98 0 165 72 165 173s-67 173 -165 173c-100 0 -167 -73 -167 -173s65 -173 167 -173z" />
    <glyph glyph-name="f_f_b" horiz-adv-x="1241" 
d="M973 451c130 0 222 -97 222 -228c0 -135 -91 -233 -222 -233c-77 0 -139 35 -174 91l-9 -81h-47v630c-43 28 -79 42 -134 42c-69 0 -110 -37 -110 -118v-112h141v-54h-141v-388h-61v388h-267v-388h-61v388h-92v54h92v127c0 87 46 160 145 160c39 0 70 -7 103 -23l-19 -50
c-22 10 -45 16 -77 16c-56 0 -91 -35 -91 -103v-127h267v114c0 97 51 173 164 173c59 0 103 -16 146 -45l7 33h49v-230c0 -43 -1 -83 -2 -123c36 54 99 87 171 87zM969 48c98 0 165 72 165 173s-67 173 -165 173c-100 0 -167 -73 -167 -173s65 -173 167 -173z" />
    <glyph glyph-name="f_f_h" horiz-adv-x="1187" 
d="M952 451c105 0 164 -72 164 -176v-275h-61v278c0 66 -35 116 -109 116c-90 0 -142 -80 -142 -176v-218h-61v626c-45 31 -80 46 -134 46c-69 0 -110 -37 -110 -118v-112h141v-54h-141v-388h-61v388h-267v-388h-61v388h-92v54h92v127c0 87 46 160 145 160
c39 0 70 -7 103 -23l-19 -50c-20 9 -45 16 -77 16c-56 0 -91 -35 -91 -103v-127h267v114c0 97 51 173 164 173c59 0 103 -17 146 -49l8 37h48v-286c0 -23 0 -44 -1 -68c25 50 78 88 149 88z" />
    <glyph glyph-name="f_f_j" horiz-adv-x="882" 
d="M804 442v-469c0 -132 -37 -195 -173 -203l-8 54c100 8 120 51 120 146v418h-244v-388h-61v388h-267v-388h-61v388h-92v54h92v127c0 87 46 160 145 160c39 0 69 -7 103 -23l-19 -50c-22 10 -45 16 -77 16c-56 0 -91 -35 -91 -103v-127h267v111c0 104 54 176 170 176
c69 0 121 -26 173 -72l-33 -40c-41 34 -79 55 -133 55c-71 0 -116 -34 -116 -119v-111h305z" />
    <glyph glyph-name="f_f_k" horiz-adv-x="1099" 
d="M863 230l226 -225v-5h-76l-208 209h-1v-209h-61v630c-43 28 -82 42 -134 42c-69 0 -110 -37 -110 -118v-112h140v-54h-140v-388h-61v388h-267v-388h-61v388h-92v54h92v127c0 87 46 160 145 160c39 0 70 -7 103 -23l-19 -50c-22 10 -45 16 -77 16c-56 0 -91 -35 -91 -103
v-127h267v114c0 97 51 173 164 173c57 0 105 -16 146 -46l7 34h49v-469h2l189 194h74v-3z" />
    <glyph glyph-name="f_h" horiz-adv-x="850" 
d="M615 451c105 0 163 -72 163 -176v-275h-61v278c0 66 -35 116 -108 116c-90 0 -142 -80 -142 -176v-218h-61v631c-40 27 -74 41 -125 41c-69 0 -110 -37 -110 -118v-112h144v-54h-144v-388h-61v388h-92v54h92v114c0 97 51 173 164 173c56 0 97 -16 137 -45l7 33h49v-282
c0 -25 0 -47 -1 -72c25 51 77 88 149 88z" />
    <glyph glyph-name="f_j" horiz-adv-x="552" 
d="M474 442v-469c0 -132 -37 -195 -173 -203l-8 54c100 8 120 51 120 146v418h-242v-388h-61v388h-92v54h92v111c0 104 54 176 169 176c75 0 130 -27 181 -72l-31 -42c-41 35 -83 57 -142 57c-71 0 -116 -35 -116 -119v-111h303z" />
    <glyph glyph-name="f_k" horiz-adv-x="762" 
d="M522 228l230 -223v-5h-76l-209 205v-205h-61v631c-39 27 -73 41 -125 41c-70 0 -110 -38 -110 -118v-112h145v-54h-145v-388h-61v388h-92v54h92v114c0 96 50 173 164 173c57 0 98 -16 137 -45l7 33h49v-469l191 194h74v-3z" />
    <glyph glyph-name="ordfeminine" unicode="&#xaa;" horiz-adv-x="314" 
d="M129 449c-44 0 -75 27 -75 72c0 57 60 83 121 83c11 0 22 -1 33 -3v24c0 29 -19 44 -52 44c-26 0 -53 -8 -74 -20l-17 36c29 16 63 25 92 25c52 0 93 -25 93 -85v-170h-31l-8 37c-11 -20 -40 -43 -82 -43zM138 486c40 0 70 33 70 80c-9 2 -19 3 -30 3
c-38 0 -81 -13 -81 -48c0 -24 16 -35 41 -35zM57 350v40h193v-40h-193z" />
    <glyph glyph-name="ordmasculine" unicode="&#xba;" horiz-adv-x="324" 
d="M162 451c-76 0 -108 65 -108 130c0 64 32 129 108 129c77 0 108 -65 108 -129c0 -65 -31 -130 -108 -130zM162 493c45 0 64 48 64 88c0 41 -19 88 -64 88c-46 0 -63 -49 -63 -88c0 -40 17 -88 63 -88zM68 350v40h192v-40h-192z" />
    <glyph glyph-name="uni0410" unicode="&#x410;" horiz-adv-x="682" 
d="M352 685l316 -683v-2h-69l-72 156h-372l-72 -156h-69v2l316 683h22zM341 569c-13 -31 -24 -61 -38 -91l-121 -262h317l-120 262c-14 29 -26 59 -38 91z" />
    <glyph glyph-name="uni0411" unicode="&#x411;" horiz-adv-x="626" 
d="M100 0v680h414v-60h-348v-221h188c129 0 220 -86 220 -199c0 -114 -92 -200 -220 -200h-254zM166 60h188c93 0 155 53 155 140c0 86 -62 138 -155 138h-188v-278z" />
    <glyph glyph-name="uni0412" unicode="&#x412;" horiz-adv-x="633" 
d="M466 360c68 -29 113 -95 113 -171c0 -112 -88 -189 -207 -189h-272v680h254c108 0 194 -72 194 -176c0 -65 -33 -115 -82 -144zM166 620v-236h186c81 0 131 43 131 120c0 72 -58 116 -133 116h-184zM369 60c83 0 144 51 144 133c0 78 -58 131 -139 131h-208v-264h203z
" />
    <glyph glyph-name="uni0413" unicode="&#x413;" horiz-adv-x="524" 
d="M100 0v680h404v-60h-338v-620h-66z" />
    <glyph glyph-name="uni0403" unicode="&#x403;" horiz-adv-x="524" 
d="M260 763l-31 35l132 113l40 -47zM100 0v680h404v-60h-338v-620h-66z" />
    <glyph glyph-name="uni0490" unicode="&#x490;" horiz-adv-x="523" 
d="M100 0v680h342v152h60v-212h-336v-620h-66z" />
    <glyph glyph-name="uni0414" unicode="&#x414;" horiz-adv-x="693" 
d="M583 60h82v-212h-66v152h-529v-152h-65v212h78c40 78 66 169 78 282l36 338h386v-620zM224 326c-11 -101 -34 -188 -69 -266h363v560h-263z" />
    <glyph glyph-name="uni0415" unicode="&#x415;" horiz-adv-x="559" 
d="M166 60h349v-60h-415v680h406v-60h-340v-242h299v-59h-299v-259z" />
    <glyph glyph-name="uni0400" unicode="&#x400;" horiz-adv-x="559" 
d="M340 763l-142 100l42 48l131 -113zM166 60h349v-60h-415v680h406v-60h-340v-242h299v-59h-299v-259z" />
    <glyph glyph-name="uni0401" unicode="&#x401;" horiz-adv-x="559" 
d="M209 782c-28 0 -45 21 -45 44c0 22 15 46 45 46s46 -23 46 -44c0 -22 -16 -46 -46 -46zM400 782c-30 0 -46 23 -46 45c0 21 16 45 46 45s45 -24 45 -45c0 -22 -16 -45 -45 -45zM166 60h349v-60h-415v680h406v-60h-340v-242h299v-59h-299v-259z" />
    <glyph glyph-name="uni0416" unicode="&#x416;" horiz-adv-x="827" 
d="M504 342l313 -339v-3h-79l-292 315v-315h-65v315l-292 -315h-79v3l313 339l-304 336v2h77l285 -315v315h65v-315l285 315h76v-3z" />
    <glyph glyph-name="uni0417" unicode="&#x417;" horiz-adv-x="561" 
d="M274 -9c-105 0 -183 34 -243 93l35 45c48 -45 118 -78 208 -78c96 0 168 55 168 141c0 82 -64 132 -155 132h-98v60h96c79 0 124 52 124 121c0 77 -61 125 -154 125c-59 0 -116 -19 -167 -62l-33 46c64 56 131 76 199 76c131 0 221 -80 221 -182c0 -65 -35 -124 -92 -149
c79 -26 125 -91 125 -170c0 -110 -92 -198 -234 -198z" />
    <glyph glyph-name="uni0418" unicode="&#x418;" horiz-adv-x="764" 
d="M644 685h20v-685h-66v460c0 31 1 60 3 91c-24 -31 -48 -59 -74 -88l-407 -468h-20v685h66v-451c0 -33 -1 -67 -3 -100c25 31 52 63 81 95z" />
    <glyph glyph-name="uni0419" unicode="&#x419;" horiz-adv-x="764" 
d="M401 749c-68 0 -118 28 -147 82l41 29c22 -35 60 -59 106 -59c47 0 84 24 107 59l39 -29c-28 -54 -78 -82 -146 -82zM644 685h20v-685h-66v460c0 31 1 60 3 91c-24 -31 -48 -59 -74 -88l-407 -468h-20v685h66v-451c0 -33 -1 -67 -3 -100c25 31 52 63 81 95z" />
    <glyph glyph-name="uni040D" unicode="&#x40d;" horiz-adv-x="764" 
d="M467 798l-31 -35l-142 100l42 48zM644 685h20v-685h-66v460c0 31 1 60 3 91c-24 -31 -48 -59 -74 -88l-407 -468h-20v685h66v-451c0 -33 -1 -67 -3 -100c25 31 52 63 81 95z" />
    <glyph glyph-name="uni041A" unicode="&#x41a;" horiz-adv-x="583" 
d="M232 342l341 -339v-3h-83l-324 321v-321h-66v680h66v-321l307 321h81v-3z" />
    <glyph glyph-name="uni040C" unicode="&#x40c;" horiz-adv-x="583" 
d="M428 864l-141 -101l-31 35l132 113zM232 342l341 -339v-3h-83l-324 321v-321h-66v680h66v-321l307 321h81v-3z" />
    <glyph glyph-name="uni041B" unicode="&#x41b;" horiz-adv-x="707" 
d="M22 -5l-8 56c101 8 147 79 168 271l40 358h385v-680h-66v620h-264l-33 -300c-24 -218 -85 -315 -222 -325z" />
    <glyph glyph-name="uni041C" unicode="&#x41c;" horiz-adv-x="862" 
d="M706 686l97 -686h-64l-66 469c-3 21 -6 43 -7 67c-13 -22 -25 -42 -37 -61l-190 -307h-15l-191 309c-11 17 -23 37 -35 57c-2 -23 -6 -45 -9 -65l-65 -469h-65l97 686h20l213 -346c14 -22 28 -45 42 -72c14 27 28 50 42 73l214 345h19z" />
    <glyph glyph-name="uni041D" unicode="&#x41d;" horiz-adv-x="744" 
d="M100 0v680h66v-307h413v307h65v-680h-65v313h-413v-313h-66z" />
    <glyph glyph-name="uni041E" unicode="&#x41e;" horiz-adv-x="803" 
d="M401 -12c-201 0 -344 159 -344 353c0 202 143 351 344 351c204 0 345 -149 345 -351c0 -194 -141 -353 -345 -353zM401 49c167 0 279 131 279 292c0 168 -112 290 -279 290c-165 0 -278 -122 -278 -290c0 -161 113 -292 278 -292z" />
    <glyph glyph-name="uni041F" unicode="&#x41f;" horiz-adv-x="716" 
d="M100 0v680h516v-680h-66v620h-384v-620h-66z" />
    <glyph glyph-name="uni0420" unicode="&#x420;" horiz-adv-x="598" 
d="M100 0v680h251c142 0 214 -111 214 -207c0 -95 -68 -200 -218 -200h-181v-273h-66zM166 333h180c104 0 153 70 153 141c0 78 -59 146 -149 146h-184v-287z" />
    <glyph glyph-name="uni0421" unicode="&#x421;" horiz-adv-x="699" 
d="M402 -12c-205 0 -345 159 -345 353c0 201 143 351 345 351c107 0 184 -38 256 -111l-39 -40c-54 56 -120 90 -217 90c-164 0 -279 -125 -279 -290c0 -161 114 -292 279 -292c96 0 172 46 222 113l47 -37c-56 -81 -149 -137 -269 -137z" />
    <glyph glyph-name="uni0422" unicode="&#x422;" horiz-adv-x="530" 
d="M507 680v-60h-209v-620h-66v620h-209v60h484z" />
    <glyph glyph-name="uni0423" unicode="&#x423;" horiz-adv-x="612" 
d="M531 680h69l-228 -483c-71 -150 -125 -196 -260 -202l-4 58c98 2 139 40 181 115l-278 512h70l242 -442z" />
    <glyph glyph-name="uni040E" unicode="&#x40e;" horiz-adv-x="612" 
d="M310 749c-68 0 -118 28 -147 82l41 29c22 -35 60 -59 106 -59c47 0 84 24 107 59l39 -29c-28 -54 -78 -82 -146 -82zM531 680h69l-228 -483c-71 -150 -125 -196 -260 -202l-4 58c98 2 139 40 181 115l-278 512h70l242 -442z" />
    <glyph glyph-name="uni0424" unicode="&#x424;" horiz-adv-x="821" 
d="M774 350c0 -167 -126 -288 -332 -299v-103h-63v103c-204 11 -332 133 -332 299c0 167 128 288 332 299v103h63v-103c206 -11 332 -131 332 -299zM441 111c168 10 268 104 268 239s-100 229 -268 239v-478zM113 350c0 -135 99 -229 267 -239v478
c-168 -10 -267 -104 -267 -239z" />
    <glyph glyph-name="uni0425" unicode="&#x425;" horiz-adv-x="618" 
d="M20 0v2l251 351l-230 325v2h76l126 -177c22 -31 45 -65 67 -101c23 37 45 71 67 103l124 175h75v-2l-229 -325l251 -351v-2h-76l-146 207c-22 31 -45 63 -66 98c-23 -36 -44 -67 -67 -99l-147 -206h-76z" />
    <glyph glyph-name="uni0427" unicode="&#x427;" horiz-adv-x="644" 
d="M479 680h65v-680h-65v287c-59 -22 -120 -34 -179 -34c-147 0 -241 61 -241 218v209h66v-206c0 -119 61 -161 174 -161c58 0 122 14 180 39v328z" />
    <glyph glyph-name="uni0426" unicode="&#x426;" horiz-adv-x="731" 
d="M613 60h90v-212h-66v152h-537v680h66v-620h381v620h66v-620z" />
    <glyph glyph-name="uni0428" unicode="&#x428;" horiz-adv-x="1014" 
d="M848 680h66v-680h-814v680h66v-620h308v620h66v-620h308v620z" />
    <glyph glyph-name="uni0429" unicode="&#x429;" horiz-adv-x="1032" 
d="M914 60h90v-212h-66v152h-838v680h66v-620h308v620h66v-620h308v620h66v-620z" />
    <glyph glyph-name="uni040F" unicode="&#x40f;" horiz-adv-x="713" 
d="M613 680v-680h-224v-152h-66v152h-223v680h66v-620h381v620h66z" />
    <glyph glyph-name="uni042C" unicode="&#x42c;" horiz-adv-x="600" 
d="M354 399c121 0 212 -86 212 -199s-92 -200 -212 -200h-254v680h66v-281h188zM354 60c85 0 146 53 146 140s-61 139 -146 139h-188v-279h188z" />
    <glyph glyph-name="uni042A" unicode="&#x42a;" horiz-adv-x="709" 
d="M463 399c121 0 212 -86 212 -199s-92 -200 -212 -200h-254v620h-187v60h252v-281h189zM463 60c84 0 146 53 146 140s-61 139 -146 139h-189v-279h189z" />
    <glyph glyph-name="uni042B" unicode="&#x42b;" horiz-adv-x="862" 
d="M100 0v680h66v-281h188c121 0 212 -86 212 -199s-92 -200 -212 -200h-254zM696 0v680h66v-680h-66zM166 60h188c85 0 146 53 146 140s-61 139 -146 139h-188v-279z" />
    <glyph glyph-name="uni0409" unicode="&#x409;" horiz-adv-x="983" 
d="M737 399c121 0 212 -86 212 -199s-92 -200 -212 -200h-226v620h-233l-33 -297c-24 -220 -94 -327 -227 -328l-4 57c89 0 144 92 167 290l38 338h357v-281h161zM737 60c85 0 146 53 146 140s-61 139 -146 139h-161v-279h161z" />
    <glyph glyph-name="uni040A" unicode="&#x40a;" horiz-adv-x="1004" 
d="M760 383c122 0 210 -83 210 -192s-88 -191 -210 -191h-228v322h-366v-322h-66v680h66v-297h366v297h66v-297h162zM760 60c84 0 145 58 145 131c0 74 -61 131 -145 131h-162v-262h162z" />
    <glyph glyph-name="uni0405" unicode="&#x405;" horiz-adv-x="567" 
d="M291 -12c-92 0 -176 33 -234 82l34 52c51 -46 122 -73 200 -73c85 0 159 45 159 126c0 84 -78 117 -167 148c-100 35 -207 85 -207 199c0 107 98 170 208 170c76 0 141 -20 206 -68l-30 -50c-55 39 -109 57 -173 57c-73 0 -144 -35 -144 -106c0 -83 82 -113 164 -142
c112 -40 209 -90 209 -205c0 -119 -100 -190 -225 -190z" />
    <glyph glyph-name="uni0404" unicode="&#x404;" horiz-adv-x="701" 
d="M634 158l39 -43c-63 -67 -145 -125 -271 -125c-203 0 -345 158 -345 351c0 201 143 349 345 349c113 0 191 -42 255 -110l-40 -39c-61 59 -120 89 -212 89c-159 0 -268 -110 -281 -260h314v-60h-314c14 -146 123 -260 278 -260c97 0 174 46 232 108z" />
    <glyph glyph-name="uni042D" unicode="&#x42d;" horiz-adv-x="701" 
d="M299 690c202 0 345 -148 345 -349c0 -193 -142 -351 -345 -351c-125 0 -208 58 -271 125l39 43c58 -62 135 -108 232 -108c155 0 264 114 278 260h-326v60h326c-13 150 -122 260 -278 260c-95 0 -156 -32 -215 -88l-38 40c59 63 144 108 253 108z" />
    <glyph glyph-name="uni0406" unicode="&#x406;" horiz-adv-x="266" 
d="M100 0v680h66v-680h-66z" />
    <glyph glyph-name="uni0407" unicode="&#x407;" horiz-adv-x="266" 
d="M37 773c-28 0 -45 21 -45 44c0 22 15 46 45 46c29 0 46 -23 46 -45c0 -21 -16 -45 -46 -45zM228 773c-30 0 -46 23 -46 44c0 22 16 46 46 46s45 -24 45 -46c0 -21 -16 -44 -45 -44zM100 0v680h66v-680h-66z" />
    <glyph glyph-name="uni0408" unicode="&#x408;" horiz-adv-x="507" 
d="M204 -12c-69 0 -129 20 -186 62l33 53c46 -37 96 -54 153 -54c93 0 145 57 145 163v468h65v-469c0 -144 -74 -223 -210 -223z" />
    <glyph glyph-name="uni040B" unicode="&#x40b;" horiz-adv-x="699" 
d="M431 423c124 0 196 -70 196 -180v-243h-66v244c0 73 -48 119 -135 119c-51 0 -100 -11 -140 -27v-336h-66v620h-197v60h490v-60h-227v-219c44 14 94 22 145 22z" />
    <glyph glyph-name="uni042E" unicode="&#x42e;" horiz-adv-x="1034" 
d="M633 690c203 0 344 -148 344 -349c0 -193 -141 -351 -344 -351c-192 0 -330 142 -344 322h-123v-312h-66v680h66v-308h123c14 185 153 318 344 318zM633 50c166 0 278 131 278 291c0 167 -112 289 -278 289s-279 -122 -279 -289c0 -160 113 -291 279 -291z" />
    <glyph glyph-name="uni042F" unicode="&#x42f;" horiz-adv-x="634" 
d="M274 680h260v-680h-66v283h-171l-195 -283h-75v3l195 285c-103 19 -169 95 -169 194c0 115 88 198 221 198zM468 344v276h-194c-93 0 -154 -53 -154 -138s61 -138 154 -138h194z" />
    <glyph glyph-name="uni0402" unicode="&#x402;" horiz-adv-x="697" 
d="M423 422c135 0 211 -71 211 -214c0 -70 -40 -186 -160 -218l-17 55c89 32 112 103 112 172c0 98 -47 144 -145 144c-57 0 -100 -10 -138 -26v-335h-66v620h-197v60h490v-60h-227v-223c41 16 87 25 137 25z" />
    <glyph glyph-name="uni0414.loclBGR" horiz-adv-x="736" 
d="M657 60h69v-212h-65v152h-586v-152h-65v212h69l278 620h22zM368 562c-5 -18 -14 -37 -20 -51l-199 -451h436l-197 451c-6 14 -15 33 -20 51z" />
    <glyph glyph-name="uni041B.loclBGR" horiz-adv-x="682" 
d="M352 685l316 -683v-2h-70l-234 509c-10 23 -17 41 -23 63c-7 -22 -14 -40 -24 -63l-234 -509h-69v2l316 683h22z" />
    <glyph glyph-name="uni0424.loclBGR" horiz-adv-x="871" 
d="M814 340c0 -191 -126 -345 -346 -350v-102h-65v102c-210 4 -346 160 -346 350c0 191 125 343 346 350v102h65v-102c210 -4 346 -160 346 -350zM467 50c186 5 281 132 281 290c0 155 -103 286 -281 290v-580zM123 340c0 -155 103 -287 282 -290v580
c-187 -6 -282 -131 -282 -290z" />
    <glyph glyph-name="uni0414.ss02" horiz-adv-x="736" 
d="M657 60h69v-212h-65v152h-586v-152h-65v212h69l278 620h22zM368 562c-5 -18 -14 -37 -20 -51l-199 -451h436l-197 451c-6 14 -15 33 -20 51z" />
    <glyph glyph-name="uni041B.ss02" horiz-adv-x="682" 
d="M352 685l316 -683v-2h-70l-234 509c-10 23 -17 41 -23 63c-7 -22 -14 -40 -24 -63l-234 -509h-69v2l316 683h22z" />
    <glyph glyph-name="uni0424.ss02" horiz-adv-x="871" 
d="M814 340c0 -191 -126 -345 -346 -350v-102h-65v102c-210 4 -346 160 -346 350c0 191 125 343 346 350v102h65v-102c210 -4 346 -160 346 -350zM467 50c186 5 281 132 281 290c0 155 -103 286 -281 290v-580zM123 340c0 -155 103 -287 282 -290v580
c-187 -6 -282 -131 -282 -290z" />
    <glyph glyph-name="uni0414.ss03" horiz-adv-x="736" 
d="M657 60h69v-212h-65v152h-586v-152h-65v212h69l278 620h22zM368 562c-5 -18 -14 -37 -20 -51l-199 -451h436l-197 451c-6 14 -15 33 -20 51z" />
    <glyph glyph-name="uni041B.ss03" horiz-adv-x="682" 
d="M352 685l316 -683v-2h-70l-234 509c-10 23 -17 41 -23 63c-7 -22 -14 -40 -24 -63l-234 -509h-69v2l316 683h22z" />
    <glyph glyph-name="uni0424.ss03" horiz-adv-x="871" 
d="M814 340c0 -191 -126 -345 -346 -350v-102h-65v102c-210 4 -346 160 -346 350c0 191 125 343 346 350v102h65v-102c210 -4 346 -160 346 -350zM467 50c186 5 281 132 281 290c0 155 -103 286 -281 290v-580zM123 340c0 -155 103 -287 282 -290v580
c-187 -6 -282 -131 -282 -290z" />
    <glyph glyph-name="uni0430" unicode="&#x430;" horiz-adv-x="479" 
d="M239 447c101 0 168 -53 168 -153v-294h-45l-11 80c-32 -53 -89 -88 -167 -88c-86 0 -141 47 -141 123c0 99 91 156 221 156c33 0 58 -1 81 -4v30c0 62 -44 93 -112 93c-48 0 -97 -14 -146 -37l-21 52c60 28 117 42 173 42zM194 49c91 0 148 66 151 167c-24 3 -43 4 -72 4
c-104 0 -166 -36 -166 -101c0 -44 32 -70 87 -70z" />
    <glyph glyph-name="uni0431" unicode="&#x431;" horiz-adv-x="559" 
d="M300 447c111 0 215 -78 215 -226c0 -152 -101 -230 -226 -230c-126 0 -226 85 -226 274v58c0 109 35 226 130 290c96 64 171 56 244 104l25 -55c-80 -51 -155 -46 -236 -98c-59 -37 -95 -114 -103 -209c45 65 110 92 177 92zM289 48c107 0 165 76 165 173
c0 95 -61 169 -162 169c-95 0 -164 -72 -164 -170c0 -108 69 -172 161 -172z" />
    <glyph glyph-name="uni0432" unicode="&#x432;" horiz-adv-x="474" 
d="M346 227c50 -14 82 -50 82 -106c0 -77 -57 -121 -143 -121h-207v442h190c85 0 139 -46 139 -117c0 -49 -23 -80 -61 -98zM267 387h-128v-135h128c55 0 79 31 79 68c0 36 -24 67 -79 67zM284 55c57 0 83 30 83 71c0 40 -26 71 -83 71h-145v-142h145z" />
    <glyph glyph-name="uni0433" unicode="&#x433;" horiz-adv-x="388" 
d="M78 0v442h286v-56h-225v-386h-61z" />
    <glyph glyph-name="uni0453" unicode="&#x453;" horiz-adv-x="388" 
d="M174 537l-31 36l132 113l40 -47zM78 0v442h286v-56h-225v-386h-61z" />
    <glyph glyph-name="uni0491" unicode="&#x491;" horiz-adv-x="388" 
d="M78 0v442h229v113h57v-169h-225v-386h-61z" />
    <glyph glyph-name="uni0434" unicode="&#x434;" horiz-adv-x="515" 
d="M431 56h63v-173h-59v117h-359v-117h-59v173h58c28 45 36 86 42 149l23 237h291v-386zM195 385l-19 -190c-6 -60 -13 -98 -34 -139h228v329h-175z" />
    <glyph glyph-name="uni0435" unicode="&#x435;" horiz-adv-x="505" 
d="M269 453c123 0 196 -85 196 -214c0 -14 -1 -28 -3 -43h-354c10 -94 82 -150 165 -150c62 0 101 19 135 54l35 -44c-45 -43 -99 -67 -169 -67c-134 0 -228 96 -228 233c0 128 92 231 223 231zM268 396c-82 0 -146 -58 -158 -146h295c-2 94 -56 146 -137 146z" />
    <glyph glyph-name="uni0450" unicode="&#x450;" horiz-adv-x="505" 
d="M305 537l-142 101l42 48l131 -113zM269 453c123 0 196 -85 196 -214c0 -14 -1 -28 -3 -43h-354c10 -94 82 -150 165 -150c62 0 101 19 135 54l35 -44c-45 -43 -99 -67 -169 -67c-134 0 -228 96 -228 233c0 128 92 231 223 231zM268 396c-82 0 -146 -58 -158 -146h295
c-2 94 -56 146 -137 146z" />
    <glyph glyph-name="uni0451" unicode="&#x451;" horiz-adv-x="505" 
d="M173 561c-27 0 -44 20 -44 42s15 45 44 45c28 0 44 -22 44 -43s-15 -44 -44 -44zM345 561c-28 0 -43 22 -43 43s15 44 43 44c29 0 44 -23 44 -44s-16 -43 -44 -43zM269 453c123 0 196 -85 196 -214c0 -14 -1 -28 -3 -43h-354c10 -94 82 -150 165 -150c62 0 101 19 135 54
l35 -44c-45 -43 -99 -67 -169 -67c-134 0 -228 96 -228 233c0 128 92 231 223 231zM268 396c-82 0 -146 -58 -158 -146h295c-2 94 -56 146 -137 146z" />
    <glyph glyph-name="uni0436" unicode="&#x436;" horiz-adv-x="608" 
d="M390 230l208 -225v-5h-71l-192 208v-208h-61v209l-193 -209h-71v5l208 225l-186 209v3h73l169 -195v195h61v-195l168 195h73v-3z" />
    <glyph glyph-name="uni0437" unicode="&#x437;" horiz-adv-x="412" 
d="M197 -8c-69 0 -123 20 -169 51l28 49c46 -32 93 -43 140 -43c76 0 109 36 109 80c0 42 -28 73 -92 73h-92v56h89c48 0 74 26 74 64c0 35 -28 68 -94 68c-42 0 -83 -13 -118 -32l-23 50c48 26 95 39 145 39c84 0 151 -44 151 -122c0 -38 -21 -76 -61 -91
c55 -15 82 -59 82 -108c0 -83 -69 -134 -169 -134z" />
    <glyph glyph-name="uni0438" unicode="&#x438;" horiz-adv-x="527" 
d="M427 442h22v-442h-61v270c0 17 0 34 1 51c-13 -17 -27 -34 -42 -50l-247 -271h-22v442h61v-262c0 -20 -1 -40 -2 -59c16 20 33 39 50 58z" />
    <glyph glyph-name="uni0439" unicode="&#x439;" horiz-adv-x="527" 
d="M267 535c-55 0 -100 24 -127 72l37 28c20 -31 53 -51 90 -51c36 0 69 20 90 51l36 -28c-26 -48 -71 -72 -126 -72zM427 442h22v-442h-61v270c0 17 0 34 1 51c-13 -17 -27 -34 -42 -50l-247 -271h-22v442h61v-262c0 -20 -1 -40 -2 -59c16 20 33 39 50 58z" />
    <glyph glyph-name="uni045D" unicode="&#x45d;" horiz-adv-x="527" 
d="M335 579l-30 -35l-143 101l42 47zM427 442h22v-442h-61v270c0 17 0 34 1 51c-13 -17 -27 -34 -42 -50l-247 -271h-22v442h61v-262c0 -20 -1 -40 -2 -59c16 20 33 39 50 58z" />
    <glyph glyph-name="uni043A" unicode="&#x43a;" horiz-adv-x="434" 
d="M194 228l230 -223v-5h-76l-209 205v-205h-61v442h61v-194l191 194h74v-3z" />
    <glyph glyph-name="uni045C" unicode="&#x45c;" horiz-adv-x="434" 
d="M347 639l-141 -102l-31 36l132 113zM194 228l230 -223v-5h-76l-209 205v-205h-61v442h61v-194l191 194h74v-3z" />
    <glyph glyph-name="uni043B" unicode="&#x43b;" horiz-adv-x="508" 
d="M15 -6l-7 55c83 9 109 62 117 160l19 233h286v-442h-61v385h-170l-14 -171c-11 -146 -55 -205 -170 -220z" />
    <glyph glyph-name="uni043C" unicode="&#x43c;" horiz-adv-x="618" 
d="M518 442l42 -442h-61l-25 261c-2 19 -4 37 -5 54c-12 -18 -26 -35 -40 -54l-113 -149h-15l-108 142c-16 21 -32 42 -46 62c-1 -21 -3 -40 -5 -61l-24 -255h-60l41 442h19l163 -210c9 -12 19 -24 28 -38c9 14 19 26 28 38l162 210h19z" />
    <glyph glyph-name="uni043D" unicode="&#x43d;" horiz-adv-x="524" 
d="M385 442h61v-442h-61v195h-246v-195h-61v442h61v-191h246v191z" />
    <glyph glyph-name="uni043E" unicode="&#x43e;" horiz-adv-x="550" 
d="M274 -11c-133 0 -228 96 -228 232s95 232 228 232c135 0 230 -96 230 -232s-95 -232 -230 -232zM274 46c99 0 168 72 168 175c0 102 -68 175 -168 175c-98 0 -166 -73 -166 -175c0 -103 68 -175 166 -175z" />
    <glyph glyph-name="uni043F" unicode="&#x43f;" horiz-adv-x="523" 
d="M78 0v442h367v-442h-61v386h-245v-386h-61z" />
    <glyph glyph-name="uni0440" unicode="&#x440;" horiz-adv-x="575" 
d="M310 451c126 0 218 -96 218 -228c0 -136 -92 -233 -219 -233c-73 0 -135 33 -172 83c1 -34 2 -75 2 -119v-174h-61v662h46l13 -74c38 51 98 83 173 83zM305 47c95 0 162 72 162 173c0 102 -67 174 -162 174c-99 0 -169 -70 -169 -171c0 -105 71 -176 169 -176z" />
    <glyph glyph-name="uni0441" unicode="&#x441;" horiz-adv-x="460" 
d="M266 -11c-110 0 -220 81 -220 233c0 146 106 230 226 230c64 0 113 -20 158 -60l-35 -42c-36 31 -71 45 -123 45c-92 0 -164 -69 -164 -173c0 -106 71 -176 163 -176c60 0 96 19 132 53l34 -44c-46 -43 -94 -66 -171 -66z" />
    <glyph glyph-name="uni0442" unicode="&#x442;" horiz-adv-x="384" 
d="M161 0v386h-141v56h344v-56h-142v-386h-61z" />
    <glyph glyph-name="uni0443" unicode="&#x443;" horiz-adv-x="461" 
d="M383 442h64v-2l-189 -462c-45 -111 -89 -179 -200 -201l-12 51c92 17 122 77 158 165l6 14l-194 433v2h64l106 -242c18 -40 35 -81 53 -131c16 50 32 91 48 131z" />
    <glyph glyph-name="uni045E" unicode="&#x45e;" horiz-adv-x="461" 
d="M232 535c-55 0 -100 24 -127 72l37 28c20 -31 53 -51 90 -51c36 0 69 20 90 51l36 -28c-26 -48 -71 -72 -126 -72zM383 442h64v-2l-189 -462c-45 -111 -89 -179 -200 -201l-12 51c92 17 122 77 158 165l6 14l-194 433v2h64l106 -242c18 -40 35 -81 53 -131
c16 50 32 91 48 131z" />
    <glyph glyph-name="uni0444" unicode="&#x444;" horiz-adv-x="628" 
d="M582 221c0 -129 -93 -220 -238 -229v-212h-60v212c-149 9 -238 100 -238 229s89 221 238 230v245h60v-245c145 -9 238 -101 238 -230zM108 221c0 -100 66 -164 177 -172v345c-111 -8 -177 -73 -177 -173zM343 49c111 8 178 72 178 172s-67 165 -178 173v-345z" />
    <glyph glyph-name="uni0445" unicode="&#x445;" horiz-adv-x="450" 
d="M26 0v2l164 231l-148 207v2h70l78 -111c12 -16 23 -33 35 -54c12 20 25 39 36 55l79 110h68v-2l-148 -207l164 -231v-2h-70l-91 129c-14 19 -25 36 -38 59c-14 -23 -25 -41 -39 -60l-92 -128h-68z" />
    <glyph glyph-name="uni0447" unicode="&#x447;" horiz-adv-x="461" 
d="M322 442h61v-442h-61v175c-36 -17 -77 -27 -119 -27c-106 0 -164 50 -164 154v140h61v-141c0 -69 37 -96 110 -96c44 0 78 7 112 26v211z" />
    <glyph glyph-name="uni0446" unicode="&#x446;" horiz-adv-x="528" 
d="M443 56h64v-173h-59v117h-370v442h61v-386h243v386h61v-386z" />
    <glyph glyph-name="uni0448" unicode="&#x448;" horiz-adv-x="726" 
d="M587 442h61v-442h-570v442h61v-386h193v386h61v-386h194v386z" />
    <glyph glyph-name="uni0449" unicode="&#x449;" horiz-adv-x="733" 
d="M648 56h63v-173h-59v117h-574v442h61v-386h193v386h61v-386h194v386h61v-386z" />
    <glyph glyph-name="uni045F" unicode="&#x45f;" horiz-adv-x="521" 
d="M443 442v-442h-153v-117h-59v117h-153v442h61v-386h243v386h61z" />
    <glyph glyph-name="uni044C" unicode="&#x44c;" horiz-adv-x="458" 
d="M262 284c100 0 163 -52 163 -142s-63 -142 -163 -142h-184v442h61v-158h123zM262 56c66 0 102 30 102 86s-36 86 -102 86h-123v-172h123z" />
    <glyph glyph-name="uni044A" unicode="&#x44a;" horiz-adv-x="515" 
d="M319 283c100 0 163 -51 163 -141s-63 -142 -163 -142h-184v386h-121v56h182v-159h123zM319 56c65 0 102 30 102 86s-37 86 -102 86h-123v-172h123z" />
    <glyph glyph-name="uni044B" unicode="&#x44b;" horiz-adv-x="650" 
d="M262 284c100 0 163 -52 163 -142s-63 -142 -163 -142h-184v442h61v-158h123zM511 442h61v-442h-61v442zM262 56c66 0 102 30 102 86s-36 86 -102 86h-123v-172h123z" />
    <glyph glyph-name="uni0459" unicode="&#x459;" horiz-adv-x="716" 
d="M532 264c91 0 151 -47 151 -132c0 -83 -60 -132 -151 -132h-174v385h-156l-15 -184c-10 -129 -68 -197 -172 -207l-7 51c70 5 112 64 121 171l19 226h271v-178h113zM531 56c56 0 91 25 91 76s-35 76 -91 76h-112v-152h112z" />
    <glyph glyph-name="uni045A" unicode="&#x45a;" horiz-adv-x="725" 
d="M540 264c92 0 151 -47 151 -132c0 -83 -60 -131 -151 -132h-173v208h-228v-208h-61v442h61v-178h228v178h61v-178h112zM540 56c56 0 90 25 90 76s-34 76 -90 76h-112v-152h112z" />
    <glyph glyph-name="uni0455" unicode="&#x455;" horiz-adv-x="396" 
d="M204 -8c-62 0 -114 17 -161 49l31 48c39 -28 81 -40 130 -40c54 0 89 27 89 67c0 43 -49 65 -102 86c-72 28 -132 62 -132 133c0 74 68 112 143 112c48 0 94 -14 134 -40l-27 -44c-32 18 -68 28 -104 28c-45 0 -85 -15 -85 -56c0 -40 41 -60 93 -80
c80 -30 141 -65 141 -139s-63 -124 -150 -124z" />
    <glyph glyph-name="uni0454" unicode="&#x454;" horiz-adv-x="458" 
d="M401 99l34 -44c-45 -42 -93 -65 -169 -65c-110 0 -220 81 -220 232c0 145 106 229 226 229c60 0 106 -20 149 -60l-36 -42c-34 32 -69 46 -115 46c-81 0 -147 -56 -160 -142h206v-56h-207c11 -92 77 -150 162 -150c60 0 96 20 130 52z" />
    <glyph glyph-name="uni044D" unicode="&#x44d;" horiz-adv-x="464" 
d="M193 451c120 0 225 -84 225 -227c0 -141 -98 -234 -227 -234c-68 0 -124 27 -168 72l37 44c38 -39 77 -59 131 -59c91 0 153 63 163 150h-209v56h209c-13 85 -80 141 -161 141c-51 0 -89 -18 -125 -52l-38 40c43 44 97 69 163 69z" />
    <glyph glyph-name="uni0456" unicode="&#x456;" horiz-adv-x="217" 
d="M109 558c-28 0 -46 20 -46 44c0 26 18 46 46 46s46 -20 46 -46c0 -25 -19 -44 -46 -44zM78 0v442h61v-442h-61z" />
    <glyph glyph-name="uni0457" unicode="&#x457;" horiz-adv-x="217" 
d="M35 558c-27 0 -45 19 -45 45c0 25 18 46 45 46c26 0 44 -21 44 -46s-18 -45 -44 -45zM181 558c-26 0 -44 20 -44 45s18 46 44 46c28 0 45 -21 45 -46s-17 -45 -45 -45zM78 0v442h61v-442h-61z" />
    <glyph glyph-name="uni0458" unicode="&#x458;" horiz-adv-x="220" 
d="M112 558c-27 0 -45 20 -45 44c0 26 18 46 45 46c29 0 46 -20 46 -47c0 -24 -19 -43 -46 -43zM-31 -230l-8 54c100 8 121 51 121 146v472h61v-469c0 -132 -38 -195 -174 -203z" />
    <glyph glyph-name="uni045B" unicode="&#x45b;" horiz-adv-x="522" 
d="M291 445c108 0 159 -70 159 -178v-267h-61v272c0 65 -29 116 -103 116c-95 0 -147 -81 -147 -177v-211h-61v553h-66v38h66v105h61v-105h171v-38h-171v-129c0 -22 0 -43 -1 -68c24 49 77 89 153 89z" />
    <glyph glyph-name="uni044E" unicode="&#x44e;" horiz-adv-x="738" 
d="M463 452c134 0 229 -96 229 -231s-95 -231 -229 -231c-125 0 -216 84 -228 205h-96v-195h-61v442h61v-191h97c13 119 103 201 227 201zM463 47c99 0 167 72 167 174c0 101 -68 174 -167 174s-167 -73 -167 -174c0 -102 68 -174 167 -174z" />
    <glyph glyph-name="uni044F" unicode="&#x44f;" horiz-adv-x="478" 
d="M219 442h181v-442h-61v170h-111l-127 -170h-70v5l131 172c-61 16 -99 60 -99 127c0 88 61 138 156 138zM220 223h119v164h-119c-68 0 -96 -33 -96 -83c0 -49 28 -81 96 -81z" />
    <glyph glyph-name="uni0452" unicode="&#x452;" horiz-adv-x="522" 
d="M291 445c107 0 159 -69 159 -178v-326c0 -114 -56 -171 -162 -171l-2 54c77 1 103 36 103 125v323c0 66 -31 116 -104 116c-94 0 -146 -81 -146 -177v-211h-61v553h-66v38h66v105h61v-105h166v-38h-166v-129c0 -22 0 -43 -1 -68c24 49 77 89 153 89z" />
    <glyph glyph-name="uni0432.loclBGR" horiz-adv-x="554" 
d="M365 385c90 -19 143 -92 143 -185c-1 -126 -88 -210 -224 -210c-125 0 -215 87 -215 268v144c0 205 96 304 236 304c105 0 167 -62 167 -151c0 -70 -35 -127 -107 -170zM303 647c-102 0 -170 -87 -170 -246v-48l109 34c112 35 165 88 165 163c0 60 -37 97 -104 97z
M288 48c91 0 154 59 154 151c0 79 -50 139 -132 139c-27 0 -53 -4 -78 -12l-99 -31v-40c0 -143 61 -207 155 -207z" />
    <glyph glyph-name="uni0433.loclBGR" horiz-adv-x="388" 
d="M192 -10c-77 0 -150 34 -150 121c0 72 51 113 136 140c75 25 97 45 97 81c0 41 -39 58 -80 58c-36 0 -75 -11 -108 -31l-25 50c38 24 88 38 136 38c76 0 137 -38 137 -113c0 -71 -44 -105 -137 -135c-58 -19 -94 -42 -94 -86c0 -48 44 -66 91 -66c44 0 83 13 121 41
l30 -48c-47 -35 -99 -50 -154 -50z" />
    <glyph glyph-name="uni0434.loclBGR" horiz-adv-x="576" 
d="M453 442h45v-471c0 -136 -101 -201 -218 -201c-86 0 -149 29 -200 79l38 43c43 -42 93 -65 159 -65c90 0 160 47 160 145c0 34 0 67 1 100c-41 -53 -105 -80 -170 -80c-136 0 -222 103 -222 229c0 127 84 230 219 230c72 0 135 -28 174 -82zM271 49c111 0 168 79 168 172
s-55 173 -167 173c-104 0 -164 -76 -164 -172c0 -98 63 -173 163 -173z" />
    <glyph glyph-name="uni0436.loclBGR" horiz-adv-x="608" 
d="M390 230l208 -225v-5h-71l-192 208v-208h-61v209l-193 -209h-71v5l208 225l-186 209v3h73l169 -195v449h61v-449l168 195h73v-3z" />
    <glyph glyph-name="uni0437.loclBGR" horiz-adv-x="401" 
d="M164 -230c-66 0 -125 19 -171 55l28 48c43 -33 87 -47 142 -47c99 0 159 52 159 139c0 88 -61 136 -153 136h-75v56h76c68 0 120 49 120 122c0 70 -46 112 -123 112c-44 0 -75 -10 -121 -35l-25 48c52 30 98 43 150 43c109 0 180 -62 180 -166c0 -68 -33 -120 -85 -148
c68 -20 117 -84 117 -170c0 -120 -83 -193 -219 -193z" />
    <glyph glyph-name="uni0438.loclBGR" horiz-adv-x="519" 
d="M380 442h61v-442h-47l-12 77c-26 -47 -76 -85 -149 -85c-110 0 -161 73 -161 181v269h61v-270c0 -72 28 -123 107 -123c88 0 140 79 140 173v220z" />
    <glyph glyph-name="uni0439.loclBGR" horiz-adv-x="519" 
d="M258 535c-55 0 -100 24 -127 72l37 28c20 -31 53 -51 90 -51c36 0 69 20 90 51l36 -28c-26 -48 -71 -72 -126 -72zM380 442h61v-442h-47l-12 77c-26 -47 -76 -85 -149 -85c-110 0 -161 73 -161 181v269h61v-270c0 -72 28 -123 107 -123c88 0 140 79 140 173v220z" />
    <glyph glyph-name="uni045D.loclBGR" horiz-adv-x="522" 
d="M295 544l-143 101l42 47l132 -113zM380 442h61v-442h-47l-12 77c-26 -47 -76 -85 -149 -85c-110 0 -161 73 -161 181v269h61v-270c0 -72 28 -123 107 -123c88 0 140 79 140 173v220z" />
    <glyph glyph-name="uni043A.loclBGR" horiz-adv-x="434" 
d="M195 230l229 -226v-4h-76l-209 207v-207h-61v696h61v-447l191 193h74v-3z" />
    <glyph glyph-name="uni043B.loclBGR" horiz-adv-x="460" 
d="M241 446l205 -444v-2h-66l-126 282c-8 19 -17 40 -24 63c-6 -23 -15 -44 -24 -63l-126 -282h-66v2l205 444h22z" />
    <glyph glyph-name="uni043F.loclBGR" horiz-adv-x="522" 
d="M293 451c103 0 157 -66 157 -181v-270h-61v271c0 75 -28 123 -102 123c-89 0 -148 -64 -148 -156v-238h-61v442h46l14 -75c26 47 80 84 155 84z" />
    <glyph glyph-name="uni0442.loclBGR" horiz-adv-x="800" 
d="M573 451c101 0 155 -67 155 -174v-277h-61v280c0 71 -36 114 -98 114c-89 0 -135 -81 -135 -164v-230h-61v281c0 61 -31 113 -98 113c-90 0 -136 -81 -136 -164v-230h-61v442h46l14 -76c29 54 80 85 144 85c67 0 116 -33 137 -89c29 54 80 89 154 89z" />
    <glyph glyph-name="uni0446.loclBGR" horiz-adv-x="527" 
d="M494 56h12v-173h-59v120c-36 8 -57 33 -62 76c-29 -51 -78 -87 -154 -87c-105 0 -159 71 -159 179v271h61v-275c0 -69 31 -118 104 -118c93 0 144 80 144 172v221h61v-336c0 -36 14 -50 52 -50z" />
    <glyph glyph-name="uni0448.loclBGR" horiz-adv-x="798" 
d="M659 442h61v-442h-47l-13 78c-29 -53 -80 -85 -144 -85c-67 0 -116 34 -137 91c-28 -55 -79 -91 -151 -91c-100 0 -156 66 -156 174v275h61v-279c0 -70 36 -113 98 -113c88 0 134 84 134 170v222h61v-279c0 -60 31 -113 98 -113c88 0 135 84 135 170v222z" />
    <glyph glyph-name="uni0449.loclBGR" horiz-adv-x="805" 
d="M772 57h12v-174h-59v121c-36 9 -57 34 -62 73c-29 -49 -78 -84 -144 -84c-70 0 -117 33 -140 91c-27 -55 -77 -91 -151 -91c-102 0 -156 69 -156 173v276h61v-279c0 -66 33 -113 98 -113c88 0 134 84 134 170v222h61v-279c0 -60 31 -113 98 -113c88 0 135 84 135 170v222
h61v-335c0 -36 14 -50 52 -50z" />
    <glyph glyph-name="uni044C.loclBGR" horiz-adv-x="468" 
d="M261 315c103 0 173 -64 173 -161c0 -98 -70 -162 -179 -162c-114 0 -183 63 -183 170v280h61v-173c31 29 75 46 128 46zM255 46c71 0 118 42 118 108c0 64 -47 105 -118 105c-77 0 -125 -41 -125 -103c0 -69 47 -110 125 -110z" />
    <glyph glyph-name="uni044A.loclBGR" horiz-adv-x="526" 
d="M318 315c101 0 174 -61 174 -160c0 -101 -72 -163 -179 -163c-115 0 -183 66 -183 168v226h-120v56h181v-172c31 30 75 45 127 45zM313 47c68 0 118 40 118 108c0 65 -49 104 -119 104s-122 -33 -122 -104c0 -68 47 -108 123 -108z" />
    <glyph glyph-name="uni044B.loclBGR" horiz-adv-x="669" 
d="M261 315c103 0 173 -64 173 -161c0 -98 -70 -162 -179 -162c-114 0 -183 63 -183 170v280h61v-173c31 29 75 46 128 46zM530 0v442h61v-442h-61zM255 46c71 0 118 42 118 108c0 64 -47 105 -118 105c-77 0 -125 -41 -125 -103c0 -69 47 -110 125 -110z" />
    <glyph glyph-name="uni0430.ss01" horiz-adv-x="576" 
d="M451 442h47v-442h-47l-9 76c-39 -54 -101 -86 -176 -86c-131 0 -220 98 -220 230c0 133 89 231 222 231c70 0 129 -28 170 -83zM272 48c101 0 168 72 168 172c0 102 -66 174 -168 174c-99 0 -165 -72 -165 -174c0 -101 67 -172 165 -172z" />
    <glyph glyph-name="uni0435.ss01" horiz-adv-x="482" 
d="M274 46c58 0 99 18 133 53l34 -42c-42 -43 -98 -68 -168 -68c-140 0 -227 99 -227 231c0 126 83 233 225 233c100 0 173 -61 173 -147c0 -92 -80 -125 -188 -125c-66 0 -106 3 -147 9c12 -90 80 -144 165 -144zM270 396c-94 0 -153 -65 -162 -154c44 -5 88 -9 142 -9
c85 0 135 17 135 76c0 51 -48 87 -115 87z" />
    <glyph glyph-name="uni0443.ss01" horiz-adv-x="520" 
d="M381 442h61v-477c0 -138 -99 -195 -191 -195c-78 0 -133 26 -177 79l40 41c36 -42 78 -63 137 -63c66 0 130 44 130 140v108c-25 -46 -74 -83 -150 -83c-104 0 -159 71 -159 177v273h61v-278c0 -66 33 -115 106 -115c88 0 142 74 142 176v217z" />
    <glyph glyph-name="uni0432.ss02" horiz-adv-x="554" 
d="M365 385c90 -19 143 -92 143 -185c-1 -126 -88 -210 -224 -210c-125 0 -215 87 -215 268v144c0 205 96 304 236 304c105 0 167 -62 167 -151c0 -70 -35 -127 -107 -170zM303 647c-102 0 -170 -87 -170 -246v-48l109 34c112 35 165 88 165 163c0 60 -37 97 -104 97z
M288 48c91 0 154 59 154 151c0 79 -50 139 -132 139c-27 0 -53 -4 -78 -12l-99 -31v-40c0 -143 61 -207 155 -207z" />
    <glyph glyph-name="uni0433.ss02" horiz-adv-x="388" 
d="M192 -10c-77 0 -150 34 -150 121c0 72 51 113 136 140c75 25 97 45 97 81c0 41 -39 58 -80 58c-36 0 -75 -11 -108 -31l-25 50c38 24 88 38 136 38c76 0 137 -38 137 -113c0 -71 -44 -105 -137 -135c-58 -19 -94 -42 -94 -86c0 -48 44 -66 91 -66c44 0 83 13 121 41
l30 -48c-47 -35 -99 -50 -154 -50z" />
    <glyph glyph-name="uni0434.ss02" horiz-adv-x="576" 
d="M453 442h45v-471c0 -136 -101 -201 -218 -201c-86 0 -149 29 -200 79l38 43c43 -42 93 -65 159 -65c90 0 160 47 160 145c0 34 0 67 1 100c-41 -53 -105 -80 -170 -80c-136 0 -222 103 -222 229c0 127 84 230 219 230c72 0 135 -28 174 -82zM271 49c111 0 168 79 168 172
s-55 173 -167 173c-104 0 -164 -76 -164 -172c0 -98 63 -173 163 -173z" />
    <glyph glyph-name="uni0436.ss02" horiz-adv-x="608" 
d="M390 230l208 -225v-5h-71l-192 208v-208h-61v209l-193 -209h-71v5l208 225l-186 209v3h73l169 -195v449h61v-449l168 195h73v-3z" />
    <glyph glyph-name="uni0437.ss02" horiz-adv-x="401" 
d="M164 -230c-66 0 -125 19 -171 55l28 48c43 -33 87 -47 142 -47c99 0 159 52 159 139c0 88 -61 136 -153 136h-75v56h76c68 0 120 49 120 122c0 70 -46 112 -123 112c-44 0 -75 -10 -121 -35l-25 48c52 30 98 43 150 43c109 0 180 -62 180 -166c0 -68 -33 -120 -85 -148
c68 -20 117 -84 117 -170c0 -120 -83 -193 -219 -193z" />
    <glyph glyph-name="uni0438.ss02" horiz-adv-x="519" 
d="M380 442h61v-442h-47l-12 77c-26 -47 -76 -85 -149 -85c-110 0 -161 73 -161 181v269h61v-270c0 -72 28 -123 107 -123c88 0 140 79 140 173v220z" />
    <glyph glyph-name="uni0439.ss02" horiz-adv-x="519" 
d="M258 535c-55 0 -100 24 -127 72l37 28c20 -31 53 -51 90 -51c36 0 69 20 90 51l36 -28c-26 -48 -71 -72 -126 -72zM380 442h61v-442h-47l-12 77c-26 -47 -76 -85 -149 -85c-110 0 -161 73 -161 181v269h61v-270c0 -72 28 -123 107 -123c88 0 140 79 140 173v220z" />
    <glyph glyph-name="uni045D.ss02" horiz-adv-x="519" 
d="M304 537l-142 101l42 48l131 -113zM380 442h61v-442h-47l-12 77c-26 -47 -76 -85 -149 -85c-110 0 -161 73 -161 181v269h61v-270c0 -72 28 -123 107 -123c88 0 140 79 140 173v220z" />
    <glyph glyph-name="uni043A.ss02" horiz-adv-x="434" 
d="M195 230l229 -226v-4h-76l-209 207v-207h-61v696h61v-447l191 193h74v-3z" />
    <glyph glyph-name="uni043B.ss02" horiz-adv-x="460" 
d="M241 446l205 -444v-2h-66l-126 282c-8 19 -17 40 -24 63c-6 -23 -15 -44 -24 -63l-126 -282h-66v2l205 444h22z" />
    <glyph glyph-name="uni043F.ss02" horiz-adv-x="522" 
d="M293 451c103 0 157 -66 157 -181v-270h-61v271c0 75 -28 123 -102 123c-89 0 -148 -64 -148 -156v-238h-61v442h46l14 -75c26 47 80 84 155 84z" />
    <glyph glyph-name="uni0442.ss02" horiz-adv-x="800" 
d="M573 451c101 0 155 -67 155 -174v-277h-61v280c0 71 -36 114 -98 114c-89 0 -135 -81 -135 -164v-230h-61v281c0 61 -31 113 -98 113c-90 0 -136 -81 -136 -164v-230h-61v442h46l14 -76c29 54 80 85 144 85c67 0 116 -33 137 -89c29 54 80 89 154 89z" />
    <glyph glyph-name="uni0446.ss02" horiz-adv-x="527" 
d="M494 56h12v-173h-59v120c-36 8 -57 33 -62 76c-29 -51 -78 -87 -154 -87c-105 0 -159 71 -159 179v271h61v-275c0 -69 31 -118 104 -118c93 0 144 80 144 172v221h61v-336c0 -36 14 -50 52 -50z" />
    <glyph glyph-name="uni0448.ss02" horiz-adv-x="798" 
d="M659 442h61v-442h-47l-13 78c-29 -53 -80 -85 -144 -85c-67 0 -116 34 -137 91c-28 -55 -79 -91 -151 -91c-100 0 -156 66 -156 174v275h61v-279c0 -70 36 -113 98 -113c88 0 134 84 134 170v222h61v-279c0 -60 31 -113 98 -113c88 0 135 84 135 170v222z" />
    <glyph glyph-name="uni0449.ss02" horiz-adv-x="805" 
d="M772 57h12v-174h-59v121c-36 9 -57 34 -62 73c-29 -49 -78 -84 -144 -84c-70 0 -117 33 -140 91c-27 -55 -77 -91 -151 -91c-102 0 -156 69 -156 173v276h61v-279c0 -66 33 -113 98 -113c88 0 134 84 134 170v222h61v-279c0 -60 31 -113 98 -113c88 0 135 84 135 170v222
h61v-335c0 -36 14 -50 52 -50z" />
    <glyph glyph-name="uni044C.ss02" horiz-adv-x="468" 
d="M261 315c103 0 173 -64 173 -161c0 -98 -70 -162 -179 -162c-114 0 -183 63 -183 170v280h61v-173c31 29 75 46 128 46zM255 46c71 0 118 42 118 108c0 64 -47 105 -118 105c-77 0 -125 -41 -125 -103c0 -69 47 -110 125 -110z" />
    <glyph glyph-name="uni044A.ss02" horiz-adv-x="526" 
d="M318 315c101 0 174 -61 174 -160c0 -101 -72 -163 -179 -163c-115 0 -183 66 -183 168v226h-120v56h181v-172c31 30 75 45 127 45zM313 47c68 0 118 40 118 108c0 65 -49 104 -119 104s-122 -33 -122 -104c0 -68 47 -108 123 -108z" />
    <glyph glyph-name="uni044B.ss02" horiz-adv-x="669" 
d="M261 315c103 0 173 -64 173 -161c0 -98 -70 -162 -179 -162c-114 0 -183 63 -183 170v280h61v-173c31 29 75 46 128 46zM530 0v442h61v-442h-61zM255 46c71 0 118 42 118 108c0 64 -47 105 -118 105c-77 0 -125 -41 -125 -103c0 -69 47 -110 125 -110z" />
    <glyph glyph-name="uni0430.ss03" horiz-adv-x="576" 
d="M451 442h47v-442h-47l-9 76c-39 -54 -101 -86 -176 -86c-131 0 -220 98 -220 230c0 133 89 231 222 231c70 0 129 -28 170 -83zM272 48c101 0 168 72 168 172c0 102 -66 174 -168 174c-99 0 -165 -72 -165 -174c0 -101 67 -172 165 -172z" />
    <glyph glyph-name="uni0432.ss03" horiz-adv-x="554" 
d="M365 385c90 -19 143 -92 143 -185c-1 -126 -88 -210 -224 -210c-125 0 -215 87 -215 268v144c0 205 96 304 236 304c105 0 167 -62 167 -151c0 -70 -35 -127 -107 -170zM303 647c-102 0 -170 -87 -170 -246v-48l109 34c112 35 165 88 165 163c0 60 -37 97 -104 97z
M288 48c91 0 154 59 154 151c0 79 -50 139 -132 139c-27 0 -53 -4 -78 -12l-99 -31v-40c0 -143 61 -207 155 -207z" />
    <glyph glyph-name="uni0433.ss03" horiz-adv-x="388" 
d="M192 -10c-77 0 -150 34 -150 121c0 72 51 113 136 140c75 25 97 45 97 81c0 41 -39 58 -80 58c-36 0 -75 -11 -108 -31l-25 50c38 24 88 38 136 38c76 0 137 -38 137 -113c0 -71 -44 -105 -137 -135c-58 -19 -94 -42 -94 -86c0 -48 44 -66 91 -66c44 0 83 13 121 41
l30 -48c-47 -35 -99 -50 -154 -50z" />
    <glyph glyph-name="uni0434.ss03" horiz-adv-x="576" 
d="M453 442h45v-471c0 -136 -101 -201 -218 -201c-86 0 -149 29 -200 79l38 43c43 -42 93 -65 159 -65c90 0 160 47 160 145c0 34 0 67 1 100c-41 -53 -105 -80 -170 -80c-136 0 -222 103 -222 229c0 127 84 230 219 230c72 0 135 -28 174 -82zM271 49c111 0 168 79 168 172
s-55 173 -167 173c-104 0 -164 -76 -164 -172c0 -98 63 -173 163 -173z" />
    <glyph glyph-name="uni0435.ss03" horiz-adv-x="482" 
d="M274 46c58 0 99 18 133 53l34 -42c-42 -43 -98 -68 -168 -68c-140 0 -227 99 -227 231c0 126 83 233 225 233c100 0 173 -61 173 -147c0 -92 -80 -125 -188 -125c-66 0 -106 3 -147 9c12 -90 80 -144 165 -144zM270 396c-94 0 -153 -65 -162 -154c44 -5 88 -9 142 -9
c85 0 135 17 135 76c0 51 -48 87 -115 87z" />
    <glyph glyph-name="uni0436.ss03" horiz-adv-x="608" 
d="M390 230l208 -225v-5h-71l-192 208v-208h-61v209l-193 -209h-71v5l208 225l-186 209v3h73l169 -195v449h61v-449l168 195h73v-3z" />
    <glyph glyph-name="uni0437.ss03" horiz-adv-x="401" 
d="M164 -230c-66 0 -125 19 -171 55l28 48c43 -33 87 -47 142 -47c99 0 159 52 159 139c0 88 -61 136 -153 136h-75v56h76c68 0 120 49 120 122c0 70 -46 112 -123 112c-44 0 -75 -10 -121 -35l-25 48c52 30 98 43 150 43c109 0 180 -62 180 -166c0 -68 -33 -120 -85 -148
c68 -20 117 -84 117 -170c0 -120 -83 -193 -219 -193z" />
    <glyph glyph-name="uni0438.ss03" horiz-adv-x="519" 
d="M380 442h61v-442h-47l-12 77c-26 -47 -76 -85 -149 -85c-110 0 -161 73 -161 181v269h61v-270c0 -72 28 -123 107 -123c88 0 140 79 140 173v220z" />
    <glyph glyph-name="uni0439.ss03" horiz-adv-x="519" 
d="M258 535c-55 0 -100 24 -127 72l37 28c20 -31 53 -51 90 -51c36 0 69 20 90 51l36 -28c-26 -48 -71 -72 -126 -72zM380 442h61v-442h-47l-12 77c-26 -47 -76 -85 -149 -85c-110 0 -161 73 -161 181v269h61v-270c0 -72 28 -123 107 -123c88 0 140 79 140 173v220z" />
    <glyph glyph-name="uni045D.ss03" horiz-adv-x="522" 
d="M295 544l-143 101l42 47l132 -113zM380 442h61v-442h-47l-12 77c-26 -47 -76 -85 -149 -85c-110 0 -161 73 -161 181v269h61v-270c0 -72 28 -123 107 -123c88 0 140 79 140 173v220z" />
    <glyph glyph-name="uni043A.ss03" horiz-adv-x="434" 
d="M195 230l229 -226v-4h-76l-209 207v-207h-61v696h61v-447l191 193h74v-3z" />
    <glyph glyph-name="uni043B.ss03" horiz-adv-x="460" 
d="M241 446l205 -444v-2h-66l-126 282c-8 19 -17 40 -24 63c-6 -23 -15 -44 -24 -63l-126 -282h-66v2l205 444h22z" />
    <glyph glyph-name="uni043F.ss03" horiz-adv-x="522" 
d="M293 451c103 0 157 -66 157 -181v-270h-61v271c0 75 -28 123 -102 123c-89 0 -148 -64 -148 -156v-238h-61v442h46l14 -75c26 47 80 84 155 84z" />
    <glyph glyph-name="uni0442.ss03" horiz-adv-x="800" 
d="M573 451c101 0 155 -67 155 -174v-277h-61v280c0 71 -36 114 -98 114c-89 0 -135 -81 -135 -164v-230h-61v281c0 61 -31 113 -98 113c-90 0 -136 -81 -136 -164v-230h-61v442h46l14 -76c29 54 80 85 144 85c67 0 116 -33 137 -89c29 54 80 89 154 89z" />
    <glyph glyph-name="uni0443.ss03" horiz-adv-x="520" 
d="M381 442h61v-477c0 -138 -99 -195 -191 -195c-78 0 -133 26 -177 79l40 41c36 -42 78 -63 137 -63c66 0 130 44 130 140v108c-25 -46 -74 -83 -150 -83c-104 0 -159 71 -159 177v273h61v-278c0 -66 33 -115 106 -115c88 0 142 74 142 176v217z" />
    <glyph glyph-name="uni0446.ss03" horiz-adv-x="527" 
d="M494 56h12v-173h-59v120c-36 8 -57 33 -62 76c-29 -51 -78 -87 -154 -87c-105 0 -159 71 -159 179v271h61v-275c0 -69 31 -118 104 -118c93 0 144 80 144 172v221h61v-336c0 -36 14 -50 52 -50z" />
    <glyph glyph-name="uni0448.ss03" horiz-adv-x="798" 
d="M659 442h61v-442h-47l-13 78c-29 -53 -80 -85 -144 -85c-67 0 -116 34 -137 91c-28 -55 -79 -91 -151 -91c-100 0 -156 66 -156 174v275h61v-279c0 -70 36 -113 98 -113c88 0 134 84 134 170v222h61v-279c0 -60 31 -113 98 -113c88 0 135 84 135 170v222z" />
    <glyph glyph-name="uni0449.ss03" horiz-adv-x="805" 
d="M772 57h12v-174h-59v121c-36 9 -57 34 -62 73c-29 -49 -78 -84 -144 -84c-70 0 -117 33 -140 91c-27 -55 -77 -91 -151 -91c-102 0 -156 69 -156 173v276h61v-279c0 -66 33 -113 98 -113c88 0 134 84 134 170v222h61v-279c0 -60 31 -113 98 -113c88 0 135 84 135 170v222
h61v-335c0 -36 14 -50 52 -50z" />
    <glyph glyph-name="uni044C.ss03" horiz-adv-x="468" 
d="M261 315c103 0 173 -64 173 -161c0 -98 -70 -162 -179 -162c-114 0 -183 63 -183 170v280h61v-173c31 29 75 46 128 46zM255 46c71 0 118 42 118 108c0 64 -47 105 -118 105c-77 0 -125 -41 -125 -103c0 -69 47 -110 125 -110z" />
    <glyph glyph-name="uni044A.ss03" horiz-adv-x="526" 
d="M318 315c101 0 174 -61 174 -160c0 -101 -72 -163 -179 -163c-115 0 -183 66 -183 168v226h-120v56h181v-172c31 30 75 45 127 45zM313 47c68 0 118 40 118 108c0 65 -49 104 -119 104s-122 -33 -122 -104c0 -68 47 -108 123 -108z" />
    <glyph glyph-name="uni044B.ss03" horiz-adv-x="669" 
d="M261 315c103 0 173 -64 173 -161c0 -98 -70 -162 -179 -162c-114 0 -183 63 -183 170v280h61v-173c31 29 75 46 128 46zM530 0v442h61v-442h-61zM255 46c71 0 118 42 118 108c0 64 -47 105 -118 105c-77 0 -125 -41 -125 -103c0 -69 47 -110 125 -110z" />
    <glyph glyph-name="pi" unicode="&#x3c0;" horiz-adv-x="594" 
d="M117 -2v387h-89v57h544v-57h-89v-387h-61v387h-244v-387h-61z" />
    <glyph glyph-name="zero" unicode="0" horiz-adv-x="583" 
d="M291 -10c-145 0 -232 132 -232 341c0 208 87 340 232 340s233 -132 233 -340c0 -209 -88 -341 -233 -341zM291 51c105 0 167 109 167 280s-62 280 -167 280c-104 0 -166 -109 -166 -280s62 -280 166 -280z" />
    <glyph glyph-name="one" unicode="1" horiz-adv-x="339" 
d="M222 671h17v-671h-64v533c0 12 0 24 2 36c-8 -5 -15 -9 -25 -16l-102 -64l-29 51z" />
    <glyph glyph-name="two" unicode="2" horiz-adv-x="466" 
d="M204 59h225v-59h-396v18l247 329c48 64 68 103 68 147c0 67 -42 117 -114 117c-59 0 -103 -33 -137 -81l-48 37c47 62 106 104 186 104c109 0 178 -74 178 -173c0 -62 -21 -105 -88 -195l-146 -192c-12 -16 -28 -37 -41 -53c22 1 49 1 66 1z" />
    <glyph glyph-name="three" unicode="3" horiz-adv-x="522" 
d="M235 -10c-82 0 -156 40 -202 103l46 37c41 -48 92 -79 156 -79c103 0 167 59 167 138c0 99 -85 131 -164 131h-85v60h76c97 0 139 61 139 118c0 64 -49 113 -127 113c-63 0 -109 -30 -147 -68l-40 38c46 54 108 90 189 90c116 0 192 -73 192 -168
c0 -56 -31 -119 -99 -149c93 -26 132 -100 132 -169c0 -110 -89 -195 -233 -195z" />
    <glyph glyph-name="four" unicode="4" horiz-adv-x="520" 
d="M415 202h78v-58h-78v-144h-62v144h-334v16l379 511h17v-469zM354 202v248c0 24 0 45 2 72c-15 -21 -29 -38 -42 -57l-155 -211c-13 -18 -26 -35 -41 -52h73h163z" />
    <glyph glyph-name="five" unicode="5" horiz-adv-x="481" 
d="M217 405c128 0 225 -73 225 -203c0 -127 -96 -213 -223 -213c-82 0 -148 34 -191 92l44 40c33 -46 84 -71 151 -71c88 0 154 61 154 152c0 111 -87 147 -176 147c-43 0 -84 -8 -117 -20l-11 11l42 321h305v-59h-252l-27 -205c26 5 51 8 76 8z" />
    <glyph glyph-name="six" unicode="6" horiz-adv-x="525" 
d="M279 409c106 0 201 -69 201 -206c0 -123 -84 -213 -208 -213c-140 0 -214 109 -214 249v14c0 232 96 393 344 418l8 -58c-171 -14 -265 -112 -284 -270c38 48 93 66 153 66zM270 51c83 0 144 60 144 152c0 98 -64 148 -143 148c-81 0 -147 -50 -147 -150
c0 -83 57 -150 146 -150z" />
    <glyph glyph-name="seven" unicode="7" horiz-adv-x="438" 
d="M23 661h396v-16l-256 -645h-68l215 540c9 23 18 44 26 62h-73h-240v59z" />
    <glyph glyph-name="eight" unicode="8" horiz-adv-x="552" 
d="M276 -9c-134 0 -222 74 -222 192c0 87 53 151 129 170c-60 20 -109 66 -109 147c0 102 82 171 203 171s200 -69 200 -171c0 -77 -49 -126 -105 -147c66 -17 126 -83 126 -171c0 -119 -88 -191 -222 -191zM277 383c81 0 135 46 135 116c0 66 -55 112 -135 112
c-81 0 -138 -46 -138 -112c0 -73 56 -116 138 -116zM276 52c90 0 155 49 155 131c0 86 -61 139 -157 139c-91 0 -154 -56 -154 -139c0 -80 67 -131 156 -131z" />
    <glyph glyph-name="nine" unicode="9" horiz-adv-x="529" 
d="M257 671c145 0 214 -113 214 -255c0 -238 -93 -401 -345 -426l-8 58c173 14 266 111 285 270c-38 -48 -93 -66 -153 -66c-106 0 -201 69 -201 206c0 123 84 213 208 213zM258 310c81 0 147 50 147 149c0 84 -57 151 -147 151c-82 0 -143 -60 -143 -152
c0 -98 64 -148 143 -148z" />
    <glyph glyph-name="zero.sinf" horiz-adv-x="323" 
d="M162 -70c-83 0 -110 86 -110 152c0 65 27 151 110 151s109 -86 109 -151c0 -66 -26 -152 -109 -152zM162 -28c50 0 65 59 65 110c0 50 -15 110 -65 110c-51 0 -65 -60 -65 -110c0 -51 14 -110 65 -110z" />
    <glyph glyph-name="one.sinf" horiz-adv-x="211" 
d="M104 -60v201l-43 -41l-29 29l104 99h10v-288h-42z" />
    <glyph glyph-name="two.sinf" horiz-adv-x="285" 
d="M130 -20h110v-40h-188v9l109 145c22 29 25 43 25 58c0 24 -13 41 -41 41c-21 0 -37 -13 -50 -38l-35 16c13 39 45 62 86 62c50 0 84 -35 84 -81c0 -23 -4 -46 -32 -83z" />
    <glyph glyph-name="three.sinf" horiz-adv-x="295" 
d="M140 -70c-35 0 -68 11 -90 36l26 29c16 -17 40 -25 63 -25c37 0 59 21 59 52c0 35 -28 47 -58 47h-35v39h30c28 0 50 14 50 43c0 26 -21 41 -44 41c-21 0 -38 -6 -51 -19l-29 28c23 22 49 32 83 32c41 0 84 -29 84 -76c0 -28 -13 -53 -39 -66c30 -8 53 -38 53 -71
c0 -56 -42 -90 -102 -90z" />
    <glyph glyph-name="four.sinf" horiz-adv-x="316" 
d="M181 -60v52h-140v9l173 227h10v-198h38v-38h-38v-52h-43zM111 30h71v95z" />
    <glyph glyph-name="five.sinf" horiz-adv-x="294" 
d="M141 -70c-36 0 -67 13 -89 40l33 27c12 -16 31 -26 56 -26c35 0 56 24 56 56c0 37 -29 56 -68 56c-15 0 -33 -3 -50 -8l-7 6l17 142h138v-42h-102l-7 -65c8 2 16 3 25 3c52 0 98 -31 98 -92c0 -59 -41 -97 -100 -97z" />
    <glyph glyph-name="six.sinf" horiz-adv-x="301" 
d="M160 118c48 0 89 -31 89 -92c0 -53 -38 -96 -96 -96c-70 0 -100 55 -100 118v12c0 98 52 173 155 173l7 -41c-58 2 -99 -23 -114 -96c16 16 37 22 59 22zM153 -28c34 0 52 23 52 53c0 35 -23 52 -53 52c-31 0 -53 -20 -53 -52c0 -29 19 -53 54 -53z" />
    <glyph glyph-name="seven.sinf" horiz-adv-x="282" 
d="M71 -60l100 241h-119v42h177v-9l-114 -274h-44z" />
    <glyph glyph-name="eight.sinf" horiz-adv-x="304" 
d="M152 -70c-54 0 -100 29 -100 90c0 30 17 59 47 73c-18 13 -33 34 -33 63c0 49 42 77 87 77s84 -28 84 -75c0 -30 -15 -52 -34 -63c32 -16 48 -44 48 -75c0 -62 -45 -90 -99 -90zM153 113c26 0 40 20 40 39c0 25 -17 42 -40 42c-25 0 -42 -17 -42 -42c0 -20 15 -39 42 -39
zM152 -30c33 0 55 21 55 51c0 29 -22 53 -56 53c-35 0 -55 -24 -55 -53c0 -30 22 -51 56 -51z" />
    <glyph glyph-name="nine.sinf" horiz-adv-x="300" 
d="M148 233c70 0 100 -55 100 -118v-12c0 -98 -52 -173 -154 -173l-8 42c58 -3 99 22 115 94c-16 -15 -37 -21 -59 -21c-49 0 -90 31 -90 92c0 53 38 96 96 96zM149 86c31 0 54 20 54 52c0 29 -19 53 -55 53c-34 0 -52 -23 -52 -53c0 -35 23 -52 53 -52z" />
    <glyph glyph-name="zero.tf" horiz-adv-x="554" 
d="M277 -10c-145 0 -237 132 -237 341c0 208 92 340 237 340s237 -132 237 -340c0 -209 -92 -341 -237 -341zM277 51c104 0 171 109 171 280c0 170 -67 280 -171 280s-171 -110 -171 -280c0 -171 67 -280 171 -280z" />
    <glyph glyph-name="one.tf" horiz-adv-x="554" 
d="M338 58h155v-58h-392v58h173v445c0 20 0 40 3 68l-42 -27l-162 -99l-28 47l276 179h17v-613z" />
    <glyph glyph-name="two.tf" horiz-adv-x="554" 
d="M227 59h241v-59h-407v18l262 329c50 63 68 103 68 147c0 67 -42 117 -123 117c-65 0 -109 -33 -144 -81l-47 37c47 62 106 104 192 104c119 0 187 -72 187 -173c0 -62 -16 -107 -86 -195l-161 -201c-11 -15 -23 -29 -35 -44c18 1 35 1 53 1z" />
    <glyph glyph-name="three.tf" horiz-adv-x="554" 
d="M261 -10c-88 0 -156 28 -210 88l45 41c41 -46 94 -68 165 -68c91 0 154 58 154 139c0 98 -83 130 -173 130h-68v60h68c97 0 139 59 139 119c0 64 -51 112 -128 112c-56 0 -102 -22 -135 -64l-41 44c46 52 107 80 176 80c116 0 195 -73 195 -171c0 -53 -31 -117 -102 -146
c96 -22 135 -101 135 -168c0 -115 -90 -196 -220 -196z" />
    <glyph glyph-name="four.tf" horiz-adv-x="554" 
d="M429 202h77v-58h-77v-144h-62v144h-331v16l376 511h17v-469zM368 202v248c0 23 0 42 2 68c-15 -20 -27 -37 -40 -55l-153 -211c-13 -17 -25 -34 -39 -50h70h160z" />
    <glyph glyph-name="five.tf" horiz-adv-x="554" 
d="M252 401c135 0 235 -69 235 -200c0 -119 -92 -210 -227 -210c-84 0 -149 29 -200 90l45 41c36 -47 87 -70 155 -70c96 0 162 64 162 149c0 103 -80 143 -178 143c-41 0 -85 -7 -127 -18l-12 12l33 323h319v-59h-263l-21 -208c27 5 54 7 79 7z" />
    <glyph glyph-name="six.tf" horiz-adv-x="554" 
d="M295 409c112 0 208 -70 208 -206c0 -123 -84 -213 -213 -213c-150 0 -220 107 -220 250v15c0 227 95 391 347 416l9 -58c-175 -14 -270 -112 -289 -271c39 49 97 67 158 67zM289 51c86 0 149 61 149 152c0 97 -66 148 -150 148s-153 -52 -153 -149
c0 -84 59 -151 154 -151z" />
    <glyph glyph-name="seven.tf" horiz-adv-x="554" 
d="M46 661h452v-16l-280 -645h-67l233 536c9 22 19 44 30 66h-71h-297v59z" />
    <glyph glyph-name="eight.tf" horiz-adv-x="554" 
d="M277 -9c-134 0 -222 74 -222 192c0 87 53 151 129 170c-60 20 -109 66 -109 147c0 102 83 171 204 171c120 0 199 -69 199 -171c0 -77 -49 -126 -104 -147c65 -17 125 -83 125 -171c0 -119 -88 -191 -222 -191zM279 383c81 0 134 46 134 116c0 66 -55 112 -134 112
c-82 0 -138 -46 -138 -112c0 -73 55 -116 138 -116zM277 52c91 0 156 49 156 131c0 86 -62 139 -158 139c-90 0 -154 -56 -154 -139c0 -80 67 -131 156 -131z" />
    <glyph glyph-name="nine.tf" horiz-adv-x="554" 
d="M262 671c150 0 220 -106 220 -250v-15c0 -227 -95 -391 -348 -416l-9 58c176 14 270 112 290 271c-39 -49 -97 -67 -158 -67c-112 0 -209 70 -209 206c0 123 84 213 214 213zM263 310c85 0 153 52 153 149c0 84 -59 151 -153 151c-87 0 -149 -61 -149 -152
c0 -97 65 -148 149 -148z" />
    <glyph glyph-name="zero.dnom" horiz-adv-x="323" 
d="M162 -10c-83 0 -110 86 -110 152c0 65 27 151 110 151s109 -86 109 -151c0 -66 -26 -152 -109 -152zM162 32c50 0 65 59 65 110c0 50 -15 110 -65 110c-51 0 -65 -60 -65 -110c0 -51 14 -110 65 -110z" />
    <glyph glyph-name="one.dnom" horiz-adv-x="211" 
d="M104 0v201l-43 -41l-29 29l104 99h10v-288h-42z" />
    <glyph glyph-name="two.dnom" horiz-adv-x="285" 
d="M130 40h110v-40h-188v9l109 145c22 29 25 43 25 58c0 24 -13 41 -41 41c-21 0 -37 -13 -50 -38l-35 16c13 39 45 62 86 62c50 0 84 -35 84 -81c0 -23 -4 -46 -32 -83z" />
    <glyph glyph-name="three.dnom" horiz-adv-x="295" 
d="M140 -10c-35 0 -68 11 -90 36l26 29c16 -17 40 -25 63 -25c37 0 59 21 59 52c0 35 -28 47 -58 47h-35v39h30c28 0 50 14 50 43c0 26 -21 41 -44 41c-21 0 -38 -6 -51 -19l-29 28c23 22 49 32 83 32c41 0 84 -29 84 -76c0 -28 -13 -53 -39 -66c30 -8 53 -38 53 -71
c0 -56 -42 -90 -102 -90z" />
    <glyph glyph-name="four.dnom" horiz-adv-x="316" 
d="M181 0v52h-140v9l173 227h10v-198h38v-38h-38v-52h-43zM111 90h71v95z" />
    <glyph glyph-name="five.dnom" horiz-adv-x="294" 
d="M141 -10c-36 0 -67 13 -89 40l33 27c12 -16 31 -26 56 -26c35 0 56 24 56 56c0 37 -29 56 -68 56c-15 0 -33 -3 -50 -8l-7 6l17 142h138v-42h-102l-7 -65c8 2 16 3 25 3c52 0 98 -31 98 -92c0 -59 -41 -97 -100 -97z" />
    <glyph glyph-name="six.dnom" horiz-adv-x="301" 
d="M160 178c48 0 89 -31 89 -92c0 -53 -38 -96 -96 -96c-70 0 -100 55 -100 118v12c0 98 52 173 155 173l7 -41c-58 2 -99 -23 -114 -96c16 16 37 22 59 22zM153 32c34 0 52 23 52 53c0 35 -23 52 -53 52c-31 0 -53 -20 -53 -52c0 -29 19 -53 54 -53z" />
    <glyph glyph-name="seven.dnom" horiz-adv-x="282" 
d="M71 0l100 241h-119v42h177v-9l-114 -274h-44z" />
    <glyph glyph-name="eight.dnom" horiz-adv-x="304" 
d="M152 -10c-54 0 -100 29 -100 90c0 30 17 59 47 73c-18 13 -33 34 -33 63c0 49 42 77 87 77s84 -28 84 -75c0 -30 -15 -52 -34 -63c32 -16 48 -44 48 -75c0 -62 -45 -90 -99 -90zM153 173c26 0 40 20 40 39c0 25 -17 42 -40 42c-25 0 -42 -17 -42 -42c0 -20 15 -39 42 -39
zM152 30c33 0 55 21 55 51c0 29 -22 53 -56 53c-35 0 -55 -24 -55 -53c0 -30 22 -51 56 -51z" />
    <glyph glyph-name="nine.dnom" horiz-adv-x="300" 
d="M148 293c70 0 100 -55 100 -118v-12c0 -98 -52 -173 -154 -173l-8 42c58 -3 99 22 115 94c-16 -15 -37 -21 -59 -21c-49 0 -90 31 -90 92c0 53 38 96 96 96zM149 146c31 0 54 20 54 52c0 29 -19 53 -55 53c-34 0 -52 -23 -52 -53c0 -35 23 -52 53 -52z" />
    <glyph glyph-name="zero.numr" horiz-adv-x="323" 
d="M162 387c-83 0 -110 86 -110 152c0 65 27 151 110 151s109 -86 109 -151c0 -66 -26 -152 -109 -152zM162 429c50 0 65 59 65 110c0 50 -15 110 -65 110c-51 0 -65 -60 -65 -110c0 -51 14 -110 65 -110z" />
    <glyph glyph-name="one.numr" horiz-adv-x="211" 
d="M104 397v201l-43 -41l-29 29l104 99h10v-288h-42z" />
    <glyph glyph-name="two.numr" horiz-adv-x="285" 
d="M130 437h110v-40h-188v9l109 145c22 29 25 43 25 58c0 24 -13 41 -41 41c-21 0 -37 -13 -50 -38l-35 16c13 39 45 62 86 62c50 0 84 -35 84 -81c0 -23 -4 -46 -32 -83z" />
    <glyph glyph-name="three.numr" horiz-adv-x="295" 
d="M140 387c-35 0 -68 11 -90 36l26 29c16 -17 40 -25 63 -25c37 0 59 21 59 52c0 35 -28 47 -58 47h-35v39h30c28 0 50 14 50 43c0 26 -21 41 -44 41c-21 0 -38 -6 -51 -19l-29 28c23 22 49 32 83 32c41 0 84 -29 84 -76c0 -28 -13 -53 -39 -66c30 -8 53 -38 53 -71
c0 -56 -42 -90 -102 -90z" />
    <glyph glyph-name="four.numr" horiz-adv-x="316" 
d="M181 397v52h-140v9l173 227h10v-198h38v-38h-38v-52h-43zM111 487h71v95z" />
    <glyph glyph-name="five.numr" horiz-adv-x="294" 
d="M141 387c-36 0 -67 13 -89 40l33 27c12 -16 31 -26 56 -26c35 0 56 24 56 56c0 37 -29 56 -68 56c-15 0 -33 -3 -50 -8l-7 6l17 142h138v-42h-102l-7 -65c8 2 16 3 25 3c52 0 98 -31 98 -92c0 -59 -41 -97 -100 -97z" />
    <glyph glyph-name="six.numr" horiz-adv-x="301" 
d="M160 575c48 0 89 -31 89 -92c0 -53 -38 -96 -96 -96c-70 0 -100 55 -100 118v12c0 98 52 173 155 173l7 -41c-58 2 -99 -23 -114 -96c16 16 37 22 59 22zM153 429c34 0 52 23 52 53c0 35 -23 52 -53 52c-31 0 -53 -20 -53 -52c0 -29 19 -53 54 -53z" />
    <glyph glyph-name="seven.numr" horiz-adv-x="282" 
d="M71 397l100 241h-119v42h177v-9l-114 -274h-44z" />
    <glyph glyph-name="eight.numr" horiz-adv-x="304" 
d="M152 387c-54 0 -100 29 -100 90c0 30 17 59 47 73c-18 13 -33 34 -33 63c0 49 42 77 87 77s84 -28 84 -75c0 -30 -15 -52 -34 -63c32 -16 48 -44 48 -75c0 -62 -45 -90 -99 -90zM153 570c26 0 40 20 40 39c0 25 -17 42 -40 42c-25 0 -42 -17 -42 -42c0 -20 15 -39 42 -39
zM152 427c33 0 55 21 55 51c0 29 -22 53 -56 53c-35 0 -55 -24 -55 -53c0 -30 22 -51 56 -51z" />
    <glyph glyph-name="nine.numr" horiz-adv-x="300" 
d="M148 690c70 0 100 -55 100 -118v-12c0 -98 -52 -173 -154 -173l-8 42c58 -3 99 22 115 94c-16 -15 -37 -21 -59 -21c-49 0 -90 31 -90 92c0 53 38 96 96 96zM149 543c31 0 54 20 54 52c0 29 -19 53 -55 53c-34 0 -52 -23 -52 -53c0 -35 23 -52 53 -52z" />
    <glyph glyph-name="zero.sups" horiz-adv-x="323" 
d="M162 387c-83 0 -110 86 -110 152c0 65 27 151 110 151s109 -86 109 -151c0 -66 -26 -152 -109 -152zM162 429c50 0 65 59 65 110c0 50 -15 110 -65 110c-51 0 -65 -60 -65 -110c0 -51 14 -110 65 -110z" />
    <glyph glyph-name="one.sups" horiz-adv-x="211" 
d="M104 397v201l-43 -41l-29 29l104 99h10v-288h-42z" />
    <glyph glyph-name="two.sups" horiz-adv-x="285" 
d="M130 437h110v-40h-188v9l109 145c22 29 25 43 25 58c0 24 -13 41 -41 41c-21 0 -37 -13 -50 -38l-35 16c13 39 45 62 86 62c50 0 84 -35 84 -81c0 -23 -4 -46 -32 -83z" />
    <glyph glyph-name="three.sups" horiz-adv-x="295" 
d="M140 387c-35 0 -68 11 -90 36l26 29c16 -17 40 -25 63 -25c37 0 59 21 59 52c0 35 -28 47 -58 47h-35v39h30c28 0 50 14 50 43c0 26 -21 41 -44 41c-21 0 -38 -6 -51 -19l-29 28c23 22 49 32 83 32c41 0 84 -29 84 -76c0 -28 -13 -53 -39 -66c30 -8 53 -38 53 -71
c0 -56 -42 -90 -102 -90z" />
    <glyph glyph-name="four.sups" horiz-adv-x="316" 
d="M181 397v52h-140v9l173 227h10v-198h38v-38h-38v-52h-43zM111 487h71v95z" />
    <glyph glyph-name="five.sups" horiz-adv-x="294" 
d="M141 387c-36 0 -67 13 -89 40l33 27c12 -16 31 -26 56 -26c35 0 56 24 56 56c0 37 -29 56 -68 56c-15 0 -33 -3 -50 -8l-7 6l17 142h138v-42h-102l-7 -65c8 2 16 3 25 3c52 0 98 -31 98 -92c0 -59 -41 -97 -100 -97z" />
    <glyph glyph-name="six.sups" horiz-adv-x="301" 
d="M160 575c48 0 89 -31 89 -92c0 -53 -38 -96 -96 -96c-70 0 -100 55 -100 118v12c0 98 52 173 155 173l7 -41c-58 2 -99 -23 -114 -96c16 16 37 22 59 22zM153 429c34 0 52 23 52 53c0 35 -23 52 -53 52c-31 0 -53 -20 -53 -52c0 -29 19 -53 54 -53z" />
    <glyph glyph-name="seven.sups" horiz-adv-x="282" 
d="M71 397l100 241h-119v42h177v-9l-114 -274h-44z" />
    <glyph glyph-name="eight.sups" horiz-adv-x="304" 
d="M152 387c-54 0 -100 29 -100 90c0 30 17 59 47 73c-18 13 -33 34 -33 63c0 49 42 77 87 77s84 -28 84 -75c0 -30 -15 -52 -34 -63c32 -16 48 -44 48 -75c0 -62 -45 -90 -99 -90zM153 570c26 0 40 20 40 39c0 25 -17 42 -40 42c-25 0 -42 -17 -42 -42c0 -20 15 -39 42 -39
zM152 427c33 0 55 21 55 51c0 29 -22 53 -56 53c-35 0 -55 -24 -55 -53c0 -30 22 -51 56 -51z" />
    <glyph glyph-name="nine.sups" horiz-adv-x="300" 
d="M148 690c70 0 100 -55 100 -118v-12c0 -98 -52 -173 -154 -173l-8 42c58 -3 99 22 115 94c-16 -15 -37 -21 -59 -21c-49 0 -90 31 -90 92c0 53 38 96 96 96zM149 543c31 0 54 20 54 52c0 29 -19 53 -55 53c-34 0 -52 -23 -52 -53c0 -35 23 -52 53 -52z" />
    <glyph glyph-name="fraction" unicode="&#x2044;" horiz-adv-x="153" 
d="M-123 0l353 680h49l-352 -680h-50z" />
    <glyph glyph-name="onehalf" unicode="&#xbd;" horiz-adv-x="649" 
d="M104 397v201l-43 -41l-29 29l104 99h10v-288h-42zM441 680h49l-352 -680h-50zM494 40h110v-40h-188v9l109 145c22 29 25 43 25 58c0 24 -13 41 -41 41c-21 0 -37 -13 -50 -38l-35 16c13 39 45 62 86 62c50 0 84 -35 84 -81c0 -23 -4 -46 -32 -83z" />
    <glyph glyph-name="uni2153" unicode="&#x2153;" horiz-adv-x="659" 
d="M104 397v201l-43 -41l-29 29l104 99h10v-288h-42zM88 0l353 680h49l-352 -680h-50zM504 -10c-35 0 -68 11 -90 36l26 29c16 -17 40 -25 63 -25c37 0 59 21 59 52c0 35 -28 47 -58 47h-35v39h30c28 0 50 14 50 43c0 26 -21 41 -44 41c-21 0 -38 -6 -51 -19l-29 28
c23 22 49 32 83 32c41 0 84 -29 84 -76c0 -28 -13 -53 -39 -66c30 -8 53 -38 53 -71c0 -56 -42 -90 -102 -90z" />
    <glyph glyph-name="uni2154" unicode="&#x2154;" horiz-adv-x="733" 
d="M240 437v-40h-188v9l109 145c22 29 25 43 25 58c0 24 -13 41 -41 41c-21 0 -37 -13 -50 -38l-35 16c13 39 45 62 86 62c50 0 84 -35 84 -81c0 -23 -4 -46 -32 -83l-68 -89h110zM515 680h49l-352 -680h-50zM627 151c30 -8 53 -38 53 -71c0 -56 -42 -90 -102 -90
c-35 0 -68 11 -90 36l26 29c16 -17 40 -25 63 -25c37 0 59 21 59 52c0 35 -28 47 -58 47h-35v39h30c28 0 50 14 50 43c0 26 -21 41 -44 41c-21 0 -38 -6 -51 -19l-29 28c23 22 49 32 83 32c41 0 84 -29 84 -76c0 -28 -13 -53 -39 -66z" />
    <glyph glyph-name="onequarter" unicode="&#xbc;" horiz-adv-x="630" 
d="M104 397v201l-43 -41l-29 29l104 99h10v-288h-42zM88 0l353 680h49l-352 -680h-50zM495 0v52h-140v9l173 227h10v-198h38v-38h-38v-52h-43zM425 90h71v95z" />
    <glyph glyph-name="threequarters" unicode="&#xbe;" horiz-adv-x="714" 
d="M140 387c-35 0 -68 11 -90 36l26 29c16 -17 40 -25 63 -25c37 0 59 21 59 52c0 35 -28 47 -58 47h-35v39h30c28 0 50 14 50 43c0 26 -21 41 -44 41c-21 0 -38 -6 -51 -19l-29 28c23 22 49 32 83 32c41 0 84 -29 84 -76c0 -28 -13 -53 -39 -66c30 -8 53 -38 53 -71
c0 -56 -42 -90 -102 -90zM172 0l353 680h49l-352 -680h-50zM579 0v52h-140v9l173 227h10v-198h38v-38h-38v-52h-43zM509 90h71v95z" />
    <glyph glyph-name="oneeighth" unicode="&#x215b;" horiz-adv-x="668" 
d="M104 397v201l-43 -41l-29 29l104 99h10v-288h-42zM88 0l353 680h49l-352 -680h-50zM516 -10c-54 0 -100 29 -100 90c0 30 17 59 47 73c-18 13 -33 34 -33 63c0 49 42 77 87 77s84 -28 84 -75c0 -30 -15 -52 -34 -63c32 -16 48 -44 48 -75c0 -62 -45 -90 -99 -90zM517 173
c26 0 40 20 40 39c0 25 -17 42 -40 42c-25 0 -42 -17 -42 -42c0 -20 15 -39 42 -39zM516 30c33 0 55 21 55 51c0 29 -22 53 -56 53c-35 0 -55 -24 -55 -53c0 -30 22 -51 56 -51z" />
    <glyph glyph-name="threeeighths" unicode="&#x215c;" horiz-adv-x="752" 
d="M140 387c-35 0 -68 11 -90 36l26 29c16 -17 40 -25 63 -25c37 0 59 21 59 52c0 35 -28 47 -58 47h-35v39h30c28 0 50 14 50 43c0 26 -21 41 -44 41c-21 0 -38 -6 -51 -19l-29 28c23 22 49 32 83 32c41 0 84 -29 84 -76c0 -28 -13 -53 -39 -66c30 -8 53 -38 53 -71
c0 -56 -42 -90 -102 -90zM172 0l353 680h49l-352 -680h-50zM600 -10c-54 0 -100 29 -100 90c0 30 17 59 47 73c-18 13 -33 34 -33 63c0 49 42 77 87 77s84 -28 84 -75c0 -30 -15 -52 -34 -63c32 -16 48 -44 48 -75c0 -62 -45 -90 -99 -90zM601 173c26 0 40 20 40 39
c0 25 -17 42 -40 42c-25 0 -42 -17 -42 -42c0 -20 15 -39 42 -39zM600 30c33 0 55 21 55 51c0 29 -22 53 -56 53c-35 0 -55 -24 -55 -53c0 -30 22 -51 56 -51z" />
    <glyph glyph-name="fiveeighths" unicode="&#x215d;" horiz-adv-x="751" 
d="M141 387c-36 0 -67 13 -89 40l33 27c12 -16 31 -26 56 -26c35 0 56 24 56 56c0 37 -29 56 -68 56c-15 0 -33 -3 -50 -8l-7 6l17 142h138v-42h-102l-7 -65c8 2 16 3 25 3c52 0 98 -31 98 -92c0 -59 -41 -97 -100 -97zM171 0l353 680h49l-352 -680h-50zM599 -10
c-54 0 -100 29 -100 90c0 30 17 59 47 73c-18 13 -33 34 -33 63c0 49 42 77 87 77s84 -28 84 -75c0 -30 -15 -52 -34 -63c32 -16 48 -44 48 -75c0 -62 -45 -90 -99 -90zM600 173c26 0 40 20 40 39c0 25 -17 42 -40 42c-25 0 -42 -17 -42 -42c0 -20 15 -39 42 -39zM599 30
c33 0 55 21 55 51c0 29 -22 53 -56 53c-35 0 -55 -24 -55 -53c0 -30 22 -51 56 -51z" />
    <glyph glyph-name="seveneighths" unicode="&#x215e;" horiz-adv-x="687" 
d="M71 397l100 241h-119v42h177v-9l-114 -274h-44zM107 0l353 680h49l-352 -680h-50zM535 -10c-54 0 -100 29 -100 90c0 30 17 59 47 73c-18 13 -33 34 -33 63c0 49 42 77 87 77s84 -28 84 -75c0 -30 -15 -52 -34 -63c32 -16 48 -44 48 -75c0 -62 -45 -90 -99 -90zM536 173
c26 0 40 20 40 39c0 25 -17 42 -40 42c-25 0 -42 -17 -42 -42c0 -20 15 -39 42 -39zM535 30c33 0 55 21 55 51c0 29 -22 53 -56 53c-35 0 -55 -24 -55 -53c0 -30 22 -51 56 -51z" />
    <glyph glyph-name="period" unicode="." horiz-adv-x="254" 
d="M127 -10c-24 0 -47 15 -47 46c0 32 23 47 47 47c23 0 47 -15 47 -47c0 -31 -24 -46 -47 -46z" />
    <glyph glyph-name="comma" unicode="," horiz-adv-x="255" 
d="M127 83c26 0 48 -17 48 -61c0 -55 -26 -103 -70 -143l-20 19c30 32 48 58 52 93c-3 -1 -7 -1 -10 -1c-27 0 -47 18 -47 46c0 32 24 47 47 47z" />
    <glyph glyph-name="colon" unicode=":" horiz-adv-x="254" 
d="M127 351c-24 0 -47 15 -47 47s23 46 47 46c23 0 47 -14 47 -46s-24 -47 -47 -47zM127 -10c-24 0 -47 15 -47 46c0 32 23 47 47 47c23 0 47 -15 47 -47c0 -31 -24 -46 -47 -46z" />
    <glyph glyph-name="semicolon" unicode=";" horiz-adv-x="255" 
d="M127 352c-24 0 -47 15 -47 47c0 31 23 46 47 46s47 -15 47 -46c0 -32 -23 -47 -47 -47zM127 83c26 0 48 -16 48 -60c0 -57 -26 -104 -70 -144l-20 19c30 32 48 58 51 93c-3 -1 -6 -1 -9 -1c-27 0 -47 18 -47 46c0 32 23 47 47 47z" />
    <glyph glyph-name="ellipsis" unicode="&#x2026;" horiz-adv-x="640" 
d="M127 -10c-24 0 -47 15 -47 46c0 32 23 47 47 47c23 0 47 -15 47 -47c0 -31 -24 -46 -47 -46zM320 -10c-24 0 -47 15 -47 46c0 32 23 47 47 47s47 -15 47 -47c0 -31 -23 -46 -47 -46zM513 -10c-23 0 -47 15 -47 46c0 32 24 47 47 47c24 0 47 -15 47 -47
c0 -31 -23 -46 -47 -46z" />
    <glyph glyph-name="exclam" unicode="!" horiz-adv-x="262" 
d="M101 162l-5 518h71l-6 -518h-60zM131 -10c-23 0 -47 15 -47 46c0 32 24 47 47 47c24 0 48 -15 48 -47c0 -31 -24 -46 -48 -46z" />
    <glyph glyph-name="exclamdown" unicode="&#xa1;" horiz-adv-x="259" 
d="M129 410c24 0 48 -15 48 -46c0 -32 -24 -47 -48 -47c-23 0 -47 15 -47 47c0 31 24 46 47 46zM100 238h59l7 -518h-72z" />
    <glyph glyph-name="question" unicode="?" horiz-adv-x="478" 
d="M174 163c-2 16 -2 31 -2 44c0 103 43 149 89 198c45 48 81 81 81 135c0 46 -37 91 -109 91c-59 0 -99 -20 -137 -62l-40 45c52 53 105 76 180 76c112 0 171 -76 171 -146c0 -73 -44 -118 -106 -185c-36 -39 -69 -76 -69 -155c0 -12 1 -26 3 -41h-61zM206 -10
c-23 0 -47 15 -47 46c0 32 24 47 47 47c24 0 48 -15 48 -47c0 -31 -24 -46 -48 -46z" />
    <glyph glyph-name="questiondown" unicode="&#xbf;" horiz-adv-x="421" 
d="M248 410c23 0 47 -15 47 -46c0 -32 -24 -47 -47 -47c-24 0 -48 15 -48 47c0 31 24 46 48 46zM280 237c2 -16 2 -31 2 -44c0 -103 -43 -149 -89 -198c-45 -48 -81 -81 -81 -135c0 -46 37 -91 109 -91c59 0 99 20 137 62l40 -45c-52 -53 -105 -76 -180 -76
c-112 0 -171 76 -171 146c0 73 44 118 106 185c36 39 69 76 69 155c0 12 -1 26 -3 41h61z" />
    <glyph glyph-name="periodcentered" unicode="&#xb7;" horiz-adv-x="254" 
d="M127 304c-24 0 -47 14 -47 46s23 46 47 46c23 0 47 -14 47 -46s-24 -46 -47 -46z" />
    <glyph glyph-name="bullet" unicode="&#x2022;" horiz-adv-x="310" 
d="M155 276c-38 0 -75 23 -75 74s37 74 75 74s75 -23 75 -74s-37 -74 -75 -74z" />
    <glyph glyph-name="asterisk" unicode="*" horiz-adv-x="364" 
d="M102 385l-37 28l89 106l-127 35l16 43l120 -44l-4 127h46l-4 -127l121 44l15 -43l-127 -35l88 -106l-36 -28l-80 113z" />
    <glyph glyph-name="numbersign" unicode="#" horiz-adv-x="521" 
d="M99 0l30 201h-96v53h103l22 150h-98v53h106l34 223h53l-33 -223h127l32 223h54l-32 -223h87v-53h-95l-23 -150h90v-53h-98l-29 -201h-54l30 201h-127l-30 -201h-53zM190 254h127l22 150h-127z" />
    <glyph glyph-name="slash" unicode="/" horiz-adv-x="395" 
d="M97 -10h-61l262 700h61z" />
    <glyph glyph-name="backslash" unicode="\" horiz-adv-x="395" 
d="M298 -10l-262 700h61l262 -700h-61z" />
    <glyph glyph-name="colon.case" horiz-adv-x="254" 
d="M127 454c-24 0 -47 15 -47 47c0 31 23 46 47 46c23 0 47 -15 47 -46c0 -32 -24 -47 -47 -47zM127 93c-24 0 -47 14 -47 46s23 47 47 47c23 0 47 -15 47 -47s-24 -46 -47 -46z" />
    <glyph glyph-name="parenleft" unicode="(" horiz-adv-x="309" 
d="M232 -192c-92 110 -153 290 -153 478s61 368 153 478l40 -37c-83 -99 -134 -267 -134 -441s51 -342 134 -441z" />
    <glyph glyph-name="parenright" unicode=")" horiz-adv-x="309" 
d="M77 764c92 -110 153 -290 153 -478s-61 -368 -153 -478l-39 37c82 99 133 267 133 441s-51 342 -133 441z" />
    <glyph glyph-name="braceleft" unicode="{" horiz-adv-x="315" 
d="M280 -190c-104 -4 -141 40 -141 130v224c0 58 -13 95 -81 95v54c68 0 81 37 81 95v224c0 90 37 134 141 130v-54c-68 3 -83 -18 -83 -76v-230c0 -61 -22 -98 -67 -116c45 -18 67 -55 67 -116v-230c0 -58 15 -79 83 -76v-54z" />
    <glyph glyph-name="braceright" unicode="}" horiz-adv-x="315" 
d="M35 -190v54c68 -3 84 18 84 76v230c0 61 21 98 66 116c-45 18 -66 55 -66 116v230c0 58 -16 79 -84 76v54c104 4 141 -40 141 -130v-224c0 -58 13 -95 81 -95v-54c-68 0 -81 -37 -81 -95v-224c0 -90 -37 -134 -141 -130z" />
    <glyph glyph-name="bracketleft" unicode="[" horiz-adv-x="266" 
d="M78 -187v946h153v-53h-95v-840h95v-53h-153z" />
    <glyph glyph-name="bracketright" unicode="]" horiz-adv-x="266" 
d="M188 -187h-153v53h95v840h-95v53h153v-946z" />
    <glyph glyph-name="parenleft.case" horiz-adv-x="332" 
d="M245 -128c-92 110 -153 290 -153 478s61 368 153 478l40 -37c-83 -99 -134 -267 -134 -441s51 -342 134 -441z" />
    <glyph glyph-name="parenright.case" horiz-adv-x="332" 
d="M86 828c92 -110 153 -290 153 -478s-61 -368 -153 -478l-39 37c82 99 133 267 133 441s-51 342 -133 441z" />
    <glyph glyph-name="braceleft.case" horiz-adv-x="333" 
d="M289 -126c-104 -4 -141 40 -141 130v224c0 58 -14 95 -81 95v54c67 0 81 37 81 95v224c0 90 37 134 141 130v-54c-68 3 -84 -18 -84 -76v-230c0 -61 -22 -98 -66 -116c44 -18 66 -55 66 -116v-230c0 -58 16 -79 84 -76v-54z" />
    <glyph glyph-name="braceright.case" horiz-adv-x="333" 
d="M45 -126v54c68 -3 84 18 84 76v230c0 61 21 98 66 116c-45 18 -66 55 -66 116v230c0 58 -16 79 -84 76v54c104 4 141 -40 141 -130v-224c0 -58 13 -95 81 -95v-54c-68 0 -81 -37 -81 -95v-224c0 -90 -37 -134 -141 -130z" />
    <glyph glyph-name="bracketleft.case" horiz-adv-x="302" 
d="M103 -123v946h153v-53h-95v-840h95v-53h-153z" />
    <glyph glyph-name="bracketright.case" horiz-adv-x="302" 
d="M199 -123h-153v53h95v840h-95v53h153v-946z" />
    <glyph glyph-name="hyphen" unicode="-" horiz-adv-x="391" 
d="M67 202v53h256v-53h-256z" />
    <glyph glyph-name="endash" unicode="&#x2013;" horiz-adv-x="532" 
d="M67 204v50h397v-50h-397z" />
    <glyph glyph-name="emdash" unicode="&#x2014;" horiz-adv-x="697" 
d="M67 204v50h562v-50h-562z" />
    <glyph glyph-name="underscore" unicode="_" horiz-adv-x="497" 
d="M52 -75v50h392v-50h-392z" />
    <glyph glyph-name="hyphen.case" horiz-adv-x="411" 
d="M77 323v55h256v-55h-256z" />
    <glyph glyph-name="endash.case" horiz-adv-x="552" 
d="M77 327v50h397v-50h-397z" />
    <glyph glyph-name="emdash.case" horiz-adv-x="717" 
d="M77 327v50h562v-50h-562z" />
    <glyph glyph-name="quotesinglbase" unicode="&#x201a;" horiz-adv-x="251" 
d="M126 81c21 0 46 -14 46 -61c0 -51 -31 -102 -75 -138l-17 19c33 30 50 59 55 91c-3 -1 -6 -1 -9 -1c-26 0 -45 18 -45 45c0 31 22 45 45 45z" />
    <glyph glyph-name="quotedblbase" unicode="&#x201e;" horiz-adv-x="390" 
d="M126 81c21 0 46 -14 46 -61c0 -51 -31 -102 -75 -138l-17 19c33 30 50 59 55 91c-3 -1 -6 -1 -9 -1c-26 0 -45 18 -45 45c0 31 22 45 45 45zM265 81c21 0 46 -14 46 -61c0 -51 -31 -102 -76 -138l-17 19c34 30 51 59 56 91c-3 -1 -6 -1 -9 -1c-26 0 -46 18 -46 45
c0 31 23 45 46 45z" />
    <glyph glyph-name="quotedblleft" unicode="&#x201c;" horiz-adv-x="323" 
d="M140 669c-35 -32 -52 -62 -57 -94c3 1 6 1 9 1c26 0 46 -18 46 -45c0 -31 -23 -45 -46 -45c-19 0 -46 14 -46 60c0 55 34 108 75 143zM230 576c26 0 46 -18 46 -45c0 -31 -23 -45 -46 -45c-20 0 -46 14 -46 60c0 55 34 108 75 143l19 -20c-35 -32 -52 -62 -57 -94
c3 1 6 1 9 1z" />
    <glyph glyph-name="quotedblright" unicode="&#x201d;" horiz-adv-x="323" 
d="M97 685c20 0 46 -15 46 -60c0 -55 -34 -108 -75 -143l-18 21c34 31 51 61 56 93c-3 -1 -6 -1 -8 -1c-27 0 -46 18 -46 45c0 31 23 45 45 45zM235 685c20 0 46 -15 46 -60c0 -55 -34 -108 -75 -143l-18 21c34 31 52 61 57 93c-3 -1 -7 -1 -10 -1c-26 0 -45 18 -45 45
c0 31 23 45 45 45z" />
    <glyph glyph-name="quoteleft" unicode="&#x2018;" horiz-adv-x="185" 
d="M92 576c26 0 46 -18 46 -45c0 -31 -23 -45 -46 -45c-19 0 -46 14 -46 60c0 55 34 108 75 143l19 -21c-35 -31 -52 -61 -57 -93c3 1 6 1 9 1z" />
    <glyph glyph-name="quoteright" unicode="&#x2019;" horiz-adv-x="185" 
d="M97 685c20 0 46 -15 46 -61c0 -54 -34 -107 -75 -142l-18 21c34 31 51 61 56 93c-3 -1 -6 -1 -9 -1c-26 0 -45 18 -45 45c0 31 22 45 45 45z" />
    <glyph glyph-name="guillemotleft" unicode="&#xab;" horiz-adv-x="399" 
d="M157 51l-121 194l119 188l45 -26l-93 -162l95 -168zM301 51l-121 194l119 188l45 -26l-93 -162l95 -168z" />
    <glyph glyph-name="guillemotright" unicode="&#xbb;" horiz-adv-x="399" 
d="M97 51l-45 26l96 168l-94 162l45 26l119 -188zM241 51l-45 26l96 168l-94 162l45 26l119 -188z" />
    <glyph glyph-name="guilsinglleft" unicode="&#x2039;" horiz-adv-x="255" 
d="M157 51l-121 194l119 188l45 -26l-93 -162l95 -168z" />
    <glyph glyph-name="guilsinglright" unicode="&#x203a;" horiz-adv-x="255" 
d="M97 51l-45 26l96 168l-94 162l45 26l119 -188z" />
    <glyph glyph-name="quotedbl" unicode="&#x22;" horiz-adv-x="323" 
d="M53 481v199h67l-16 -199h-51zM203 481v199h66l-15 -199h-51z" />
    <glyph glyph-name="quotesingle" unicode="'" horiz-adv-x="173" 
d="M53 481v199h67l-16 -199h-51z" />
    <glyph glyph-name="guillemotleft.case" horiz-adv-x="411" 
d="M163 157l-121 194l119 188l45 -26l-93 -162l95 -168zM307 157l-121 194l119 188l45 -26l-93 -162l95 -168z" />
    <glyph glyph-name="guillemotright.case" horiz-adv-x="411" 
d="M103 157l-45 26l96 168l-94 162l45 26l119 -188zM247 157l-45 26l96 168l-94 162l45 26l119 -188z" />
    <glyph glyph-name="guilsinglleft.case" horiz-adv-x="267" 
d="M163 157l-121 194l119 188l45 -26l-93 -162l95 -168z" />
    <glyph glyph-name="guilsinglright.case" horiz-adv-x="267" 
d="M103 157l-45 26l96 168l-94 162l45 26l119 -188z" />
    <glyph glyph-name="uni00A0" unicode="&#xa0;" horiz-adv-x="228" 
 />
    <glyph glyph-name="cent" unicode="&#xa2;" horiz-adv-x="468" 
d="M430 151c-37 -45 -85 -69 -141 -75v-82h-52v83c-105 12 -185 96 -185 223c0 128 80 214 185 226v84h52v-83c53 -6 97 -30 132 -72l-41 -38c-29 36 -69 55 -115 55c-84 0 -151 -65 -151 -172c0 -101 64 -168 151 -168c55 0 91 20 126 59z" />
    <glyph glyph-name="currency" unicode="&#xa4;" horiz-adv-x="528" 
d="M85 138l-32 33l63 64c-22 31 -34 71 -34 115s12 84 34 115l-63 64l32 33l63 -63c30 25 70 40 116 40s86 -15 116 -40l63 63l32 -33l-63 -64c22 -31 35 -71 35 -115s-13 -84 -35 -115l63 -64l-32 -33l-63 63c-30 -25 -70 -41 -116 -41s-86 16 -116 41zM264 212
c76 0 127 58 127 138s-51 138 -127 138c-77 0 -127 -58 -127 -138s50 -138 127 -138z" />
    <glyph glyph-name="dollar" unicode="$" horiz-adv-x="555" 
d="M318 365c99 -39 187 -88 187 -197c0 -96 -76 -167 -187 -176v-86h-66v87c-72 7 -143 35 -199 81l37 47c46 -37 104 -61 162 -68v270c-90 37 -176 82 -176 181c0 95 75 155 176 165v86h66v-87c54 -5 108 -25 156 -59l-30 -53c-39 29 -80 46 -126 52v-243zM141 509
c0 -57 49 -90 111 -117v218c-60 -7 -111 -37 -111 -101zM318 51c72 9 122 52 122 114c0 68 -54 101 -122 130v-244z" />
    <glyph glyph-name="Euro" unicode="&#x20ac;" horiz-adv-x="588" 
d="M433 -10c-183 0 -295 109 -322 255h-80v54h73c-1 11 -1 22 -1 34c0 13 0 27 2 41h-74v53h83c37 146 145 243 308 243c53 0 88 -8 124 -23l-19 -55c-30 12 -59 18 -104 18c-126 0 -207 -66 -241 -183h244l-17 -53h-237c-2 -14 -3 -29 -3 -44c0 -11 0 -21 1 -31h215
l-19 -54h-188c24 -111 111 -195 255 -195c40 0 72 6 104 22l19 -56c-39 -17 -77 -26 -123 -26z" />
    <glyph glyph-name="florin" unicode="&#x192;" horiz-adv-x="464" 
d="M373 615c-53 0 -84 -34 -91 -106l-11 -109h129l-6 -60h-129l-36 -344c-12 -116 -72 -166 -158 -166c-39 0 -70 11 -95 33l27 51c20 -16 42 -24 67 -24c53 0 85 35 92 106l35 344l-122 3l5 57h123l11 110c11 108 72 166 158 166c39 0 71 -11 95 -34l-27 -50
c-20 16 -41 23 -67 23z" />
    <glyph glyph-name="uni20BD" unicode="&#x20bd;" horiz-adv-x="607" 
d="M345 263h-153v-67h263v-56h-263v-140h-65v140h-89v56h89v67h-89v56h89v342h231c145 0 214 -100 214 -197c0 -98 -65 -201 -227 -201zM192 601v-282h152c122 0 162 71 162 145c0 79 -56 137 -149 137h-165z" />
    <glyph glyph-name="sterling" unicode="&#xa3;" horiz-adv-x="483" 
d="M141 60h310v-60h-400l-12 29c81 78 134 172 134 247c0 4 0 8 -1 12h-108v56h91c-24 49 -65 93 -65 168c0 93 79 158 177 158c61 0 115 -20 161 -61l-37 -43c-33 29 -70 44 -118 44c-68 0 -118 -41 -118 -101s45 -105 68 -165h150v-56h-138c1 -5 1 -9 1 -14
c0 -76 -42 -154 -95 -214z" />
    <glyph glyph-name="yen" unicode="&#xa5;" horiz-adv-x="597" 
d="M265 0v172h-162v53h162v64h-162v54h137l-219 318h73l204 -304l205 304h73l-220 -318h138v-54h-163v-64h163v-53h-163v-172h-66z" />
    <glyph glyph-name="cent.tf" horiz-adv-x="554" 
d="M472 161c-37 -47 -83 -76 -148 -82v-85h-52v85c-112 12 -194 98 -194 223c0 129 86 212 194 224v84h52v-84c58 -6 103 -31 139 -75l-42 -36c-30 35 -66 54 -121 54c-88 0 -161 -61 -161 -167c0 -98 64 -167 162 -167c61 0 96 22 128 62z" />
    <glyph glyph-name="dollar.tf" horiz-adv-x="554" 
d="M316 364c99 -41 187 -88 187 -194c0 -98 -76 -169 -187 -178v-86h-66v87c-72 7 -143 35 -199 81l37 47c46 -37 104 -61 162 -68v268c-89 37 -176 82 -176 179c0 99 74 159 176 169v84h66v-85c54 -5 108 -25 156 -60l-30 -53c-39 30 -80 47 -126 53v-244zM139 507
c0 -57 49 -89 111 -115v217c-56 -6 -111 -37 -111 -102zM316 51c72 9 122 53 122 117s-54 96 -122 125v-242z" />
    <glyph glyph-name="Euro.tf" horiz-adv-x="554" 
d="M518 72l19 -56c-39 -17 -77 -26 -124 -26c-162 0 -267 100 -293 255h-80v54h74c-1 9 -1 18 -1 27c0 16 1 32 2 48h-75v53h84c34 145 142 243 289 243c43 0 78 -8 114 -23l-19 -55c-30 12 -59 18 -94 18c-110 0 -191 -74 -221 -183h226l-18 -53h-218c-2 -15 -3 -31 -3 -47
c0 -10 0 -19 1 -28h196l-19 -54h-170c25 -118 104 -195 226 -195c39 0 72 6 104 22z" />
    <glyph glyph-name="florin.tf" horiz-adv-x="554" 
d="M421 617c-53 0 -88 -41 -95 -112l-11 -105h131l-5 -54h-131l-35 -350c-11 -108 -68 -166 -154 -166c-39 0 -71 11 -95 33l27 45c20 -16 41 -24 67 -24c53 0 88 41 95 112l34 350l-121 2l5 52h122l10 105c11 108 69 166 155 166c39 0 70 -11 95 -33l-27 -45
c-20 16 -42 24 -67 24z" />
    <glyph glyph-name="uni20BD.tf" horiz-adv-x="554" 
d="M287 272h-101v-75h210v-56h-210v-141h-66v141h-88v56h88v75h-88v56h88v333h180c142 0 214 -102 214 -197c0 -94 -68 -192 -227 -192zM186 601v-273h101c120 0 161 67 161 138c0 72 -60 135 -149 135h-113z" />
    <glyph glyph-name="sterling.tf" horiz-adv-x="554" 
d="M179 60h346v-60h-435l-13 29c80 78 133 172 133 247c0 7 -1 14 -2 21h-107v56h87c-25 46 -61 90 -61 155c0 95 83 163 196 163c68 0 133 -28 179 -73l-36 -44c-34 34 -82 57 -137 57c-81 0 -136 -42 -136 -102c0 -55 40 -99 64 -156h191v-56h-176c1 -7 1 -15 1 -23
c0 -76 -42 -154 -94 -214z" />
    <glyph glyph-name="yen.tf" horiz-adv-x="554" 
d="M243 0v182h-161v53h161v64h-161v54h137l-194 308h74l177 -293l180 293h74l-196 -308h138v-54h-162v-64h162v-53h-162v-182h-67z" />
    <glyph glyph-name="plus" unicode="+" horiz-adv-x="522" 
d="M232 153v160h-160v55h160v161h57v-161h160v-55h-160v-160h-57z" />
    <glyph glyph-name="minus" unicode="&#x2212;" horiz-adv-x="544" 
d="M74 313v55h396v-55h-396z" />
    <glyph glyph-name="multiply" unicode="&#xd7;" horiz-adv-x="496" 
d="M123 177l-39 39l125 124l-125 124l39 39l125 -125l126 125l38 -38l-125 -125l125 -125l-38 -38l-126 125z" />
    <glyph glyph-name="divide" unicode="&#xf7;" horiz-adv-x="556" 
d="M278 453c-33 0 -48 22 -48 47s15 47 48 47c32 0 48 -22 48 -47s-16 -47 -48 -47zM74 313v55h408v-55h-408zM278 134c-33 0 -48 22 -48 47s15 47 48 47c32 0 48 -22 48 -47s-16 -47 -48 -47z" />
    <glyph glyph-name="equal" unicode="=" horiz-adv-x="504" 
d="M74 406v55h356v-55h-356zM74 219v55h356v-55h-356z" />
    <glyph glyph-name="notequal" unicode="&#x2260;" horiz-adv-x="525" 
d="M441 407h-126l-76 -132h202v-55h-234l-66 -113l-35 22l53 91h-74v55h106l77 132h-183v55h215l65 112l36 -20l-54 -92h94v-55z" />
    <glyph glyph-name="greater" unicode="&#x3e;" horiz-adv-x="430" 
d="M62 174v62l257 114l-257 114v62l323 -150v-52z" />
    <glyph glyph-name="less" unicode="&#x3c;" horiz-adv-x="430" 
d="M368 174l-323 150v52l323 150v-62l-257 -114l257 -114v-62z" />
    <glyph glyph-name="greaterequal" unicode="&#x2265;" horiz-adv-x="430" 
d="M62 223v64l257 114l-257 114v64l323 -151v-54zM62 109v54h323v-54h-323z" />
    <glyph glyph-name="lessequal" unicode="&#x2264;" horiz-adv-x="430" 
d="M368 223l-323 151v54l323 151v-64l-257 -114l257 -114v-64zM368 109h-323v54h323v-54z" />
    <glyph glyph-name="plusminus" unicode="&#xb1;" horiz-adv-x="488" 
d="M216 244v145h-144v55h144v144h57v-144h143v-55h-143v-145h-57zM72 109v54h344v-54h-344z" />
    <glyph glyph-name="approxequal" unicode="&#x2248;" horiz-adv-x="581" 
d="M119 359l-45 27c23 51 56 90 121 90c39 0 71 -18 101 -37c31 -19 56 -37 85 -37c38 0 56 32 68 67l48 -25c-19 -53 -52 -96 -116 -96c-38 0 -68 16 -98 35s-57 37 -88 37c-43 0 -61 -23 -76 -61zM129 187l-45 28c23 51 56 89 121 89c40 0 72 -17 101 -36
c31 -20 57 -37 85 -37c38 0 56 32 69 67l47 -25c-19 -53 -51 -96 -116 -96c-37 0 -68 16 -97 35c-30 19 -58 36 -89 36c-42 0 -60 -22 -76 -61z" />
    <glyph glyph-name="asciitilde" unicode="~" horiz-adv-x="571" 
d="M119 286l-45 27c23 51 56 90 121 90c39 0 71 -17 101 -36c30 -20 56 -38 85 -38c37 0 56 32 68 67l48 -25c-20 -53 -52 -96 -116 -96c-38 0 -68 16 -98 36c-30 18 -57 36 -88 36c-43 0 -61 -23 -76 -61z" />
    <glyph glyph-name="logicalnot" unicode="&#xac;" horiz-adv-x="543" 
d="M418 196v145h-350v54h405v-199h-55z" />
    <glyph glyph-name="asciicircum" unicode="^" horiz-adv-x="463" 
d="M47 352l159 328h46l164 -328h-61l-126 259l-121 -259h-61z" />
    <glyph glyph-name="infinity" unicode="&#x221e;" horiz-adv-x="713" 
d="M199 212c-64 0 -137 49 -137 138s73 138 137 138c70 0 116 -44 158 -97c41 53 87 97 157 97c64 0 137 -49 137 -138s-73 -138 -137 -138c-70 0 -116 45 -157 97c-42 -52 -88 -97 -158 -97zM203 266c47 0 82 33 123 84c-41 51 -76 84 -123 84c-37 0 -83 -28 -83 -84
s46 -84 83 -84zM510 266c37 0 83 28 83 84s-46 84 -83 84c-47 0 -82 -33 -123 -84c41 -51 76 -84 123 -84z" />
    <glyph glyph-name="emptyset" unicode="&#x2205;" horiz-adv-x="808" 
d="M655 590c60 -62 95 -149 95 -249c0 -193 -140 -351 -345 -351c-90 0 -167 31 -227 82l-72 -79h-46l94 102c-60 64 -95 151 -95 246c0 201 143 349 346 349c90 0 167 -28 225 -77l67 73h47zM107 341c0 -82 28 -157 78 -212l414 450c-50 42 -117 66 -194 66
c-178 0 -298 -127 -298 -304zM405 35c178 0 298 136 298 306c0 87 -29 161 -79 215l-415 -451c51 -44 118 -70 196 -70z" />
    <glyph glyph-name="integral" unicode="&#x222b;" horiz-adv-x="462" 
d="M115 -182c-34 0 -71 13 -104 39l24 43c27 -18 55 -28 80 -28c47 0 83 26 83 104v556c0 107 65 158 143 158c34 0 71 -13 104 -39l-25 -43c-27 18 -54 28 -79 28c-47 0 -83 -26 -83 -104v-556c0 -107 -66 -158 -143 -158z" />
    <glyph glyph-name="uni2126" unicode="&#x2126;" horiz-adv-x="799" 
d="M74 0v60h126c-95 58 -148 159 -148 280c0 196 141 350 344 350c204 0 345 -154 345 -350c0 -121 -53 -222 -148 -280h127v-60h-252v59c128 31 207 144 207 281c0 162 -111 290 -279 290c-167 0 -278 -128 -278 -290c0 -137 79 -250 206 -281v-59h-250z" />
    <glyph glyph-name="uni2206" unicode="&#x2206;" horiz-adv-x="688" 
d="M14 0v3l320 682h19l321 -682v-3h-660zM110 60h464l-231 496z" />
    <glyph glyph-name="product" unicode="&#x220f;" horiz-adv-x="728" 
d="M100 0v680h528v-680h-66v620h-396v-620h-66z" />
    <glyph glyph-name="summation" unicode="&#x2211;" horiz-adv-x="562" 
d="M44 0v21l221 319l-221 319v21h486v-59h-388l198 -281l-198 -281h388v-59h-486z" />
    <glyph glyph-name="radical" unicode="&#x221a;" horiz-adv-x="557" 
d="M519 722h64l-312 -722h-19l-160 351h-82v56h118l131 -294z" />
    <glyph glyph-name="uni00B5" unicode="&#xb5;" horiz-adv-x="526" 
d="M387 442h61v-442h-51l-9 81c-26 -48 -71 -86 -142 -86c-50 0 -88 16 -112 53c3 -57 4 -120 4 -179v-83h-60v656h61v-242c0 -82 25 -148 110 -148c92 0 138 85 138 173v217z" />
    <glyph glyph-name="partialdiff" unicode="&#x2202;" horiz-adv-x="510" 
d="M252 -10c-104 0 -206 70 -206 203c0 147 102 227 208 227c53 0 99 -18 134 -59c-41 141 -144 243 -268 293l26 51c201 -85 318 -261 318 -472c0 -125 -71 -243 -212 -243zM253 47c104 0 149 91 149 184c-2 78 -61 132 -140 132c-80 0 -155 -54 -155 -167
c0 -85 58 -149 146 -149z" />
    <glyph glyph-name="percent" unicode="%" horiz-adv-x="766" 
d="M193 394c-102 0 -146 80 -146 148s44 148 146 148c101 0 146 -79 146 -148c0 -68 -45 -148 -146 -148zM162 0l392 680h56l-391 -680h-57zM193 441c67 0 94 55 94 101s-26 101 -94 101c-67 0 -94 -55 -94 -101s27 -101 94 -101zM573 -10c-102 0 -146 80 -146 148
s44 148 146 148c101 0 146 -79 146 -148c0 -68 -45 -148 -146 -148zM573 37c67 0 94 55 94 101s-27 101 -94 101s-94 -55 -94 -101s27 -101 94 -101z" />
    <glyph glyph-name="perthousand" unicode="&#x2030;" horiz-adv-x="1115" 
d="M193 394c-102 0 -146 80 -146 148s44 148 146 148c101 0 146 -79 146 -148c0 -68 -45 -148 -146 -148zM162 0l392 680h56l-391 -680h-57zM193 441c67 0 94 55 94 101s-26 101 -94 101c-67 0 -94 -55 -94 -101s27 -101 94 -101zM573 -10c-102 0 -146 80 -146 148
s44 148 146 148c101 0 146 -79 146 -148c0 -68 -45 -148 -146 -148zM922 -10c-102 0 -146 80 -146 148s44 148 146 148c101 0 146 -79 146 -148c0 -68 -45 -148 -146 -148zM573 37c67 0 94 55 94 101s-27 101 -94 101s-94 -55 -94 -101s27 -101 94 -101zM922 37
c67 0 94 55 94 101s-27 101 -94 101s-94 -55 -94 -101s27 -101 94 -101z" />
    <glyph glyph-name="arrowup" unicode="&#x2191;" horiz-adv-x="511" 
d="M225 54v420c0 16 0 33 1 53c-13 -16 -25 -28 -37 -40l-130 -130l-41 41l238 238l238 -239l-41 -40l-127 126l-42 44c1 -19 2 -37 2 -53v-420h-61z" />
    <glyph glyph-name="uni2197" unicode="&#x2197;" horiz-adv-x="468" 
d="M14 153l297 297c12 11 24 23 38 37c-20 -2 -37 -2 -55 -2l-183 -1v59h336l-1 -337h-57v179c0 19 1 39 1 61c-13 -15 -24 -27 -36 -39l-297 -297z" />
    <glyph glyph-name="arrowright" unicode="&#x2192;" horiz-adv-x="612" 
d="M20 405h420h53c-16 13 -28 25 -40 37l-130 129l41 42l237 -238l-238 -238l-40 41l126 127c13 13 28 26 44 42c-20 -1 -37 -2 -53 -2h-420v60z" />
    <glyph glyph-name="uni2198" unicode="&#x2198;" horiz-adv-x="468" 
d="M57 567l296 -297c12 -11 24 -23 37 -38c-1 21 -1 37 -1 55l-1 184h59v-336h-338l1 57l179 1c19 0 38 -1 60 -2c-14 13 -27 25 -38 37l-297 297z" />
    <glyph glyph-name="arrowdown" unicode="&#x2193;" horiz-adv-x="511" 
d="M286 654v-420c0 -16 0 -33 -1 -53c13 16 25 28 38 40l129 130l42 -41l-238 -238l-238 239l41 40l126 -126c14 -14 27 -28 42 -44c-1 20 -1 37 -1 53v420h60z" />
    <glyph glyph-name="uni2199" unicode="&#x2199;" horiz-adv-x="468" 
d="M454 525l-297 -297c-12 -12 -24 -24 -38 -37c20 2 37 2 55 2h183l1 -58h-337l1 337l57 -1v-178c0 -19 -1 -39 -1 -61l36 39l297 297z" />
    <glyph glyph-name="arrowleft" unicode="&#x2190;" horiz-adv-x="612" 
d="M592 301h-420c-16 0 -33 0 -53 1c16 -14 28 -25 40 -38l130 -129l-41 -42l-237 238l238 238l40 -41l-126 -126c-13 -14 -28 -27 -44 -42c20 0 37 1 53 1h420v-60z" />
    <glyph glyph-name="uni2196" unicode="&#x2196;" horiz-adv-x="468" 
d="M411 106l-296 297c-12 11 -24 23 -37 38c1 -21 1 -37 1 -55l1 -183l-59 -1v337l338 -1l-1 -57h-179c-19 0 -38 0 -61 1c15 -13 28 -25 39 -37l297 -297z" />
    <glyph glyph-name="arrowboth" unicode="&#x2194;" horiz-adv-x="796" 
d="M248 117l-237 238l238 238l40 -41l-126 -127c-13 -13 -28 -27 -44 -41c20 0 37 1 53 1h452c16 0 33 0 53 -1c-16 13 -28 25 -40 37l-130 130l41 41l238 -237l-239 -238l-40 41l126 126c14 13 28 27 44 41c-19 0 -36 -1 -53 -1h-452c-16 0 -33 0 -53 1
c16 -13 28 -25 40 -37l130 -130z" />
    <glyph glyph-name="arrowupdn" unicode="&#x2195;" horiz-adv-x="511" 
d="M18 504l238 238l238 -238l-41 -40l-127 126c-13 13 -27 28 -41 45c1 -21 1 -38 1 -55v-451c0 -16 0 -33 -1 -53c13 16 25 28 38 40l129 130l42 -41l-238 -238l-238 239l41 40l126 -126c14 -14 27 -28 41 -44c-1 18 -1 35 -1 53v452c0 16 0 33 1 53
c-13 -16 -25 -28 -37 -41l-130 -130z" />
    <glyph glyph-name="lozenge" unicode="&#x25ca;" horiz-adv-x="547" 
d="M267 0l-231 340l231 340h13l232 -340l-232 -340h-13zM274 98l167 242l-167 241l-168 -241z" />
    <glyph glyph-name="at" unicode="@" horiz-adv-x="841" 
d="M386 -144c-188 0 -329 138 -329 342c0 243 170 435 407 435c166 0 320 -102 320 -315c0 -130 -56 -252 -170 -252c-44 0 -73 25 -82 60c-25 -41 -78 -70 -140 -70c-90 0 -137 69 -137 148c0 124 79 228 212 228c49 0 81 -10 127 -38l-19 -212c-4 -44 12 -68 44 -68
c79 0 113 103 113 200c0 189 -126 269 -271 269c-201 0 -352 -168 -352 -383c0 -179 118 -295 278 -295c50 0 102 12 152 32l20 -45c-60 -25 -120 -36 -173 -36zM398 102c66 0 117 48 129 132l13 132c-24 13 -44 19 -78 19c-89 0 -152 -80 -152 -177c0 -58 32 -106 88 -106z
" />
    <glyph glyph-name="ampersand" unicode="&#x26;" horiz-adv-x="642" 
d="M256 -10c-129 0 -202 80 -202 168c0 79 48 156 150 211c-51 59 -79 106 -79 161c0 85 69 160 177 160c94 0 156 -66 156 -143c0 -87 -73 -145 -162 -192l168 -174c35 58 54 129 56 189h59c-1 -77 -26 -166 -72 -235l122 -135h-75l-83 90c-49 -55 -124 -100 -215 -100z
M257 399c73 39 136 80 136 145c0 47 -36 86 -94 86c-68 0 -109 -46 -109 -98c0 -44 21 -80 67 -133zM256 50c74 0 134 39 174 84l-187 192c-84 -42 -124 -108 -124 -165c0 -59 50 -111 137 -111z" />
    <glyph glyph-name="paragraph" unicode="&#xb6;" horiz-adv-x="600" 
d="M230 -91v403c-114 1 -186 77 -186 184c0 108 72 184 186 184h270v-771h-60v717h-150v-717h-60z" />
    <glyph glyph-name="section" unicode="&#xa7;" horiz-adv-x="528" 
d="M259 -50c-69 0 -134 23 -183 66l34 46c40 -37 92 -57 150 -57c72 0 118 25 118 90c0 57 -56 83 -123 108c-82 31 -188 66 -188 157c0 45 26 85 68 106c-27 24 -40 54 -40 90c0 91 78 134 168 134c57 0 110 -16 157 -47l-27 -44c-37 25 -82 38 -128 38
c-65 0 -113 -27 -113 -80c0 -52 59 -78 122 -102c75 -29 186 -75 186 -161c0 -42 -23 -80 -61 -106c25 -25 38 -55 38 -91c0 -97 -74 -147 -178 -147zM362 216c25 16 41 41 41 70c0 64 -91 94 -149 116c-27 11 -54 22 -79 35c-28 -16 -51 -42 -51 -71c0 -60 97 -90 151 -110
c32 -12 62 -25 87 -40z" />
    <glyph glyph-name="copyright" unicode="&#xa9;" horiz-adv-x="790" 
d="M395 -3c-204 0 -338 152 -338 343s134 342 338 342s338 -151 338 -342s-134 -343 -338 -343zM395 50c174 0 285 126 285 290s-111 289 -285 289c-172 0 -285 -125 -285 -289s113 -290 285 -290zM409 157c-89 0 -179 59 -179 183c0 116 83 182 177 182
c52 0 90 -17 123 -51l-28 -33c-28 25 -57 37 -96 37c-73 0 -125 -55 -125 -135c0 -82 54 -135 128 -135c41 0 72 15 100 44l28 -35c-36 -39 -81 -57 -128 -57z" />
    <glyph glyph-name="registered" unicode="&#xae;" horiz-adv-x="556" 
d="M278 237c-126 0 -221 96 -221 226c0 128 95 224 221 224s221 -96 221 -224c0 -130 -95 -226 -221 -226zM278 279c102 0 179 78 179 184c0 103 -77 181 -179 181c-101 0 -178 -78 -178 -181c0 -106 77 -184 178 -184zM204 356v217h92c40 0 69 -27 69 -64
c0 -35 -25 -59 -58 -63l64 -90h-39l-62 90h-34v-90h-32zM236 475h57c24 0 40 14 40 34s-16 35 -40 35h-57v-69z" />
    <glyph glyph-name="uni2117" unicode="&#x2117;" horiz-adv-x="790" 
d="M395 -3c-204 0 -338 152 -338 343s134 342 338 342s338 -151 338 -342s-134 -343 -338 -343zM395 50c174 0 285 126 285 290s-111 289 -285 289c-172 0 -285 -125 -285 -289s113 -290 285 -290zM285 158v371h146c78 0 117 -61 117 -115c0 -59 -37 -116 -119 -116h-98
v-140h-46zM331 341h88c60 0 82 34 82 75c0 39 -27 70 -80 70h-90v-145z" />
    <glyph glyph-name="trademark" unicode="&#x2122;" horiz-adv-x="681" 
d="M146 402v236h-93v42h233v-42h-94v-236h-46zM308 402l39 278h8l109 -150l109 150h9l38 -278h-46l-22 177l-84 -116h-8l-84 116l-22 -177h-46z" />
    <glyph glyph-name="degree" unicode="&#xb0;" horiz-adv-x="360" 
d="M180 427c-71 0 -136 44 -136 131s65 131 136 131s136 -44 136 -131s-65 -131 -136 -131zM180 473c45 0 82 30 82 85s-37 85 -82 85s-82 -30 -82 -85s37 -85 82 -85z" />
    <glyph glyph-name="bar" unicode="|" horiz-adv-x="231" 
d="M86 -166v905h60v-905h-60z" />
    <glyph glyph-name="brokenbar" unicode="&#xa6;" horiz-adv-x="231" 
d="M86 353v386h60v-386h-60zM86 -166v404h60v-404h-60z" />
    <glyph glyph-name="uni2113" unicode="&#x2113;" horiz-adv-x="458" 
d="M257 -10c-99 0 -137 67 -137 159v24l-73 -34l-21 41c29 13 62 28 94 45v269c0 116 51 196 154 196c102 0 140 -93 140 -160c0 -160 -105 -255 -238 -328v-53c0 -54 22 -109 81 -109c35 0 69 14 94 40l31 -41c-33 -32 -77 -49 -125 -49zM176 256c105 63 185 147 185 276
c0 41 -24 106 -86 106c-63 0 -99 -52 -99 -146v-236z" />
    <glyph glyph-name="dagger" unicode="&#x2020;" horiz-adv-x="594" 
d="M267 -294v603h-204v55h204v317h60v-317h204v-55h-204v-603h-60z" />
    <glyph glyph-name="daggerdbl" unicode="&#x2021;" horiz-adv-x="594" 
d="M267 -294v317h-204v55h204v231h-204v55h204v317h60v-317h204v-55h-204v-231h204v-55h-204v-317h-60z" />
    <glyph glyph-name="estimated" unicode="&#x212e;" horiz-adv-x="796" 
d="M402 -10c-207 0 -345 158 -345 361c0 200 141 359 345 359s333 -159 333 -359c0 -8 -1 -16 -1 -24h-556v-170c50 -69 129 -111 224 -111c92 0 176 50 229 122l45 -34c-66 -90 -161 -144 -274 -144zM178 377h440v174c-49 66 -125 104 -216 104c-94 0 -174 -40 -224 -109
v-169z" />
    <glyph glyph-name="uni2116" unicode="&#x2116;" horiz-adv-x="1067" 
d="M895 427c-71 0 -136 44 -136 131s65 131 136 131s136 -44 136 -131s-65 -131 -136 -131zM598 203v477h66v-685h-29l-423 498c-15 18 -32 37 -49 56c2 -21 3 -42 3 -65v-484h-66v685h28l422 -496c16 -18 33 -37 50 -57c-2 25 -2 49 -2 71zM895 643c-45 0 -83 -30 -83 -85
s38 -85 83 -85c44 0 82 30 82 85s-38 85 -82 85zM767 315v43h255v-43h-255z" />
    <glyph glyph-name="uni0308" unicode="&#x308;" 
d="M-278 561c-27 0 -44 20 -44 42s15 45 44 45c28 0 44 -22 44 -43s-15 -44 -44 -44zM-106 561c-28 0 -43 22 -43 43s15 44 43 44c29 0 44 -23 44 -44s-16 -43 -44 -43z" />
    <glyph glyph-name="uni0307" unicode="&#x307;" 
d="M-105 556c-29 0 -47 21 -47 46c0 27 18 48 47 48s48 -21 48 -49c0 -25 -20 -45 -48 -45z" />
    <glyph glyph-name="gravecomb" unicode="&#x300;" 
d="M-71 537l-142 101l42 48l131 -113z" />
    <glyph glyph-name="acutecomb" unicode="&#x301;" 
d="M-190 537l-31 36l132 113l40 -47z" />
    <glyph glyph-name="uni030B" unicode="&#x30b;" 
d="M-302 526l-39 27l97 139l52 -35zM-141 526l-39 27l97 139l52 -35z" />
    <glyph glyph-name="uni0302" unicode="&#x302;" 
d="M-273 524l-28 35l118 102h14l116 -103l-26 -34l-96 76z" />
    <glyph glyph-name="uni030C" unicode="&#x30c;" 
d="M-185 530l-116 103l26 34l97 -76l98 76l27 -35l-117 -102h-15z" />
    <glyph glyph-name="uni0306" unicode="&#x306;" 
d="M-177 528c-59 0 -107 36 -122 106l46 11c9 -41 43 -64 78 -64c33 0 65 25 73 64l46 -11c-14 -70 -63 -106 -121 -106z" />
    <glyph glyph-name="uni030A" unicode="&#x30a;" 
d="M-142 506c-53 0 -105 33 -105 96s51 96 104 96s103 -33 103 -96s-49 -96 -102 -96zM-143 546c30 0 57 19 57 56s-27 57 -57 57s-58 -20 -58 -57s29 -56 58 -56z" />
    <glyph glyph-name="tildecomb" unicode="&#x303;" 
d="M-268 553l-43 24c18 46 42 69 75 69c19 0 42 -7 66 -21c19 -10 32 -16 43 -16c15 0 27 11 36 35l43 -24c-18 -45 -43 -66 -75 -66c-17 0 -37 6 -59 18c-19 10 -35 18 -48 18c-17 0 -29 -11 -38 -37z" />
    <glyph glyph-name="uni0304" unicode="&#x304;" 
d="M-320 560v53h257v-53h-257z" />
    <glyph glyph-name="uni0312" unicode="&#x312;" 
d="M-147 541c6 67 23 125 51 171h48c-19 -49 -32 -107 -32 -171h-67z" />
    <glyph glyph-name="uni0326" unicode="&#x326;" 
d="M-147 -276c17 47 31 105 31 171h67c-6 -70 -23 -127 -50 -171h-48z" />
    <glyph glyph-name="uni0327" unicode="&#x327;" 
d="M-149 -211c-38 0 -70 9 -98 26l21 39c20 -13 44 -21 72 -21c32 0 55 12 55 38c0 37 -53 47 -101 46l35 80h49l-22 -51c52 -5 90 -31 90 -78c0 -50 -43 -79 -101 -79z" />
    <glyph glyph-name="uni0328" unicode="&#x328;" 
d="M-112 -213c-59 0 -90 35 -90 79c0 54 44 106 107 161l42 -27c-53 -43 -88 -85 -88 -123c0 -22 13 -36 42 -36c18 0 35 7 50 17l18 -47c-23 -16 -52 -24 -81 -24z" />
    <glyph glyph-name="acute" unicode="&#xb4;" horiz-adv-x="267" 
d="M80 537l-31 36l132 113l40 -47z" />
    <glyph glyph-name="breve" unicode="&#x2d8;" horiz-adv-x="352" 
d="M178 528c-59 0 -107 36 -122 106l46 11c9 -41 43 -64 78 -64c33 0 65 25 73 64l46 -11c-14 -70 -63 -106 -121 -106z" />
    <glyph glyph-name="caron" unicode="&#x2c7;" horiz-adv-x="353" 
d="M172 530l-116 103l26 34l97 -76l98 76l27 -35l-117 -102h-15z" />
    <glyph glyph-name="cedilla" unicode="&#xb8;" horiz-adv-x="290" 
d="M145 -211c-38 0 -70 9 -98 26l21 39c20 -13 44 -21 72 -21c32 0 55 12 55 38c0 37 -53 47 -101 46l35 80h49l-22 -51c52 -5 90 -31 90 -78c0 -50 -43 -79 -101 -79z" />
    <glyph glyph-name="circumflex" unicode="&#x2c6;" horiz-adv-x="353" 
d="M83 524l-28 35l118 102h14l116 -103l-26 -34l-96 76z" />
    <glyph glyph-name="dieresis" unicode="&#xa8;" horiz-adv-x="382" 
d="M107 561c-27 0 -44 20 -44 42s15 45 44 45c28 0 44 -22 44 -43s-15 -44 -44 -44zM279 561c-28 0 -43 22 -43 43s15 44 43 44c29 0 44 -23 44 -44s-16 -43 -44 -43z" />
    <glyph glyph-name="dotaccent" unicode="&#x2d9;" horiz-adv-x="202" 
d="M101 556c-29 0 -47 21 -47 46c0 27 18 48 47 48s48 -21 48 -49c0 -25 -20 -45 -48 -45z" />
    <glyph glyph-name="grave" unicode="`" horiz-adv-x="252" 
d="M185 537l-142 101l42 48l131 -113z" />
    <glyph glyph-name="hungarumlaut" unicode="&#x2dd;" horiz-adv-x="377" 
d="M78 526l-39 27l97 139l52 -35zM239 526l-39 27l97 139l52 -35z" />
    <glyph glyph-name="macron" unicode="&#xaf;" horiz-adv-x="379" 
d="M63 560v53h257v-53h-257z" />
    <glyph glyph-name="ogonek" unicode="&#x2db;" horiz-adv-x="241" 
d="M133 -213c-59 0 -90 35 -90 79c0 54 44 106 107 161l42 -27c-53 -43 -88 -85 -88 -123c0 -22 13 -36 42 -36c18 0 35 7 50 17l18 -47c-23 -16 -52 -24 -81 -24z" />
    <glyph glyph-name="ring" unicode="&#x2da;" horiz-adv-x="283" 
d="M145 506c-53 0 -105 33 -105 96s51 96 104 96s103 -33 103 -96s-49 -96 -102 -96zM144 546c30 0 57 19 57 56s-27 57 -57 57s-58 -20 -58 -57s29 -56 58 -56z" />
    <glyph glyph-name="tilde" unicode="&#x2dc;" horiz-adv-x="356" 
d="M91 553l-43 24c18 46 42 69 75 69c19 0 42 -7 66 -21c19 -10 32 -16 43 -16c15 0 27 11 36 35l43 -24c-18 -45 -43 -66 -75 -66c-17 0 -37 6 -59 18c-19 10 -35 18 -48 18c-17 0 -29 -11 -38 -37z" />
    <glyph glyph-name="uni0308.case" 
d="M-290 786c-28 0 -45 21 -45 44c0 22 15 46 45 46s46 -23 46 -44c0 -22 -16 -46 -46 -46zM-99 786c-30 0 -46 23 -46 45c0 21 16 45 46 45s45 -24 45 -45c0 -22 -16 -45 -45 -45z" />
    <glyph glyph-name="uni0307.case" 
d="M-105 782c-31 0 -47 23 -47 46c0 24 15 48 47 48s48 -24 48 -49c0 -23 -17 -45 -48 -45z" />
    <glyph glyph-name="gravecomb.case" 
d="M-71 763l-142 100l42 48l131 -113z" />
    <glyph glyph-name="acutecomb.case" 
d="M-190 763l-31 35l132 113l40 -47z" />
    <glyph glyph-name="uni030B.case" 
d="M-302 751l-39 27l97 139l52 -35zM-141 751l-39 27l97 139l52 -35z" />
    <glyph glyph-name="uni0302.case" 
d="M-286 752l-27 35l130 102h14l129 -103l-26 -34l-109 76z" />
    <glyph glyph-name="uni030C.case" 
d="M-185 755l-128 104l26 33l109 -76l110 76l28 -34l-130 -103h-15z" />
    <glyph glyph-name="uni0306.case" 
d="M-177 753c-62 0 -114 36 -129 106l46 12c10 -41 46 -65 83 -65s73 24 83 65l46 -12c-15 -70 -67 -106 -129 -106z" />
    <glyph glyph-name="uni030A.case" 
d="M-142 729c-54 0 -106 34 -106 98s50 98 104 98s106 -34 106 -98c0 -63 -51 -98 -104 -98zM-143 769c31 0 59 20 59 58c0 39 -29 59 -60 59c-30 0 -58 -21 -58 -59s29 -58 59 -58z" />
    <glyph glyph-name="tildecomb.case" 
d="M-273 777l-43 25c18 47 43 70 78 70c19 0 42 -7 70 -21c18 -9 32 -16 44 -16c16 0 28 10 38 35l43 -24c-18 -46 -43 -68 -77 -68c-18 0 -39 6 -63 19c-19 10 -35 17 -49 17c-18 0 -31 -10 -41 -37z" />
    <glyph glyph-name="uni0304.case" 
d="M-327 822v54h265v-54h-265z" />
    <glyph glyph-name="uni0312.case" 
d="M-147 778c6 67 23 125 51 171h48c-19 -49 -32 -107 -32 -171h-67z" />
    <glyph glyph-name="uni0326.case" 
d="M-147 -276c17 47 31 105 31 171h67c-6 -70 -23 -127 -50 -171h-48z" />
    <glyph glyph-name="uni0327.case" 
d="M-146 -214c-40 0 -73 8 -101 27l21 41c22 -15 46 -22 75 -22c33 0 57 11 57 38c0 39 -56 49 -105 47l36 83h52l-23 -52c53 -5 93 -32 93 -80c0 -52 -46 -82 -105 -82z" />
    <glyph glyph-name="uni0328.case" 
d="M-111 -216c-61 0 -94 33 -94 81c0 55 42 105 109 159l43 -24c-53 -43 -88 -85 -88 -123c0 -22 14 -36 42 -36c18 0 36 7 50 17l19 -50c-24 -16 -53 -24 -81 -24z" />
    <glyph glyph-name="uni0308.narrow" 
d="M-266 558c-27 0 -45 19 -45 45c0 25 18 46 45 46c26 0 44 -21 44 -46s-18 -45 -44 -45zM-120 558c-26 0 -44 20 -44 45s18 46 44 46c28 0 45 -21 45 -46s-17 -45 -45 -45z" />
    <glyph glyph-name="uni0304.narrow" 
d="M-292 559v54h200v-54h-200z" />
    <glyph glyph-name="brevecombcy" 
d="M-158 535c-55 0 -100 24 -127 72l37 28c20 -31 53 -51 90 -51c36 0 69 20 90 51l36 -28c-26 -48 -71 -72 -126 -72z" />
    <glyph glyph-name="brevecombcy.case" 
d="M-149 749c-68 0 -118 28 -147 82l41 29c22 -35 60 -59 106 -59c47 0 84 24 107 59l39 -29c-28 -54 -78 -82 -146 -82z" />
    </font>
</defs>
</svg>
